<svg xmlns="http://www.w3.org/2000/svg" width="24" height="24.002"><path fill="none" d="M0 0h24v24.002H0z"/><path d="M15 2H9v2h6zm7.699 6.339A2.534 2.534 0 0 0 20.463 7H15c0-1.654-1.346-3-3-3-1.622 0-2.939 1.296-2.986 3H3.536a2.534 2.534 0 0 0-2.11 3.944c.396.593.99 1.025 1.717 1.231l6.523 1.538L9.895 16H9c-1.654 0-3 1.346-3 3v1a1 1 0 0 0 1 1h10a1 1 0 0 0 1-1v-1c0-1.654-1.346-3-3-3h-.896l.228-2.287 6.569-1.549a3.003 3.003 0 0 0 1.674-1.221c.519-.78.567-1.778.124-2.604zM3.646 10.24a1 1 0 0 1-.557-.406A.535.535 0 0 1 3.536 9h5.659l.261 2.609-5.81-1.369zM15 18c.551 0 1 .449 1 1H8c0-.551.449-1 1-1h6zm-3-2h-.096L11 7c0-.551.449-1 1-1s1 .449 1.005.9l-.91 9.1H12zm8.91-6.167a.984.984 0 0 1-.513.396l-5.856 1.38L14.8 9h5.663a.537.537 0 0 1 .447.833z" fill="#757575"/></svg>