<svg xmlns="http://www.w3.org/2000/svg" width="24" height="24"><path fill="none" d="M0 0h24v24H0z"/><path fill="#757575" d="M12 3.002c-4.486 0-8 3.584-8 8.158 0 7.757 7.33 10.656 7.642 10.775a1 1 0 0 0 .716 0C12.67 21.816 20 18.917 20 11.16c0-4.574-3.514-8.158-8-8.158zm.004 16.909C10.665 19.276 6 16.667 6 11.16c0-.183.011-.362.026-.541.073 1.316.699 4.295 4.913 4.295 0 0 .967-4.861-4.833-4.907C6.619 7.124 9.022 5.002 12 5.002s5.382 2.122 5.895 5.005c-5.8.046-4.833 4.907-4.833 4.907 4.213 0 4.84-2.979 4.913-4.294.014.178.025.358.025.54 0 5.548-4.634 8.116-5.996 8.751z"/></svg>