<svg xmlns="http://www.w3.org/2000/svg" width="24" height="24"><path fill="none" d="M0 0h24v24H0z"/><g fill="#757575"><path d="M21.414 5.416a2 2 0 1 0-2.828-2.828 1.99 1.99 0 0 0-.511 1.925l-1.036 1.036C15.6 4.573 13.866 4.002 12 4.002s-3.6.571-5.039 1.547L5.925 4.513a1.99 1.99 0 0 0-.511-1.925 2 2 0 1 0-2.828 2.828 1.991 1.991 0 0 0 1.925.511l.931.932A8.957 8.957 0 0 0 3 13.002v6.5c0 1.93 1.57 3.5 3.5 3.5 1.251 0 2.267-.574 2.875-1.552.563 1.24 1.662 1.552 2.625 1.552.954 0 2.043-.305 2.61-1.513.115.162.252.324.415.487a3.477 3.477 0 0 0 2.475 1.025c1.93 0 3.5-1.57 3.5-3.5v-6.5a8.962 8.962 0 0 0-2.442-6.144l.931-.932a1.986 1.986 0 0 0 1.925-.509zM19 19.502a1.502 1.502 0 0 1-2.561 1.061c-.352-.352-.42-.606-.436-1.145-.023-.794-.664-1.416-1.498-1.416-.817 0-1.493.665-1.506 1.483-.021 1.412-.41 1.517-1 1.517-.594 0-.984-.108-1-1.559-.009-.795-.664-1.441-1.5-1.441a1.52 1.52 0 0 0-1.518 1.384c-.099 1.057-.611 1.616-1.483 1.616-.827 0-1.5-.673-1.5-1.5v-6.5c0-3.86 3.14-7 7-7s7 3.14 7 7v6.5z"/><path d="M12 8.002c-2.206 0-4 1.794-4 4s1.794 4 4 4 4-1.794 4-4-1.794-4-4-4zm0 6c-1.103 0-2-.897-2-2s.897-2 2-2 2 .897 2 2c0 1.102-.897 2-2 2z"/></g></svg>