<svg xmlns="http://www.w3.org/2000/svg" width="24" height="24"><path fill="none" d="M0 0h24v24H0z"/><path d="M19 10H5a1 1 0 0 0-1 1v7h2v-6h1v6a1 1 0 0 0 1 1h1v3h2v-3h2v3h2v-3h1a1 1 0 0 0 1-1v-6h1v6h2v-7a1 1 0 0 0-1-1zm-4 7H9v-5h6v5zM7 8a1 1 0 0 0 1 1h8a1 1 0 0 0 1-1 4.966 4.966 0 0 0-.833-2.753l1.54-1.541-1.414-1.414-1.54 1.54C13.962 3.31 13.018 3 12 3s-1.962.31-2.753.833l-1.54-1.54-1.414 1.414 1.54 1.541A4.96 4.96 0 0 0 7 8zm5-3c1.304 0 2.416.836 2.829 2H9.171A3.006 3.006 0 0 1 12 5z" fill="#757575"/></svg>