<svg xmlns="http://www.w3.org/2000/svg" width="24" height="24"><path fill="none" d="M0 0h24v24H0z"/><path fill="#757575" d="M12 2C6.486 2 2 6.486 2 12c0 5.515 4.486 10 10 10a9.943 9.943 0 0 0 5.653-1.741l-1.132-1.648A7.952 7.952 0 0 1 12 20c-4.411 0-8-3.589-8-8s3.589-8 8-8 8 3.589 8 8v.783C20 14.171 19.402 15 18.4 15l-.002.018a.977.977 0 0 0-.189-.018H18c-.563 0-1.4-.818-1.4-1.369V12c0-2.536-2.063-4.6-4.6-4.6S7.4 9.464 7.4 12c0 2.536 2.063 4.6 4.6 4.6 1.234 0 2.35-.494 3.177-1.288C15.826 16.27 16.929 17 18 17l.002-.018c.062.012.127.018.194.018h.204c2.153 0 3.6-1.694 3.6-4.217V12c0-5.514-4.486-10-10-10zm0 12.6A2.602 2.602 0 0 1 9.4 12c0-1.433 1.166-2.6 2.6-2.6s2.6 1.167 2.6 2.6c0 1.434-1.166 2.6-2.6 2.6z"/></svg>