<svg xmlns="http://www.w3.org/2000/svg" width="24" height="24"><path fill="none" d="M0 0h24v24H0z"/><path fill="#757575" d="M23.895 15.553L21 9.764V6h2V4H13V0h-2v4H1v2h2v2.142c-1.72.448-3 2-3 3.858 0 2.206 1.794 4 4 4s4-1.794 4-4c0-1.858-1.28-3.41-3-3.858V6h6v6.841c-1.923.972-3 2.754-3 5.159 0 3.757 2.617 6 7 6a1 1 0 0 0 .707-1.707C15.69 22.276 14 20.556 14 18c0-2.526 1.693-4.278 1.707-4.293A1 1 0 0 0 15 12c-.717 0-1.381.066-2 .183V6h6v3.764l-2.895 5.789c-.155.31-.138.678.044.974.183.293.504.473.851.473h6c.347 0 .668-.18.851-.474.182-.295.198-.663.044-.973zM6 12c0 1.103-.897 2-2 2s-2-.897-2-2c0-1.104.897-2 2-2s2 .896 2 2zm6.94 9.768C11.347 21.36 10 20.327 10 18s1.347-3.36 2.94-3.768c-.497.966-.94 2.252-.94 3.768s.443 2.802.94 3.768zM18.618 15L20 12.236 21.382 15h-2.764z"/></svg>