<svg xmlns="http://www.w3.org/2000/svg" width="24" height="24"><path fill="none" d="M0 0h24v24H0z"/><g fill="#757575"><path d="M16.999 5c-.441 0-.831.29-.958.713L15.055 9h-4.056V3a1 1 0 0 0-1-1h-1c-3.309 0-6 2.691-6 6 0 .315-.002 1.712.005 2.027a.96.96 0 0 0 .046.29l2 6a1 1 0 0 0 .949.683h8c.441 0 .831-.29.958-.713L17.743 7h3.256V5h-4zm-12 3c0-.472.097-.918.248-1.338L7.585 9H4.999V8zm4-.414l-2.6-2.601A3.967 3.967 0 0 1 8.999 4v3.586zM13.255 15H6.72l-1.333-4h9.069l-1.201 4z"/><circle cx="6.999" cy="20" r="2"/><circle cx="12.999" cy="20" r="2"/></g></svg>