<svg xmlns="http://www.w3.org/2000/svg" width="24" height="24.002"><path fill="none" d="M0 0h24v24.002H0z"/><g fill="#757575"><path d="M19.983 8c0-4.636-3.364-8-8-8s-8 3.364-7.999 7.946c-.009.174-.216 4.32 1.028 9.297C6.292 22.358 7.986 24 11.983 24s5.691-1.642 6.97-6.757c1.245-4.977 1.038-9.123 1.03-9.243zm-3.242 9.761l-3.259-1.629 3.981-1.493a29.135 29.135 0 0 1-.722 3.122zM5.983 8c0-3.477 2.523-6 6-6s6 2.523 6.001 6.053c.001.026.084 1.788-.196 4.327l-6.749 2.53-4.851-2.425c-.293-2.6-.207-4.422-.205-4.485zm6 14c-2.643 0-3.837-.474-5.03-5.243a30.834 30.834 0 0 1-.402-1.855l9.511 4.755C15.105 21.735 13.942 22 11.983 22z"/><path d="M11.983 13c2.757 0 5-2.243 5-5s-2.243-5-5-5-5 2.243-5 5 2.244 5 5 5zm0-8c1.654 0 3 1.346 3 3s-1.346 3-3 3-3-1.346-3-3 1.346-3 3-3z"/><circle cx="11.983" cy="9" r="1"/></g></svg>