<svg xmlns="http://www.w3.org/2000/svg" width="24.001" height="24.001"><path fill="none" d="M0 0h24.001v24.001H0z"/><g fill="#757575"><path d="M9.001 14.001h6v2h-6z"/><path d="M19.001 13.001h-1v-2a1 1 0 0 0 1-1v-5c0-1.654-1.346-3-3-3h-8c-1.654 0-3 1.346-3 3v5a1 1 0 0 0 1 1v2h-1c-1.654 0-3 1.346-3 3v5a1 1 0 0 0 1 1h18a1 1 0 0 0 1-1v-5c0-1.654-1.346-3-3-3zm0 2c.551 0 1 .448 1 1h-2v-1h1zm-12-10c0-.552.449-1 1-1h8c.551 0 1 .448 1 1v4h-2v-2h-2v2h-2v-2h-2v2h-2v-4zm-2 10h1v1h-2c0-.552.449-1 1-1zm-1 3h2v2h-2v-2zm4-7h1v1h2v-1h2v1h2v-1h1v9h-8v-9zm10 9v-2h2v2h-2z"/></g></svg>