<svg xmlns="http://www.w3.org/2000/svg" width="24" height="24"><path fill="none" d="M0 0h24v24H0z"/><g fill="#757575"><path d="M13 5.278V1a.998.998 0 0 0-1.316-.948L9.077.921 7.447.105a1.006 1.006 0 0 0-.895 0L4.923.921 2.316.052a.993.993 0 0 0-.9.138A.996.996 0 0 0 1 1v4.278C.405 5.626 0 6.264 0 7v15c0 1.103.897 2 2 2h10c1.103 0 2-.897 2-2V7c0-.736-.405-1.374-1-1.722zM4.684 2.949a1 1 0 0 0 .763-.054L7 2.119l1.553.775a.996.996 0 0 0 .763.055L11 2.388V5H3V2.388l1.684.561zM11.997 22H2V7h10l-.003 15z"/><path d="M3 8h8v4H3z"/><circle cx="4" cy="14" r="1"/><circle cx="10" cy="14" r="1"/><circle cx="7" cy="14" r="1"/><circle cx="4" cy="17" r="1"/><circle cx="10" cy="17" r="1"/><circle cx="7" cy="17" r="1"/><circle cx="4" cy="20" r="1"/><circle cx="10" cy="20" r="1"/><circle cx="7" cy="20" r="1"/><path d="M23 8h-7a1 1 0 0 0-1 1v10a1 1 0 0 0 1 1h7a1 1 0 0 0 1-1V9a1 1 0 0 0-1-1zm-6 2h1v8h-1v-8zm5 8h-2v-8h2v8z"/></g></svg>