<svg xmlns="http://www.w3.org/2000/svg" width="24" height="24"><path fill="none" d="M0 0h24v24H0z"/><g fill="#757575"><path d="M15 3v1.05c-1.14.232-2 1.242-2 2.45C13 7.879 14.122 9 15.5 9h1a.5.5 0 0 1 0 1H15v3h2v-1.05c1.14-.233 2-1.243 2-2.45C19 8.122 17.878 7 16.5 7h-1a.5.5 0 0 1 0-1H19V4h-2V3h-2z"/><path d="M19 18c0 .552-.449 1-1 1h-5v2h4c0 .552-.449 1-1 1H8.414L6 19.586v-5.172L8.414 12H12v1c0 .552-.449 1-1 1H9v2h2c1.654 0 3-1.346 3-3v-2a1 1 0 0 0-1-1H8a.997.997 0 0 0-.707.293L5.46 12.127A.975.975 0 0 0 5 12H1a1 1 0 0 0-1 1v8a1 1 0 0 0 1 1h4c.169 0 .32-.052.46-.126l1.833 1.834A1 1 0 0 0 8 24h8c1.654 0 3-1.346 3-3v-.184A2.995 2.995 0 0 0 21 18v-1h-2v1zM4 20H2v-6h2v6z"/><path d="M16 0c-4.411 0-8 3.59-8 8 0 .34.028.671.069 1h2.021A5.978 5.978 0 0 1 10 8c0-3.308 2.691-6 6-6s6 2.692 6 6c0 3.309-2.691 6-6 6-.341 0-.674-.035-1-.09v2.021c.328.041.661.069 1 .069 4.411 0 8-3.589 8-8 0-4.41-3.589-8-8-8z"/></g></svg>