<svg xmlns="http://www.w3.org/2000/svg" width="24" height="24.001"><path fill="none" d="M0 0h24v24.001H0z"/><path d="M16.499 13.556c2.481 0 4.5-2.018 4.5-4.5 0-2.268-3.206-6.551-4.5-8.281-.748 1-4.5 5.849-4.5 8.281 0 2.482 2.019 4.5 4.5 4.5zm0-9.39c1.217 1.779 2.5 3.99 2.5 4.89 0 1.378-1.122 2.5-2.5 2.5s-2.5-1.122-2.5-2.5c0-.899 1.283-3.111 2.5-4.89zM19.999 17h-7.586l.293-.293a1 1 0 0 0 .188-1.154l-1-2a1.001 1.001 0 0 0-1.211-.501l-4.757 1.585A.998.998 0 0 0 4.999 14h-4a1 1 0 0 0-1 1v8a1 1 0 0 0 1 1h4a1 1 0 0 0 1-1h11a1 1 0 0 0 .8-.4l3-4a.999.999 0 0 0-.8-1.6zm-18 5v-6h2v6h-2zm14.5-1h-10.5v-4.279l4.494-1.497.29.579-1.49 1.49A1 1 0 0 0 9.999 19h8l-1.5 2z" fill="#757575"/></svg>