<svg xmlns="http://www.w3.org/2000/svg" width="24" height="24"><path fill="none" d="M0 0h24v24H0z"/><g fill="#757575"><path d="M12 .002c-6.617 0-12 5.384-12 12S5.383 24 12 24s12-5.382 12-11.999C24 5.385 18.617.002 12 .002zm8.647 7h-2.412c-.416-.516-2.633-3.899-3.002-4.453a10.041 10.041 0 0 1 5.414 4.453zM6 12.002c0-3.308 2.691-6 6-6s6 2.692 6 6c0 3.309-2.691 6-6 6s-6-2.691-6-6zm6.481-9.975l1.487 2.23c-.631-.16-1.288-.255-1.968-.255s-1.337.095-1.968.255l1.487-2.23c.161-.008.318-.025.481-.025s.32.017.481.025zm-3.714.522c-.369.554-2.586 3.937-3.002 4.453H3.353a10.041 10.041 0 0 1 5.414-4.453zM2.461 9.002h2.128a7.95 7.95 0 0 0 0 6H2.461a9.98 9.98 0 0 1 0-6zm.893 8h2.412c.416.517 2.632 3.899 3.001 4.452a10.034 10.034 0 0 1-5.413-4.452zm8.165 4.974l-1.487-2.229c.631.16 1.288.254 1.968.254s1.337-.094 1.968-.254l-1.487 2.229c-.16.009-.318.024-.481.024s-.321-.015-.481-.024zm3.714-.522c.369-.554 2.586-3.936 3.001-4.452h2.412a10.034 10.034 0 0 1-5.413 4.452zm6.306-6.452h-2.127a7.945 7.945 0 0 0 0-6h2.128a9.986 9.986 0 0 1-.001 6z"/><path d="M13 17.002v-1.05c1.14-.233 2-1.242 2-2.45 0-.565-.195-1.081-.513-1.5.317-.419.513-.935.513-1.5 0-1.207-.86-2.216-2-2.449V7.002h-2v1H9v8h2v1h2zm-.5-3H11v-1h1.5a.5.5 0 0 1 0 1zm.5-3.5a.5.5 0 0 1-.5.5H11v-1h1.5a.5.5 0 0 1 .5.5z"/></g></svg>