<svg xmlns="http://www.w3.org/2000/svg" width="24" height="24"><path fill="none" d="M0 0h24v24H0z"/><g fill="#757575"><path d="M17 8.051V7h-2v1h-2v8h2v1h2v-1.05c1.14-.233 2-1.242 2-2.45 0-.564-.195-1.08-.513-1.5.318-.419.513-.934.513-1.5 0-1.207-.86-2.217-2-2.449zm0 2.449a.5.5 0 0 1-.5.5H15v-1h1.5a.5.5 0 0 1 .5.5zm-.5 3.5H15v-1h1.5a.5.5 0 0 1 0 1z"/><path d="M16 4a8.001 8.001 0 0 0-7.271 4.675A5.912 5.912 0 0 0 6 8c-3.309 0-6 2.692-6 6 0 3.309 2.691 6 6 6h10c4.411 0 8-3.589 8-8 0-4.41-3.589-8-8-8zm0 14H6c-2.206 0-4-1.794-4-4s1.794-4 4-4c1.194 0 2.066.531 2.586.978a1.002 1.002 0 0 0 1.618-.505A6 6 0 0 1 16 6c3.309 0 6 2.692 6 6 0 3.31-2.691 6-6 6z"/></g></svg>