<svg xmlns="http://www.w3.org/2000/svg" width="24" height="24"><path fill="none" d="M0 0h24v24H0z"/><path fill="#757575" d="M21.996 8.982a.985.985 0 0 0-.068-.339c-.011-.028-.025-.053-.039-.08-.019-.038-.032-.08-.057-.117l-4-6A1 1 0 0 0 17 2H7c-.334 0-.646.167-.832.445l-4 6c-.025.037-.038.079-.057.118-.013.027-.028.052-.039.08a.985.985 0 0 0-.068.339C2.003 8.988 2 8.993 2 9v12a1 1 0 0 0 1 1h18a1 1 0 0 0 1-1V9c0-.007-.003-.012-.004-.018zM19.131 8H13V4h3.465l2.666 4zM7.535 4H11v4H4.869l2.666-4zM20 20H4V10h16v10z"/></svg>