<svg xmlns="http://www.w3.org/2000/svg" width="24" height="24"><path fill="none" d="M0 0h24v24H0z"/><g fill="#757575"><path d="M22 0H8C6.897 0 6 .897 6 2v9h2V2h3v6a1.002 1.002 0 0 0 1.707.707L15 6.415l2.293 2.293A1 1 0 0 0 19 8V2h3l-.003 12H15v2h7c1.103 0 2-.897 2-2V2c0-1.103-.897-2-2-2zm-5 5.586l-1.293-1.292a.994.994 0 0 0-1.414-.001L13 5.586V2h4v3.586z"/><path d="M20 17h-7.586l.293-.292c.304-.305.38-.77.188-1.155l-1-2a.999.999 0 0 0-1.211-.501l-4.757 1.585A.998.998 0 0 0 5 14H1a1 1 0 0 0-1 1v8a1 1 0 0 0 1 1h4a1 1 0 0 0 1-1h11c.315 0 .611-.148.8-.399l3-4A1 1 0 0 0 20 17zM2 22v-6h2v6H2zm14.5-1H6v-4.279l4.494-1.498.29.58-1.49 1.491a.99.99 0 0 0-.285.706H9v1h9l-1.5 2z"/></g></svg>