<svg xmlns="http://www.w3.org/2000/svg" width="24" height="24.001"><path fill="none" d="M0 0h24v24.001H0z"/><g fill="#757575"><path d="M22.001 14.002h-4v-5c0-2.967-2.167-5.431-5-5.91v-2.09h-2v2.09c-2.833.479-5 2.943-5 5.91v5h-4a1 1 0 0 0-1 1v6a1 1 0 0 0 1 1h20a1 1 0 0 0 1-1v-6a1 1 0 0 0-1-1zm-14-5c0-2.205 1.794-4 4-4s4 1.795 4 4v1h-8v-1zm13 11h-18v-4h4a1 1 0 0 0 1-1v-3h8v3a1 1 0 0 0 1 1h4v4z"/><path d="M9.001 14.002h2v2h-2zm4 0h2v2h-2zm-8 3h2v2h-2zm4 0h2v2h-2zm4 0h2v2h-2zm4 0h2v2h-2z"/></g></svg>