<svg xmlns="http://www.w3.org/2000/svg" width="24" height="24.001"><path fill="none" d="M0 0h24v24.001H0z"/><g fill="#757575"><path d="M8.999 7h2v2h-2zm4 0h2v2h-2zm-4 4h2v2h-2zm4 0h2v2h-2zm-8 4h2v2h-2zm4 0h2v2h-2zm4 0h2v2h-2zm4 0h2v2h-2z"/><path d="M20.999 12h-3V4a1 1 0 0 0-1-1h-2V2a1 1 0 0 0-1-1h-4a1 1 0 0 0-1 1v1h-2a1 1 0 0 0-1 1v8h-3a1 1 0 0 0-1 1v8a1 1 0 0 0 1 1h18a1 1 0 0 0 1-1v-8a1 1 0 0 0-1-1zm-1 8h-6v-2h-4v2h-6v-6h3a1 1 0 0 0 1-1V5h2a1 1 0 0 0 1-1V3h2v1a1 1 0 0 0 1 1h2v8a1 1 0 0 0 1 1h3v6z"/></g></svg>