<svg xmlns="http://www.w3.org/2000/svg" width="24" height="24"><path fill="none" d="M0 0h24v24H0z"/><path d="M16.899 13.002H20v-2h-3.101A5.002 5.002 0 0 0 13 7.103V4.002h-2v3.101a5.002 5.002 0 0 0-3.899 3.899H4v2h3.101A5.006 5.006 0 0 0 11 16.901v3.101h2v-3.101a5.006 5.006 0 0 0 3.899-3.899zm-4.899 2a3 3 0 1 1 0-6 3 3 0 0 1 0 6zm8 5h-4v2h4c1.103 0 2-.898 2-2v-4h-2v4zm0-18h-4v2h4v4h2v-4c0-1.103-.897-2-2-2zm-16 2h4v-2H4c-1.103 0-2 .897-2 2v4h2v-4zm0 12H2v4c0 1.102.897 2 2 2h4v-2H4v-4z" fill="#757575"/></svg>