<svg xmlns="http://www.w3.org/2000/svg" width="24" height="24"><path fill="none" d="M0 0h24v24H0z"/><g fill="#757575"><path d="M12 8.002c-2.757 0-5 2.243-5 5s2.243 5 5 5 5-2.243 5-5-2.243-5-5-5zm0 8c-1.654 0-3-1.346-3-3s1.346-3 3-3 3 1.346 3 3-1.346 3-3 3z"/><path d="M20 6.002h-3.465l-1.406-2.108a1.994 1.994 0 0 0-1.664-.892h-2.93c-.67 0-1.292.333-1.664.892L7.465 6.002H4c-1.103 0-2 .897-2 2v11c0 1.103.897 2 2 2h16c1.103 0 2-.897 2-2v-11c0-1.103-.897-2-2-2zm-16 13v-11h4.535l2-3h2.93l2 3H20l.001 11H4z"/></g></svg>