<svg xmlns="http://www.w3.org/2000/svg" width="24" height="24"><path fill="none" d="M0 0h24v24H0z"/><path fill="#757575" d="M13 7.002c-3.521 0-6.442 2.612-6.929 6H6c-2.206 0-4 1.794-4 4v2a1 1 0 0 0 1 1h2.185c.414 1.162 1.514 2 2.815 2s2.401-.838 2.816-2h3.369c.414 1.162 1.514 2 2.815 2s2.401-.838 2.816-2H21a1 1 0 0 0 1-1v-3c0-4.962-4.037-9-9-9zm6.315 6H14v-3.92a7.007 7.007 0 0 1 5.315 3.92zM12 9.103v3.899H8.102A5.013 5.013 0 0 1 12 9.103zM8 20.002c-.551 0-1-.449-1-1 0-.551.449-1 1-1s1 .449 1 1c0 .551-.448 1-1 1zm9 0c-.551 0-1-.449-1-1 0-.551.449-1 1-1s1 .449 1 1c0 .551-.448 1-1 1zm3-2h-.184c-.415-1.161-1.514-2-2.816-2s-2.401.839-2.815 2h-3.369c-.415-1.161-1.514-2-2.816-2s-2.401.839-2.815 2H4v-1c0-1.103.897-2 2-2h13.92c.047.328.08.66.08 1v2z"/></svg>