<svg xmlns="http://www.w3.org/2000/svg" width="24" height="24.001"><path fill="none" d="M0 0h24v24.001H0z"/><path fill="#757575" d="M23 14.002h-6.18l-.603-3.012A2.003 2.003 0 0 0 18 9.002v-6h-2v2h-3v-2h-2v2H8v-2H6v6c0 1.029.782 1.88 1.783 1.988l-.602 3.012H1v2h1v5a1 1 0 0 0 1 1h7a1 1 0 0 0 1-1v-.999a1.001 1.001 0 0 1 2.001.002L13 21a1 1 0 0 0 1 1.001h7a1 1 0 0 0 1-1v-5h1v-1.999zM9.774 9.368A1 1 0 0 0 9 9.002H8v-2h8v2h-1a.998.998 0 0 0-.98 1.196l.761 3.804H9.22l.761-3.804a.998.998 0 0 0-.207-.83zM20 20.002h-4.999c0-1.654-1.346-3-3-3s-3 1.346-3.001 3H4v-4h16v4z"/></svg>