<svg xmlns="http://www.w3.org/2000/svg" width="24" height="24.001"><path fill="none" d="M0 0h24v24.001H0z"/><path fill="#757575" d="M21.923 3.618A1.001 1.001 0 0 0 20.999 3h-13c-2.757 0-5 2.243-5 5s2.243 5 5 5h2v2.246l-5 1.429V14h-2v7h2v-2.246l6.275-1.792c.429-.123.725-.516.725-.962v-3h4a1 1 0 0 0 1-1h2a1 1 0 0 0 1-1V8a.994.994 0 0 0-.655-.931l2.362-2.362a.998.998 0 0 0 .217-1.089zm-6.631 4.675a.997.997 0 0 0-.293.707v2h-7c-1.654 0-3-1.346-3-3 0-1.302.839-2.401 2-2.815V8h2V5h1v2h2V5h6.586l-3.293 3.293zM17.999 9v1h-1v-.585L17.414 9h.585z"/></svg>