<svg xmlns="http://www.w3.org/2000/svg" width="24" height="24.001"><path fill="none" d="M0 0h24v24.001H0z"/><path fill="#757575" d="M17.999 4c-.617 0-1.21.139-1.747.402A5 5 0 0 0 11.999 2a5 5 0 0 0-4.253 2.402A4.004 4.004 0 0 0 1.999 8a4.01 4.01 0 0 0 3 3.874V21a1 1 0 0 0 1 1h12a1 1 0 0 0 1-1v-9.126a4.01 4.01 0 0 0 3-3.874c0-2.206-1.794-4-4-4zm-11 16v-1h10v1h-10zm11-10a1 1 0 0 0-1 1v6h-1v-3h-2v3h-1v-4h-2v4h-1v-3h-2v3h-1v-6a1 1 0 0 0-1-1c-1.103 0-2-.897-2-2 0-1.104.897-2 2-2 .546 0 1.058.22 1.44.621a1.002 1.002 0 0 0 1.687-.422A3 3 0 0 1 11.999 4c1.331 0 2.512.904 2.874 2.199a1.002 1.002 0 0 0 1.687.422A1.97 1.97 0 0 1 17.999 6c1.103 0 2 .896 2 2 0 1.103-.897 2-2 2z"/></svg>