<svg xmlns="http://www.w3.org/2000/svg" width="24" height="24"><path fill="none" d="M0 0h24v24H0z"/><g fill="#757575"><path d="M9 10h5c2.757 0 5-2.243 5-5s-2.243-5-5-5a5.007 5.007 0 0 0-4.073 2.114A3.814 3.814 0 0 0 9 2C6.794 2 5 3.794 5 6s1.794 4 4 4zm0-6c.305 0 .611.078.909.232a.998.998 0 0 0 1.369-.474A3.003 3.003 0 0 1 14 2c1.654 0 3 1.346 3 3s-1.346 3-3 3H9c-1.103 0-2-.897-2-2s.897-2 2-2zm10 8H5c-1.103 0-2 .897-2 2v8c0 1.103.897 2 2 2h14c1.103 0 2-.897 2-2v-8c0-1.103-.897-2-2-2zm0 2l-.001 3H5v-3h14zM5 22v-3h13.998l-.001 3H5z"/><circle cx="13.5" cy="20.5" r="1"/><circle cx="16.5" cy="20.5" r="1"/><circle cx="13.5" cy="15.5" r="1"/><circle cx="16.5" cy="15.5" r="1"/></g></svg>