<svg xmlns="http://www.w3.org/2000/svg" width="24.001" height="24.001"><path fill="none" d="M0 0h24.001v24.001H0z"/><path fill="#757575" d="M22.001 13c0-4.364-2.199-6.613-2.293-6.707A.997.997 0 0 0 19.001 6h-2.586l2.293-2.293-1.414-1.414L13.587 6H4.001v2h14.534c.475.637 1.466 2.289 1.466 5 0 1.036-.71 1.996-1.518 2.742.146-2.487-.443-5.117-1.775-6.449A.997.997 0 0 0 16.001 9h-13a1.002 1.002 0 0 0-.707 1.707l1.432 1.433c-1.047 1.883-1.897 5.297.475 8.461a.998.998 0 0 0 .8.399h11c.265 0 .52-.105.707-.293.521-.521.921-1.246 1.216-2.076 1.171-.695 4.077-2.712 4.077-5.631zm-6.46-2c.5.696.801 1.804.909 3H5.075a6.33 6.33 0 0 1 .726-1.399 1 1 0 0 0-.093-1.308L5.415 11h10.126zm0 8H5.524a5.246 5.246 0 0 1-.851-3H16.45c-.108 1.196-.409 2.304-.909 3z"/></svg>