<svg xmlns="http://www.w3.org/2000/svg" width="24" height="24"><path fill="none" d="M0 0h24v24H0z"/><path fill="#757575" d="M19 21H5c-1.103 0-2-.897-2-2V5c0-1.102.897-2 2-2h14c1.103 0 2 .898 2 2v14c0 1.103-.897 2-2 2zM5 5v14h14.001L19 5H5z"/><path fill="#757575" d="M18 13v-2h-2.142a3.915 3.915 0 0 0-.425-1.019l1.517-1.517-1.414-1.414-1.517 1.517A3.915 3.915 0 0 0 13 8.142V6h-2v2.142a3.915 3.915 0 0 0-1.019.425L8.464 7.05 7.05 8.464l1.517 1.517A3.915 3.915 0 0 0 8.142 11H6v2h2.142c.094.363.238.704.425 1.019L7.05 15.536l1.414 1.414 1.517-1.517c.315.187.656.331 1.019.425V18h2v-2.142a3.915 3.915 0 0 0 1.019-.425l1.517 1.517 1.414-1.414-1.517-1.517A3.9 3.9 0 0 0 15.858 13H18zm-6 1c-1.103 0-2-.897-2-2 0-1.102.897-2 2-2s2 .898 2 2c0 1.103-.897 2-2 2z"/></svg>