<svg xmlns="http://www.w3.org/2000/svg" width="24" height="24"><path fill="none" d="M0 0h24v24H0z"/><g fill="#757575"><path d="M4.086 5C4.562 4.595 6.215 4 8 4s3.438.594 3.914 1H14c0-2.244-4.121-3-6-3s-6 .756-6 3v12c0 2.245 4.121 3 6 3 .287 0 .631-.02 1-.058v-2.008A8.369 8.369 0 0 1 8 18c-1.916 0-3.682-.685-4-1.086v-.693c1.32.556 2.985.779 4 .779.288 0 .631-.02 1-.058v-2.008A8.369 8.369 0 0 1 8 15c-1.937 0-3.709-.698-4-1.098v-.682c1.32.557 2.985.78 4 .78.288 0 .631-.02 1-.058v-2.008A8.369 8.369 0 0 1 8 12c-1.937 0-3.709-.698-4-1.098v-.682c1.32.557 2.985.78 4 .78.288 0 .631-.02 1-.058V8.935A8.584 8.584 0 0 1 8 9c-1.937 0-3.709-.697-4-1.097v-.682C5.32 7.777 6.985 8 8 8c.288 0 .631-.02 1-.058V5.936A8.587 8.587 0 0 1 8 6c-1.784 0-3.438-.593-3.914-1z"/><path d="M16 7c-1.879 0-6 .756-6 3v9c0 2.245 4.121 3 6 3s6-.755 6-3v-9c0-2.244-4.121-3-6-3zm4 5.903c-.291.4-2.063 1.097-4 1.097s-3.709-.698-4-1.098v-.682c1.32.557 2.985.78 4 .78s2.68-.223 4-.779v.682zm0 3c-.291.4-2.063 1.097-4 1.097s-3.709-.698-4-1.098v-.682c1.32.557 2.985.78 4 .78s2.68-.223 4-.779v.682zM16 9c1.785 0 3.438.594 3.914 1-.476.406-2.13 1-3.914 1s-3.438-.594-3.914-1c.476-.405 2.129-1 3.914-1zm0 11c-1.916 0-3.682-.685-4-1.086v-.693c1.32.556 2.985.779 4 .779s2.68-.223 4-.779v.693c-.318.401-2.084 1.086-4 1.086z"/></g></svg>