<svg xmlns="http://www.w3.org/2000/svg" width="24" height="24"><path fill="none" d="M0 0h24v24H0z"/><g fill="#757575"><path d="M12 10C6.486 10 2 14.486 2 20a1 1 0 0 0 1 1h18a1 1 0 0 0 1-1c0-5.514-4.486-10-10-10zm-7.938 9c.494-3.94 3.866-7 7.938-7s7.444 3.059 7.938 7H4.062z"/><path d="M12 9c3.109 0 6.091 1.337 8.182 3.667l1.489-1.335a13.042 13.042 0 0 0-5.276-3.544C16.77 7.288 17 6.673 17 6c0-1.654-1.346-3-3-3-.771 0-1.468.3-2 .78A2.98 2.98 0 0 0 10 3C8.346 3 7 4.347 7 6c0 .672.23 1.288.605 1.789-2 .724-3.823 1.924-5.276 3.544l1.489 1.335A11.017 11.017 0 0 1 12 9zm2-4a1.001 1.001 0 1 1-1 1c0-.551.449-1 1-1zm-4 0a1.001 1.001 0 1 1-1 1c0-.551.449-1 1-1z"/></g></svg>