<svg xmlns="http://www.w3.org/2000/svg" width="24" height="24.001"><path fill="none" d="M0 0h24v24.001H0z"/><path fill="#757575" d="M20.955 8.547c-.233-2.542-2.353-4.545-4.954-4.545h-8c-2.602 0-4.721 2.004-4.954 4.545-1.714.226-3.046 1.68-3.046 3.455v5c0 1.102.897 2 2 2v1h2v-1h16v1h2v-1c1.103 0 2-.898 2-2v-5c0-1.774-1.332-3.229-3.046-3.455zm-1.968.313a3.495 3.495 0 0 0-1.986 3.142h-4v-6h3c1.606 0 2.91 1.27 2.986 2.858zM8.001 6.002h3v6h-4A3.494 3.494 0 0 0 5.015 8.86a2.996 2.996 0 0 1 2.986-2.858zm14 11h-20v-5c0-.827.673-1.5 1.5-1.5s1.5.673 1.5 1.5v1a1 1 0 0 0 1 1h12a1 1 0 0 0 1-1v-1c0-.827.673-1.5 1.5-1.5s1.5.673 1.5 1.5v5z"/></svg>