<svg xmlns="http://www.w3.org/2000/svg" width="24" height="24"><path fill="none" d="M0 0h24v24H0z"/><g fill="#757575"><path d="M8.938 9.435l2.013-.667a4.347 4.347 0 0 0 3.685 2.073c.518 0 1.028-.093 1.516-.274 2.338-.874 5.082-5.09 6.321-7.022-1-.252-5.028-1.326-7.715-1.326-.689 0-1.225.075-1.638.229-2.022.755-3.133 2.87-2.715 4.923l-1.939.64.472 1.424zm4.881-5.114c.083-.031.34-.103.938-.103 1.322 0 3.194.338 4.468.606-1.162 1.61-2.757 3.489-3.774 3.869-.88.328-1.871.055-2.5-.587l3.451-1.143-.472-1.424-3.609 1.196a2.333 2.333 0 0 1 1.498-2.414z"/><path d="M21 13H7v-3a.997.997 0 0 0-.293-.707l-3-3A1 1 0 0 0 2 7v15a1 1 0 0 0 1 1h18a1 1 0 0 0 1-1v-8a1 1 0 0 0-1-1zm-1 8H4V9.414l1 1V14a1 1 0 0 0 1 1h14v6z"/><path d="M6 17h3v2H6zm5 0h3v2h-3zm5 0h3v2h-3z"/></g></svg>