<svg xmlns="http://www.w3.org/2000/svg" width="24" height="24"><path fill="none" d="M0 0h24v24H0z"/><path d="M11 3h2v2h-2zm5.242 1.344l1.414 1.414-1.414 1.414-1.414-1.414zM17 9h2v2h-2zM7.757 4.343l1.414 1.415-1.414 1.414-1.414-1.414zM5 9h2v2H5zm18.894 12.553l-4-8A1 1 0 0 0 19 13H5c-.379 0-.725.214-.895.553l-4 8A1 1 0 0 0 1 23h22c.347 0 .668-.179.851-.473.181-.296.198-.664.043-.974zM13 15h1.307l2.25 6H13v-6zm-2 6H7.443l2.25-6H11v6zm-5.382-6h1.939l-2.25 6H2.618l3-6zm13.075 6l-2.25-6h1.938l3 6h-2.688zM8.24 11.334a1 1 0 0 0 .943.666h5.633a1 1 0 0 0 .943-.666c.162-.458.241-.894.241-1.334 0-2.206-1.794-4-4-4s-4 1.794-4 4c0 .44.078.876.24 1.334zM12 8c1.103 0 2 .897 2 2h-4c0-1.103.896-2 2-2z" fill="#757575"/></svg>