<svg xmlns="http://www.w3.org/2000/svg" width="24" height="24.002"><path fill="none" d="M0 0h24v24.002H0z"/><path d="M5.939 8.434l2.006-.672a4.35 4.35 0 0 0 3.689 2.079c.518 0 1.028-.093 1.516-.274 2.338-.874 5.082-5.09 6.321-7.022-1-.252-5.028-1.326-7.715-1.326-.689 0-1.225.075-1.638.229-2.02.754-3.131 2.864-2.717 4.915l-1.938.649.476 1.422zm4.879-5.113c.083-.031.34-.103.938-.103 1.322 0 3.194.338 4.468.606-1.162 1.61-2.757 3.489-3.774 3.869-.885.33-1.884.053-2.513-.598l3.383-1.134-.477-1.422L9.32 5.72a2.332 2.332 0 0 1 1.498-2.399zm9.038 13.165l-3-5a.997.997 0 0 0-.857-.486h-8a.997.997 0 0 0-.857.486l-3 5a.994.994 0 0 0-.143.514v3a1 1 0 0 0 1 1h1v.5c0 .827.673 1.5 1.5 1.5s1.5-.673 1.5-1.5V21h6v.5c0 .827.673 1.5 1.5 1.5s1.5-.673 1.5-1.5V21h1a1 1 0 0 0 1-1v-3a.994.994 0 0 0-.143-.514zM8.565 13h6.867l1.8 3H6.765l1.8-3zm-2.566 6v-1h2v1h-2zm4-1h4v1h-4v-1zm6 1v-1h2v1h-2z" fill="#757575"/></svg>