<svg xmlns="http://www.w3.org/2000/svg" width="24" height="24"><path fill="none" d="M0 0h24v24H0z"/><path fill="#757575" d="M20 22H4c-1.103 0-2-.897-2-2v-9a1 1 0 0 1 1.64-.768L9.362 15h5.276l5.722-4.769A1.002 1.002 0 0 1 22 11v9c0 1.103-.897 2-2 2zM4 13.135V20h16.001L20 13.135l-4.36 3.634c-.18.149-.406.231-.64.231H9c-.234 0-.46-.082-.64-.231L4 13.135zM20 9h-2V4H6v5H4V2h16z"/><path fill="#757575" d="M12 13s4-2.909 4-5.064c0-2.047-3.111-2.936-4-.248C11.111 5 8 5.889 8 7.936 8 10.091 12 13 12 13z"/></svg>