<svg xmlns="http://www.w3.org/2000/svg" width="24" height="24"><path fill="none" d="M0 0h24v24H0z"/><path fill="#757575" d="M12 2.002c-5.514 0-10 4.485-10 10 0 5.514 4.486 9.999 10 9.999s10-4.485 10-9.999c0-5.515-4.486-10-10-10zm6.917 6h-7.494l2.212-3.831a8.018 8.018 0 0 1 5.282 3.831zm-4.03 4l-1.155 2h-3.464l-1.154-2 1.155-2h3.464l1.154 2zm-3.481-7.97l-3.447 5.97-1.917-3.32a7.964 7.964 0 0 1 5.364-2.65zM4.802 8.534l3.156 5.468H4.263a8.005 8.005 0 0 1-.263-2 7.93 7.93 0 0 1 .802-3.468zm.281 7.468h7.495l-2.212 3.831a8.022 8.022 0 0 1-5.283-3.831zm7.513 3.969l3.446-5.969 1.917 3.32a7.977 7.977 0 0 1-5.363 2.649zm6.602-4.502l-3.156-5.467h3.695c.166.64.263 1.308.263 2a7.928 7.928 0 0 1-.802 3.467z"/></svg>