<svg xmlns="http://www.w3.org/2000/svg" width="24" height="24"><path fill="none" d="M0 0h24v24H0z"/><path d="M12 2c-4.962 0-9 4.038-9 9v1h4.424c.774 1.763 2.531 3 4.576 3s3.802-1.237 4.576-3H21v-1c0-4.962-4.038-9-9-9zm3 8c0 1.654-1.346 3-3 3s-3-1.346-3-3v-.266c1.362-.514 2.359-1.379 3-2.085.641.706 1.638 1.571 3 2.085V10zm2 0V9a1 1 0 0 0-.757-.97c-2.199-.55-3.365-2.51-3.375-2.526-.356-.622-1.38-.622-1.736 0-.011.02-1.184 1.979-3.375 2.526A1 1 0 0 0 7 9v1H5.071C5.558 6.612 8.479 4 12 4s6.442 2.612 6.929 6H17zm-1.465 6.551l-.509-.172L12 18.733l-3.026-2.354-.509.172C5.669 17.492 4 19.529 4 22v2h16v-2c0-2.471-1.669-4.508-4.465-5.449zM6 22c0-1.458.944-2.665 2.612-3.369L12 21.268l3.388-2.636C17.056 19.335 18 20.542 18 22H6z" fill="#757575"/></svg>