<svg xmlns="http://www.w3.org/2000/svg" width="24" height="24"><path fill="none" d="M0 0h24v24H0z"/><path fill="#757575" d="M21 6.999h-2v-.185a2.995 2.995 0 0 0 2-2.816c0-1.654-1.346-3-3-3s-3 1.346-3 3c0 1.302.838 2.402 2 2.816v.184H7v-.184a2.995 2.995 0 0 0 2-2.816c0-1.654-1.346-3-3-3s-3 1.346-3 3C3 5.3 3.838 6.4 5 6.814v.184H3c-.552 0-1 .449-1 1v6a1 1 0 0 0 1 1h1v7h2v-7h12v7h2v-7h1a1 1 0 0 0 1-1v-6a1 1 0 0 0-1-.999zm-5.585 2h3.172l-4 4h-3.172l4-4zm-6.829 4H5.415l4-4h3.172l-4.001 4zm9.414-10a1.001 1.001 0 1 1-1 1c0-.552.449-1 1-1zm-12 0a1.001 1.001 0 1 1-1 1c0-.552.449-1 1-1zm.586 6L4 11.584V8.999h2.586zm10.829 4L20 10.413v2.586h-2.585z"/></svg>