<svg xmlns="http://www.w3.org/2000/svg" width="24" height="24"><path fill="none" d="M0 0h24v24H0z"/><path d="M20 0h-7c-1.103 0-2 .898-2 2v9c0 1.103.897 2 2 2h7c1.103 0 2-.897 2-2V2c0-1.102-.897-2-2-2zm-7 11V2h4v3h3l.001 6H13zm7 6h-7.586l.293-.293a1 1 0 0 0 .188-1.154l-1-2a1 1 0 0 0-1.211-.501l-4.757 1.585A.998.998 0 0 0 5 14H1a1 1 0 0 0-1 1v8a1 1 0 0 0 1 1h4a1 1 0 0 0 1-1h11a1 1 0 0 0 .8-.4l3-4A.999.999 0 0 0 20 17zM2 22v-6h2v6H2zm14.5-1H6v-4.279l4.494-1.497.29.579-1.49 1.49A1 1 0 0 0 10 19h8l-1.5 2z" fill="#757575"/></svg>