<svg xmlns="http://www.w3.org/2000/svg" width="24" height="24"><path fill="none" d="M0 0h24v24H0z"/><path d="M9 0H3C1.897 0 1 .898 1 2v7c0 1.103.897 2 2 2h6c1.103 0 2-.897 2-2V2c0-1.102-.897-2-2-2zM3 9V2h4v2h2l.001 5H3zm18-9h-6c-1.103 0-2 .898-2 2v7c0 1.103.897 2 2 2h6c1.103 0 2-.897 2-2V2c0-1.102-.897-2-2-2zm-6 9V2h4v2h2l.001 5H15zm-6 4H3c-1.103 0-2 .898-2 2v7c0 1.103.897 2 2 2h6c1.103 0 2-.897 2-2v-7c0-1.102-.897-2-2-2zm-6 9v-7h4v2h2l.001 5H3zm18-9h-6c-1.103 0-2 .898-2 2v7c0 1.103.897 2 2 2h6c1.103 0 2-.897 2-2v-7c0-1.102-.897-2-2-2zm-6 9v-7h4v2h2l.001 5H15z" fill="#757575"/></svg>