<svg xmlns="http://www.w3.org/2000/svg" width="24.001" height="24"><path fill="none" d="M0 0h24.001v24H0z"/><path fill="#757575" d="M19.634 2.227a.999.999 0 0 0-.83-.207l-5 1A.998.998 0 0 0 13 4h-1.837L5.316 2.051l-.632 1.898 2.88.96A7 7 0 0 0 4 11v7h2v-7a5.007 5.007 0 0 1 4-4.898v1.041C8.28 7.59 7 9.142 7 11v10a1 1 0 0 0 1 1h6a1 1 0 0 0 1-1V11c0-1.858-1.28-3.41-3-3.858V6h1c0 .477.336.887.804.98l5 1A1 1 0 0 0 20 7V3c0-.3-.134-.583-.366-.773zM13 17h-1v-4h1v4zm0-6h-2a1 1 0 0 0-1 1v6a1 1 0 0 0 1 1h2v1H9v-9c0-1.103.897-2 2-2s2 .897 2 2zm5-5.22l-3-.6v-.36l3-.601V5.78z"/></svg>