<svg xmlns="http://www.w3.org/2000/svg" width="24.001" height="24.001"><path fill="none" d="M0 0h24.001v24.001H0z"/><g fill="#757575"><path d="M19.001 11h-8V3c0-.551-.448-1-1-1h-4c-1.103 0-2 .898-2 2v7c0 1.102.897 2 2 2h3v7c0 1.102.897 2 2 2h7c1.103 0 2-.898 2-2v-8c0-.551-.448-1-1-1zm-1 2v1h-7v-1h7zm-12-9h3v7h-3V4zm5 16v-4h7v4h-7z"/><path d="M16.001 10c1.654 0 3-1.346 3-3 0-1.277-1.522-3.62-2.177-4.568-.373-.541-1.272-.541-1.646 0-.655.948-2.177 3.292-2.177 4.568 0 1.655 1.346 3 3 3zm0-5.146c.576.971.992 1.842 1 2.146a1 1 0 0 1-2 .001c.008-.305.424-1.176 1-2.147z"/></g></svg>