<svg xmlns="http://www.w3.org/2000/svg" width="24" height="24"><path fill="none" d="M0 0h24v24H0z"/><path d="M16.229 12h.706l-.313.392 1.423 1.423 1.752-2.19A1.002 1.002 0 0 0 19.015 10h-4.786l2 2zM4.707 3.308L3.293 4.722l3.925 3.924-2.983 3.729A1 1 0 0 0 5.015 14h5v7a.998.998 0 0 0 1 1 1 1 0 0 0 .781-.375l3.733-4.667 3.764 3.764 1.414-1.414-16-16zM7.096 12l1.545-1.931L10.571 12H7.096zm4.919 6.15v-4.707l2.091 2.092-2.091 2.615zm-.86-11.224l.86-1.075v1.936l2 2V3a.998.998 0 0 0-.669-.943.998.998 0 0 0-1.112.318L9.732 5.503l1.423 1.423z" fill="#757575"/></svg>