<svg xmlns="http://www.w3.org/2000/svg" width="24" height="24.001"><path fill="none" d="M0 0h24v24.001H0z"/><g fill="#757575"><path d="M21.419 12.269c.352-.506.581-1.097.581-1.769 0-1.25-.65-2.498-2.031-3.108C19.656 3.265 16.206 0 12 0S4.344 3.265 4.031 7.392C2.65 8.002 2 9.25 2 10.5c0 .67.228 1.259.579 1.765A2.97 2.97 0 0 0 2 14c0 .771.301 1.468.78 2A2.98 2.98 0 0 0 2 18c0 1.302.839 2.401 2 2.815V22c0 1.103.896 2 2 2h12c1.103 0 2-.897 2-2v-1.185A2.994 2.994 0 0 0 22 18a2.98 2.98 0 0 0-.78-2 2.98 2.98 0 0 0 .78-2c0-.632-.223-1.229-.581-1.731zM20 14c0 .551-.448 1-1 1H5a1.001 1.001 0 0 1-.889-1.454A4.393 4.393 0 0 0 6 14c.755 0 1.469-.239 2.059-.674A5.094 5.094 0 0 0 10.5 14a3.43 3.43 0 0 0 1.5-.344 3.43 3.43 0 0 0 1.5.344c.745 0 1.695-.232 2.441-.674.59.435 1.305.674 2.059.674a4.38 4.38 0 0 0 1.887-.454A.994.994 0 0 1 20 14zM12 2a6.009 6.009 0 0 1 5.916 5H6.084A6.009 6.009 0 0 1 12 2zM6 9h12c1.271 0 2 .547 2 1.5 0 .845-1.075 1.5-2 1.5-.473 0-.908-.223-1.198-.611a.998.998 0 0 0-1.604 0C15 11.656 14.14 12 13.5 12c-.402 0-.71-.168-.897-.31a.998.998 0 0 0-1.205 0c-.188.142-.496.31-.898.31-.64 0-1.499-.344-1.698-.611-.377-.506-1.227-.506-1.604 0A1.485 1.485 0 0 1 6 12c-.925 0-2-.655-2-1.5C4 9.547 4.729 9 6 9zm0 13v-1h12v1H6zm13-3H5a1.001 1.001 0 0 1 0-2h8.586l1.707 1.707a.997.997 0 0 0 1.414 0L18.414 17H19a1.001 1.001 0 0 1 0 2z"/><circle cx="9.25" cy="5.25" r=".75"/><circle cx="14.75" cy="5.25" r=".75"/><circle cx="12" cy="3.75" r=".75"/></g></svg>