<svg xmlns="http://www.w3.org/2000/svg" width="24.001" height="24"><path fill="none" d="M0 0h24.001v24H0z"/><g fill="#757575"><path d="M23.896.006L14 1.047v2.012l10.104-1.065zM7 3.795V1.784l-2.104.222.208 1.988zM5 5h2v2H5zm9 0h10v2H14zm-3-5h2v8h-2z"/><path d="M16.791 10.406A.945.945 0 0 0 16 10h-6V1H8v9H4a.945.945 0 0 0-.791.406L3.2 10.4l-3 4 1.6 1.2 1.598-2.13 1.616 9.695A1 1 0 0 0 6 24h8a1 1 0 0 0 .986-.835l1.616-9.695L18.2 15.6l1.6-1.2-3-4-.009.006zM13.153 22H6.847L5.181 12h9.639l-1.667 10z"/></g></svg>