<svg xmlns="http://www.w3.org/2000/svg" width="24" height="24.002"><path fill="none" d="M0 0h24v24.002H0z"/><path d="M21.372 15.929A1 1 0 0 0 22 15v-3c0-.551-.448-1-1-1H11c-.552 0-1 .449-1 1H3a1 1 0 0 0-.832 1.554l2 3c.153.23.395.386.667.432l5.165.862v.535l-3.447 1.724A.997.997 0 0 0 6 21v2a1 1 0 0 0 1 1h14a1 1 0 0 0 1-1v-2a1 1 0 0 0-.628-.928L17 18.324v-.646l4.372-1.749zm-15.78-.843L4.869 14H10v1.82l-4.408-.734zm10.036 4.843L20 21.677V22H8v-.38l3.447-1.725A1 1 0 0 0 12 19v-6h8v1.323l-4.372 1.749A1 1 0 0 0 15 17v2a1 1 0 0 0 .628.929zM12 9a1 1 0 0 0 1 1h5a1 1 0 0 0 1-1V1c0-.551-.448-1-1-1h-5c-.552 0-1 .449-1 1v3H2v2h10v3zm2-7h3v6h-3V2z" fill="#757575"/></svg>