<svg xmlns="http://www.w3.org/2000/svg" width="24" height="24"><path fill="none" d="M0 0h24v24H0z"/><path fill="#757575" d="M17.007 11.002l3 3v5l2 5h-5v-4l-3-3 1-1 2 1z"/><path fill="#757575" d="M14.007 23.002h-6c-1.103 0-2-.897-2-2v-10c0-1.103.897-2 2-2h6c1.103 0 2 .897 2 2v4.002h-2v-4.002h-6v10h6v-.996h2v.996c0 1.103-.897 2-2 2zM4.889 4.852l-1.53-1.289A9.988 9.988 0 0 1 11.013 0a9.987 9.987 0 0 1 7.64 3.547l-1.527 1.291A7.994 7.994 0 0 0 11.013 2a7.994 7.994 0 0 0-6.124 2.852z"/><path fill="#757575" d="M14.215 7.602A3.97 3.97 0 0 0 11.013 6c-1.27 0-2.437.583-3.2 1.602L6.213 6.4a6.03 6.03 0 0 1 4.8-2.4 5.95 5.95 0 0 1 4.802 2.402l-1.6 1.2z"/><circle fill="#757575" cx="11" cy="18.002" r="1.25"/><circle fill="#757575" cx="11" cy="14.002" r="1.25"/></svg>