<svg xmlns="http://www.w3.org/2000/svg" width="24" height="24.001"><path fill="none" d="M0 0h24v24.001H0z"/><path fill="#757575" d="M18.979 12.36C18.787 8.056 16.647 5.453 13 5.057V3.999h-2v1.059c-3.648.395-5.789 2.998-5.98 7.301-1.949.92-3.021 2.193-3.021 3.64 0 2.851 4.299 5 10 5s10-2.149 10-5c0-1.444-1.073-2.718-3.02-3.639zm-1.98.639v1.252c-.69.189-1.837.462-3.116.621l2.803-4.484c.208.748.313 1.618.313 2.611zm-10 0c0-.993.105-1.863.313-2.611l2.803 4.484a22.731 22.731 0 0 1-3.116-.621v-1.252zm8.592-4.635l-2.592 4.148V7.08c1.086.158 1.948.59 2.592 1.284zm-4.592 4.148L8.407 8.364c.644-.694 1.506-1.126 2.592-1.284v5.432zm1 6.487c-4.883 0-8-1.776-8-3 0-.434.363-.907 1-1.344v.344a1 1 0 0 0 .684.949c.129.042 3.19 1.051 6.316 1.051s6.188-1.008 6.316-1.051c.408-.137.684-.519.684-.949v-.342c.636.437 1 .909 1 1.342 0 1.224-3.117 3-8 3z"/></svg>