<svg xmlns="http://www.w3.org/2000/svg" width="24" height="24.001"><path fill="none" d="M0 0h24v24.001H0z"/><g fill="#757575"><path d="M22.001 6.001c0-2.748-5.184-4-10-4s-10 1.252-10 4c0 1.325 1.211 2.299 3 2.956v10.044c0 .266.105.52.293.707 1.536 1.536 4.122 2.304 6.707 2.304s5.171-.768 6.707-2.304a.997.997 0 0 0 .293-.707V8.957c1.789-.657 3-1.631 3-2.956zm-15 12.557v-4.652c1.439.731 3.216 1.106 5 1.106s3.561-.375 5-1.106v4.652c-2.359 1.923-7.641 1.923-10 0zm10-7.014c-2.358 1.933-7.642 1.933-10 0V9.517c1.55.324 3.296.484 5 .484s3.45-.16 5-.484v2.027zm-5-3.543c-5.25 0-8-1.486-8-2s2.75-2 8-2 8 1.486 8 2-2.751 2-8 2z"/><path d="M15.001 5.001h-6a1 1 0 0 0 0 2h6a1 1 0 1 0 0-2z"/></g></svg>