<svg xmlns="http://www.w3.org/2000/svg" width="24.001" height="24"><path fill="none" d="M0 0h24.001v24H0z"/><g fill="#757575"><path d="M20 6h-6a2 2 0 0 0-4 0c-1.103 0-2 .897-2 2v1H6a.997.997 0 0 0-.707.293l-3 3A.997.997 0 0 0 2 13v6a1 1 0 0 0 1 1h2.185c.414 1.162 1.513 2 2.815 2s2.401-.838 2.816-2h3.369c.414 1.162 1.514 2 2.815 2s2.401-.838 2.816-2H21a1 1 0 0 0 1-1V8c0-1.103-.897-2-2-2zm0 2v10h-.184c-.415-1.162-1.514-2-2.816-2s-2.401.838-2.815 2h-3.369A2.99 2.99 0 0 0 10 16.78V8h10zM4 13.415L6.414 11H8v5a2.993 2.993 0 0 0-2.815 2H4v-4.585zM8 20a1.001 1.001 0 0 1 0-2 1.001 1.001 0 0 1 0 2zm9 0a1.001 1.001 0 0 1 0-2 1.001 1.001 0 0 1 0 2z"/><path d="M14 15h2v-2h2v-2h-2V9h-2v2h-2v2h2zm-9-2h2v2H5z"/></g></svg>