<svg xmlns="http://www.w3.org/2000/svg" width="24" height="24.001"><path fill="none" d="M0 0h24v24.001H0z"/><g fill="#757575"><path d="M11.994 19.71A37.444 37.444 0 0 1 8.179 16H5.557c2.564 3.22 5.608 5.619 5.828 5.789a.994.994 0 0 0 1.228 0c.196-.152 2.647-2.084 4.996-4.789h-2.714a41.201 41.201 0 0 1-2.901 2.71zM4.103 9a5.67 5.67 0 0 1-.104-1c0-2.43 1.57-4 4-4 1.289 0 2.352.938 2.787 2h2.427c.435-1.062 1.498-2 2.787-2 2.43 0 4 1.57 4 4 0 .653-.133 1.324-.35 2h2.062c.173-.668.288-1.337.288-2 0-3.533-2.467-6-6-6-1.594 0-3.071.837-4 2.08C11.07 2.837 9.593 2 7.999 2c-3.533 0-6 2.467-6 6 0 .332.038.666.083 1h2.021z"/><path d="M19.696 12l-2.489 1.659-4.125-5.156-4.083 4.083-3-3L3.585 12H.999v2h3.414l1.586-1.585 3 3 3.917-3.918 3.875 4.844L20.302 14h2.697v-2z"/></g></svg>