<svg xmlns="http://www.w3.org/2000/svg" width="24" height="24.001"><path fill="none" d="M0 0h24v24.001H0z"/><g fill="#757575"><path d="M19.999 3h-2a1 1 0 0 0-1-1h-2.171c-.413-1.164-1.525-2-2.829-2S9.583.836 9.17 2H6.999a1 1 0 0 0-1 1h-2c-1.103 0-2 .897-2 2v17c0 1.103.897 2 2 2h16c1.103 0 2-.897 2-2V5c0-1.103-.897-2-2-2zm-13 5h10v11h-10V8zm1-4h2c.552 0 1-.448 1-1s.449-1 1-1 1 .448 1 1 .448 1 1 1h2v2h-8V4zm12 18h-16V5h2v1a1 1 0 0 0-1 1v13a1 1 0 0 0 1 1h12a1 1 0 0 0 1-1V7a1 1 0 0 0-1-1V5h2v17z"/><path d="M12.999 11h-2v2h-2v2h2v2h2v-2h2v-2h-2z"/></g></svg>