<svg xmlns="http://www.w3.org/2000/svg" width="24" height="24.002"><path fill="none" d="M0 0h24v24.002H0z"/><g fill="#757575"><path d="M3.999 4h12v2h-12zm17 3v2h-10V7h-2v2h-2.5a4.505 4.505 0 0 0-4.5 4.5c0 1.953 1.258 3.603 3 4.224V20h-1c-.551 0-1-.449-1-1v-1h-2v1c0 1.654 1.346 3 3 3h12v-2h-3v-2.762a4.504 4.504 0 0 0 1.774-2.401l7.468-1.866c.445-.112.757-.512.757-.971V7h-1.999zm-10 13h-4v-2c4.199 0 3.305.028 4-.05V20zm-.5-4h-4c-1.378 0-2.5-1.122-2.5-2.5S5.12 11 6.499 11h4c1.378 0 2.5 1.122 2.5 2.5s-1.122 2.5-2.5 2.5zm10.5-4.781l-6.077 1.519A4.469 4.469 0 0 0 14.237 11h6.762v.219z"/><circle cx="6.499" cy="13.5" r="1.5"/></g></svg>