<svg xmlns="http://www.w3.org/2000/svg" width="24" height="24"><path fill="none" d="M0 0h24v24H0z"/><path fill="#757575" d="M19.998 9.498c0-4.136-3.589-7.5-8-7.5s-8 3.364-8 7.5c0 2.578 1.396 4.855 3.515 6.207l2.147 4.293h-.662l1 3h4l1-3h-.661l2.146-4.293c2.12-1.351 3.515-3.629 3.515-6.207zm-2 0c0 1.919-1.079 3.609-2.709 4.594.298-1.372.459-2.94.459-4.594 0-1.654-.161-3.223-.458-4.594 1.629.985 2.708 2.675 2.708 4.594zm-4.44-5.305c.441 1.458.69 3.34.69 5.305 0 1.964-.249 3.846-.69 5.305-.498.124-1.02.195-1.56.195s-1.062-.071-1.56-.195c-.441-1.458-.69-3.339-.69-5.305 0-1.971.25-3.848.691-5.305a6.439 6.439 0 0 1 1.559-.195 6.44 6.44 0 0 1 1.56.195zm-7.56 5.305c0-1.92 1.081-3.611 2.711-4.595-.297 1.378-.461 2.962-.461 4.595 0 1.654.161 3.223.459 4.594-1.63-.985-2.709-2.675-2.709-4.594zm6.662 10.5h-1.323l-1.663-3.325a8.461 8.461 0 0 0 4.648 0l-1.662 3.325z"/></svg>