<svg xmlns="http://www.w3.org/2000/svg" width="24" height="24.002"><path fill="none" d="M0 0h24v24.002H0z"/><g fill="#757575"><circle cx="13" cy="6.002" r="1"/><circle cx="11" cy="8.502" r="1"/><circle cx="15" cy="8.502" r="1"/><circle cx="13" cy="11.002" r="1"/><circle cx="9" cy="11.002" r="1"/><circle cx="17" cy="11.002" r="1"/><path d="M24 14.002h-2v-10c0-1.654-1.346-3-3-3h-7v3h2v-1h5c.551 0 1 .449 1 1v10H0v2h2v1a4 4 0 0 0 3.086 3.885L3.5 23.002H6l1.5-2h9l1.5 2h2.5l-1.586-2.115A4 4 0 0 0 22 17.002v-1h2v-2zm-4 3c0 1.102-.897 2-2 2H6c-1.103 0-2-.898-2-2v-1h16v1z"/></g></svg>