<svg xmlns="http://www.w3.org/2000/svg" width="24" height="24"><path fill="none" d="M0 0h24v24H0z"/><path fill="#757575" d="M5 17c0-1.841 1.159-3 3-3s3 1.159 3 3H5z"/><circle fill="#757575" cx="8" cy="11" r="2"/><path fill="#757575" d="M13 11h6v2h-6zm0 4h6v2h-6z"/><path fill="#757575" d="M20 5h-5.185C14.401 3.838 13.302 3 12 3s-2.401.838-2.815 2H4c-1.103 0-2 .896-2 2v12c0 1.103.897 2 2 2h16c1.103 0 2-.897 2-2V7c0-1.104-.897-2-2-2zm-8 0c.551 0 1 .449 1 1 0 .551-.449 1-1 1s-1-.449-1-1c0-.551.449-1 1-1zM4 19V7h5.185C9.599 8.162 10.698 9 12 9s2.401-.838 2.815-2H20l.001 12H4z"/></svg>