<svg xmlns="http://www.w3.org/2000/svg" width="24.001" height="24.001"><path fill="none" d="M0 0h24.001v24.001H0z"/><g fill="#757575"><path d="M17.001 5h-1.279l-.772-2.316A1 1 0 0 0 14.001 2h-8a1 1 0 0 0-.949.684l-1 3a.995.995 0 0 0-.027.533l1.907 8.584-1.763 2.644a1.006 1.006 0 0 0-.168.555v3a1 1 0 0 0 1 1h10a1 1 0 0 0 1-1v-3c0-.197-.059-.391-.168-.555l-1.763-2.644L15.803 7h1.198c.551 0 1 .449 1 1v7h2V8c0-1.655-1.346-3-3-3zM13.28 4l.333 1H6.388l.333-1h6.559zm.721 16h-8v-1.697L7.536 16h4.93l1.535 2.303V20zm-1.802-6h-1.198v-3h-2v3H7.803L6.248 7h7.507l-1.556 7z"/><circle cx="10.001" cy="18" r="1"/></g></svg>