<svg xmlns="http://www.w3.org/2000/svg" width="24.001" height="24.001"><path fill="none" d="M0 0h24.001v24.001H0z"/><path d="M21.001 2.001h-19v2h6v2c0 1.103.897 2 2 2h10c1.103 0 2-.897 2-2v-3a1 1 0 0 0-1-1zm-11 4v-2h10v2h-10zm8.651 8.241a1.004 1.004 0 0 0-1.206-.073l-1.445.964v-4.132a.999.999 0 0 0-1.688-.726c-.72.683-4.312 4.214-4.312 6.726 0 2.757 2.243 5 5 5s5-2.243 5-5c0-1.556-1.21-2.64-1.349-2.759zm-3.651 5.759c-1.654 0-3-1.346-3-3 0-.803.929-2.198 2-3.472v3.472a1 1 0 0 0 1.554.832l2.246-1.497c.112.2.199.432.199.665a3.002 3.002 0 0 1-2.999 3z" fill="#757575"/></svg>