<svg xmlns="http://www.w3.org/2000/svg" width="24.001" height="24.001"><path fill="none" d="M0 0h24.001v24.001H0z"/><path fill="#757575" d="M20.001 20v-7c0-2.595-1.518-4.993-3.827-6.195a3.96 3.96 0 0 0-1.152-2.632c-1.511-1.512-4.147-1.511-5.657-.001l-.185.185a7.041 7.041 0 0 0-6.179 1.935l-.707.706a1.001 1.001 0 0 0 0 1.415l8.485 8.487a1 1 0 0 0 1.414 0l.708-.708a7.027 7.027 0 0 0 1.936-6.178l.185-.186c.291-.291.514-.626.699-.979 1.391.923 2.28 2.479 2.28 4.15v7h-4v2h8v-2h-2zM13.606 8.415l-.572.575a1 1 0 0 0-.258.963 5.019 5.019 0 0 1-1.289 4.825L4.416 7.706a5.04 5.04 0 0 1 4.826-1.288c.345.092.712-.007.965-.259l.573-.573c.755-.756 2.072-.756 2.828 0 .378.378.586.88.586 1.415s-.208 1.035-.588 1.414z"/></svg>