<svg xmlns="http://www.w3.org/2000/svg" width="24" height="24.001"><path fill="none" d="M0 0h24v24.001H0z"/><g fill="#757575"><path d="M14.001 3.001h-1v-1h-2v1h-1c-3.86 0-7 3.141-7 7v3a1.002 1.002 0 0 0 1.707.707l1.293-1.293 1.293 1.293a.999.999 0 0 0 1.414 0l1.293-1.293 1 1v6.586h-3v2h8v-2h-3v-6.586l1-1 1.293 1.293a.999.999 0 0 0 1.414 0l1.293-1.293 1.293 1.293a1 1 0 0 0 1.707-.707v-3c0-3.859-3.14-7-7-7zm5 7.586l-.293-.293a.999.999 0 0 0-1.414 0l-1.293 1.293-1.293-1.293a.997.997 0 0 0-1.414 0l-1.293 1.293-1.293-1.293a.999.999 0 0 0-1.414 0l-1.293 1.293-1.293-1.293a.999.999 0 0 0-1.414 0l-.293.293v-.586c0-2.757 2.243-5 5-5h4c2.757 0 5 2.243 5 5v.586z"/><path d="M15.001 15.001h2v3h-2z"/></g></svg>