<svg xmlns="http://www.w3.org/2000/svg" width="24" height="24"><path fill="none" d="M0 0h24v24H0z"/><path fill="#757575" d="M23.243 15.03c-.082-.021-.162-.011-.243-.011V4a1 1 0 0 0-1-1H2a1 1 0 0 0-1 1v11.019c-.081 0-.161-.009-.243.011a1.001 1.001 0 0 0-.728 1.213l.758 3.031C1.034 20.258 1.985 21 3 21h18c1.015 0 1.967-.743 2.213-1.727l.757-3.03a1 1 0 0 0-.727-1.213zM3 5h18v10h-6c-.265 0-.52.106-.707.293l-.707.707h-3.172l-.707-.707A1.002 1.002 0 0 0 9 15H3V5zm18 14H3c-.09 0-.251-.125-.272-.212L2.281 17h6.305l.707.707A.997.997 0 0 0 10 18h4c.265 0 .52-.105.707-.293l.707-.707h6.305l-.447 1.788c-.022.087-.182.212-.272.212z"/></svg>