<svg xmlns="http://www.w3.org/2000/svg" width="24" height="24"><path fill="none" d="M0 0h24v24H0z"/><g fill="#757575"><path d="M15.999 9c0-2.206-1.794-4-4-4s-4 1.794-4 4 1.794 4 4 4 4-1.794 4-4zm-6 0c0-1.104.897-2 2-2s2 .896 2 2c0 1.103-.897 2-2 2s-2-.897-2-2z"/><path d="M3.999 13h3V8c0-2.757 2.243-5 5-5s5 2.243 5 5v5h3c1.103 0 2-.897 2-2V9c0-1.104-.897-2-2-2h-1.08c-.488-3.387-3.401-6-6.92-6s-6.433 2.613-6.92 6h-1.08c-1.103 0-2 .896-2 2v2c0 1.103.897 2 2 2zM20 11h-1.001V9h1L20 11zM3.999 9h1v2h-1V9zm2.35 9H8.55c.693-1.191 1.975-2 3.449-2s2.756.809 3.449 2h2.201c-.826-2.327-3.043-4-5.65-4s-4.824 1.673-5.65 4zm16.65 4v-2a1 1 0 0 0-1-1h-8a1 1 0 0 0-1 1v2h-2v-2a1 1 0 0 0-1-1h-8a1 1 0 0 0-1 1v2h-1v2h24v-2h-1zm-20 0v-1h6v1h-6zm12 0v-1h6v1h-6z"/></g></svg>