<svg xmlns="http://www.w3.org/2000/svg" width="24" height="24"><path fill="none" d="M0 0h24v24H0z"/><path d="M8.398 10c-.585-2.028-1.031-4.526-.497-5.646.136-.286.419-.529.669-.365.916.593 1.703 3.445 2.143 6.011h2.572c.439-2.565 1.226-5.417 2.143-6.011.25-.164.534.081.669.365.533 1.117.086 3.616-.497 5.646h2.078c.537-2.015 1.028-4.823.225-6.507-.339-.71-.888-1.208-1.587-1.442a2.231 2.231 0 0 0-1.975.259c-1.074.696-1.826 2.402-2.341 4.201-.516-1.799-1.268-3.505-2.341-4.201a2.234 2.234 0 0 0-1.976-.259c-.7.234-1.248.732-1.587 1.442-.804 1.684-.312 4.492.225 6.507h2.077zm10.601 1h-14v2h2v8a1 1 0 0 0 1 1h8a1 1 0 0 0 1-1v-8h2v-2zm-10 9v-4h6v4h-6zm6-6h-6v-1h6v1z" fill="#757575"/></svg>