<svg xmlns="http://www.w3.org/2000/svg" width="24" height="24"><path fill="none" d="M0 0h24v24H0z"/><g fill="#757575"><path d="M19.999 12a1 1 0 0 0 1-1V9a1 1 0 0 0-.4-.8l-7.97-6a.999.999 0 0 0-1.2 0l-8.03 6a.998.998 0 0 0-.4.8v2a1 1 0 0 0 1 1h7.03v10h1.97V12h7zm-7.97-6.764l2 4.001V10h-4v-.764l2-4zm7 4.764h-3v-.998c0-.155-.036-.309-.105-.447l-1.106-2.213L19.029 9.5v.5zm-14-.5L9.24 6.342 8.134 8.553A1.002 1.002 0 0 0 8.029 9v1h-3v-.5z"/><path d="M20.059 14.757L19.248 18h-3.219a1 1 0 0 0-1 1v3h1.97v-2h2.03v2h1.97v-2.877l1-3.88-1.94-.486zM7.999 18H4.81l-.811-3.243-1.94.486.94 3.88V22h2v-2h2.03v2h1.97v-3a1 1 0 0 0-1-1z"/></g></svg>