<svg xmlns="http://www.w3.org/2000/svg" width="24.001" height="24.002"><path fill="none" d="M0 0h24.001v24.002H0z"/><g fill="#757575"><path d="M22 9.002v-2c0-.395-.233-.753-.594-.914l-9-4a1.001 1.001 0 0 0-.813 0l-9 4c-.36.161-.593.519-.593.914v2a1 1 0 0 0 1 1h8v10H2v2h20v-2h-9v-10h8a1 1 0 0 0 1-1zM4 7.652l5.255-2.336-1.79 2.686H4v-.35zm5.869.35L12 4.805l2.131 3.197H9.869zm10.131 0h-3.465l-1.791-2.686L20 7.652v.35z"/><path d="M16 14.002a1 1 0 0 0-1 1v1c0 1.794 1.206 3 3 3h.001c1.793 0 2.999-1.206 2.999-3v-1a1 1 0 0 0-1-1h-4zm2 3c-.248 0-1 0-1-1h2c0 .896-.571 1-1 1zm-11.999 2c1.906 0 2.999-1.094 2.999-3v-1a1 1 0 0 0-1-1H4a1 1 0 0 0-1 1v1c0 1.907 1.093 3 3 3h.001zm-1.001-3h2c0 .794-.206 1-1.001 1-.793 0-.999-.206-.999-1z"/></g></svg>