<svg xmlns="http://www.w3.org/2000/svg" width="24" height="24.001"><g fill="none"><path d="M0 0h24v24.001H0z"/><path d="M0 0h24v24.001H0z"/></g><g fill="#757575"><path d="M12 2.001c-4.411 0-8 3.589-8 8 0 4.41 4.644 9.44 8 12.318 3.354-2.876 8-7.906 8-12.318 0-4.411-3.588-8-8-8zm0 17.655c-2.13-1.997-6-6.316-6-9.655 0-3.309 2.691-6 6-6s6 2.691 6 6c0 3.338-3.87 7.657-6 9.655z"/><path d="M12 6.001c-2.206 0-4 1.794-4 4v2h1v1a1 1 0 0 0 1 1h4a1 1 0 0 0 1-1v-1h1v-2c0-2.206-1.794-4-4-4zm-2 5a1 1 0 1 1 0-2 1 1 0 1 1 0 2zm4 0a1 1 0 1 1 0-2 1 1 0 1 1 0 2z"/></g></svg>