<svg xmlns="http://www.w3.org/2000/svg" width="24" height="24.001"><g fill="none"><path d="M0 0h24v24.001H0z"/><path d="M0 0h24v24.001H0z"/></g><path fill="#757575" d="M12.001 6.002c-1.654 0-3-1.346-3-3s1.346-3 3-3 3 1.346 3 3-1.346 3-3 3zm0-4a1.001 1.001 0 1 0 1 1c0-.551-.449-1-1-1zm2 18h-4a1 1 0 0 1-1-1v-4h-1a1 1 0 0 1-1-1v-2c0-2.757 2.243-5 5-5s5 2.243 5 5v2a1 1 0 0 1-1 1h-1v4a1 1 0 0 1-1 1zm-3-2h2v-4a1 1 0 0 1 1-1h1v-1c0-1.654-1.346-3-3-3s-3 1.346-3 3v1h1a1 1 0 0 1 1 1v4z"/><path fill="#757575" d="M12.001 24.002c-4.816 0-10-1.251-10-4 0-.969.667-2.317 3.841-3.232l.555 1.922c-1.979.571-2.396 1.208-2.396 1.31 0 .515 2.75 2 8 2s8-1.485 8-2c0-.096-.389-.704-2.239-1.264l.58-1.914c3.024.915 3.659 2.233 3.659 3.177 0 2.75-5.184 4.001-10 4.001z"/></svg>