<svg xmlns="http://www.w3.org/2000/svg" width="24" height="24.001"><g fill="none"><path d="M0 0h24v24.001H0z"/><path d="M0 0h24v24.001H0z"/></g><g fill="#757575"><path d="M13 5.001h-2v1.051c-1.14.232-2 1.243-2 2.449 0 1.378 1.122 2.5 2.5 2.5h1a.5.5 0 0 1 0 1H9v2h2v1h2V13.95c1.14-.232 2-1.242 2-2.449 0-1.378-1.122-2.5-2.5-2.5h-1a.5.5 0 0 1 0-1H15v-2h-2v-1z"/><path d="M12 2.001c-4.411 0-8 3.589-8 8s4.644 9.44 8 12.318c3.354-2.876 8-7.906 8-12.318 0-4.411-3.588-8-8-8zm0 17.654c-2.13-1.997-6-6.316-6-9.654 0-3.309 2.691-6 6-6s6 2.691 6 6c0 3.338-3.87 7.657-6 9.654z"/></g></svg>