<svg xmlns="http://www.w3.org/2000/svg" width="24" height="24.001"><g fill="none"><path d="M0 0h24v24.001H0z"/><path d="M0 0h24v24.001H0z"/></g><path fill="#757575" d="M12.001 18.002a1 1 0 0 1-.91-.586c-.683-1.5-4.09-9.104-4.09-11.414 0-2.757 2.243-5 5-5s5 2.243 5 5c0 2.31-3.406 9.914-4.09 11.414a.995.995 0 0 1-.91.586zm0-15c-1.654 0-3 1.346-3 3 0 1.183 1.593 5.261 3 8.527 1.408-3.267 3-7.345 3-8.527 0-1.654-1.345-3-3-3z"/><circle fill="#757575" cx="12.001" cy="6.002" r="1.5"/><path fill="#757575" d="M19.485 21.002H4.518a1.996 1.996 0 0 1-1.669-.898 1.991 1.991 0 0 1-.168-1.891l2.142-4.998a1.995 1.995 0 0 1 1.838-1.212h.824v2h-.824l-2.143 5h14.967l-2.143-5h-.857v-2h.857c.802 0 1.523.476 1.838 1.213l2.142 4.999a1.991 1.991 0 0 1-.168 1.888 1.994 1.994 0 0 1-1.669.899z"/></svg>