<svg xmlns="http://www.w3.org/2000/svg" width="24.001" height="24.001"><path fill="none" d="M0 0h24.001v24.001H0z"/><g fill="#757575"><path d="M20.708 22.294l-6.785-6.785c1.322-1.144 2.078-2.757 2.078-4.508 0-2.238-1.946-5.222-2.168-5.555a1 1 0 0 0-1.539-.152l-1.293 1.292V1A1 1 0 0 0 9.233.361C9.019.617 4.001 6.688 4.001 11a5.98 5.98 0 0 0 1.482 3.914A5.988 5.988 0 0 0 10.001 17c.746 0 1.47-.157 2.158-.427l7.135 7.135 1.414-1.414zm-13.714-8.69c-.453-.522-.993-1.397-.993-2.604 0-2.012 1.571-4.852 3-6.972V9a1.001 1.001 0 0 0 1.707.707l2.094-2.094c.561 1.022 1.199 2.423 1.199 3.387 0 1.272-.598 2.442-1.642 3.21-1.655 1.219-4.029.935-5.365-.606"/><path d="M10.001 11a4.963 4.963 0 0 0-2.843.895c.149.448.378.806.591 1.054.184.212.403.38.637.531a2.972 2.972 0 0 1 1.615-.48c.603 0 1.162.182 1.632.489a2.9 2.9 0 0 0 1.211-1.594A4.968 4.968 0 0 0 10.001 11z"/></g></svg>