<svg xmlns="http://www.w3.org/2000/svg" width="24" height="24.002"><path fill="none" d="M0 0h24v24.002H0z"/><g fill="#757575"><path d="M5.001 10.004h7a1 1 0 1 0 0-2h-7a1 1 0 1 0 0 2zm12 9h-.816a2.991 2.991 0 0 0 2.816 2 3 3 0 0 0 3-3 2.98 2.98 0 0 0-1.073-2.281 4 4 0 0 1-3.927 3.281z"/><path d="M20.001 10.671V7.004c0-1.654-1.346-3-3-3h-2v2h2c.551 0 1 .449 1 1v8c0 .551-.449 1-1 1h-5v-4a1 1 0 0 0-1-1h-4c-2.757 0-5 2.243-5 5v2h15c1.654 0 3-1.346 3-3v-1.667l2 .667v-4l-2 .667zm-16 5.333c0-1.654 1.346-3 3-3h3v3h-6zm3 5a2.99 2.99 0 0 0 2.816-2H4.185a2.991 2.991 0 0 0 2.816 2z"/></g></svg>