<svg xmlns="http://www.w3.org/2000/svg" width="24" height="24"><path fill="none" d="M0 0h24v24H0z"/><g fill="#757575"><path d="M16.886 6.002h3.115v-2h-3.304c-.756-1.215-2.81-2-4.696-2s-3.94.785-4.696 2H4.001v2h3.115c.214.996.744 2.04 1.618 2.814a7.004 7.004 0 0 0-3.732 6.186v4a1 1 0 0 0 1 1h3c0 1.654 1.346 3 3 3s3-1.346 3-3h3a1 1 0 0 0 1-1v-4c0-2.68-1.515-5.01-3.732-6.186.873-.774 1.402-1.818 1.616-2.814zm-3.885 14c0 .551-.449 1-1 1s-1-.449-1-1v-4c0-.551.449-1 1-1s1 .449 1 1v4zm4-5v3h-2v-2c0-1.654-1.346-3-3-3s-3 1.346-3 3v2h-2v-3c0-2.757 2.243-5 5-5s5 2.243 5 5zm-8.008-9.94c.129-.324 1.4-1.06 3.008-1.06s2.879.736 3 1c0 .778-.551 3-3 3s-3-2.222-3.008-2.94z"/><circle cx="12.001" cy="6.002" r="1"/></g></svg>