<svg xmlns="http://www.w3.org/2000/svg" width="24" height="24"><path fill="none" d="M0 0h24v24H0z"/><path fill="#757575" d="M19.561 3.172a1 1 0 0 0-.932-.101l-10 4C8.249 7.224 8 7.592 8 8v6.352A3.454 3.454 0 0 0 6.5 14C4.57 14 3 15.57 3 17.5S4.57 21 6.5 21s3.5-1.57 3.5-3.5V8.678l8-3.2v5.874A3.454 3.454 0 0 0 16.5 11c-1.93 0-3.5 1.57-3.5 3.5s1.57 3.5 3.5 3.5 3.5-1.57 3.5-3.5V4c0-.332-.165-.642-.439-.828zM6.5 19c-.827 0-1.5-.673-1.5-1.5S5.673 16 6.5 16s1.5.673 1.5 1.5S7.327 19 6.5 19zm10-3c-.827 0-1.5-.673-1.5-1.5s.673-1.5 1.5-1.5 1.5.673 1.5 1.5-.673 1.5-1.5 1.5z"/></svg>