<svg xmlns="http://www.w3.org/2000/svg" width="24" height="24"><path fill="none" d="M0 0h24v24H0z"/><g fill="#757575"><path d="M18.811 15.416A1 1 0 0 0 18 15h-5v-1.179c.313.112.648.179 1 .179 1.654 0 3-1.345 3-3 0-.684-.255-1.274-.562-1.735C17.207 8.762 18 8.002 18 7c0-1.711-1.472-3.097-3.169-2.995C14.418 2.838 13.305 2 12 2s-2.419.838-2.831 2.005C7.474 3.905 6 5.289 6 7c0 1 .793 1.761 1.563 2.264C7.255 9.726 7 10.315 7 11c0 1.655 1.346 3 3 3 .352 0 .687-.067 1-.179V15H6a1 1 0 0 0-.949 1.316l2 6A1 1 0 0 0 8 23h8a1 1 0 0 0 .949-.684l2-6a1 1 0 0 0-.138-.9zM10 12c-.551 0-1-.449-1-1 0-.517.573-1.063.768-1.21a1 1 0 0 0-.213-1.732C8.845 7.766 8.073 7.228 8 7c0-.728.836-1.258 1.512-.851.331.2.746.177 1.068-.037s.49-.609.435-.991C11.009 5.081 11 5.042 11 5c0-.551.449-1 1-1s1 .449 1 1c0 .042-.009.081-.019.151a.999.999 0 0 0 1.505.999c.683-.412 1.513.132 1.517.821-.075.257-.847.795-1.557 1.085a1.003 1.003 0 0 0-.219 1.73c.2.151.773.697.773 1.214 0 .551-.449 1-1 1s-1-.449-1-1a1 1 0 0 0-2 0c0 .551-.449 1-1 1zm5.279 9H8.72l-1.333-4h9.226l-1.334 4z"/><circle cx="12" cy="8" r="2"/></g></svg>