<svg xmlns="http://www.w3.org/2000/svg" width="24" height="24"><path fill="none" d="M0 0h24v24H0z"/><g fill="#757575"><path d="M7.271 12.53c.992 0 1.933-.428 2.583-1.177.6-.689.894-1.572.83-2.483a3.398 3.398 0 0 0-1.17-2.343C8.189 5.376 3.953 4.968 2.345 4.79c.216 1 1.047 5.481 2.685 6.903a3.424 3.424 0 0 0 2.241.837zm.931-4.494c.584.507.664 1.404.142 2.006-.493.567-1.435.634-2.003.141-.479-.417-1.006-1.766-1.385-3.05 1.485.246 2.898.601 3.246.903z"/><path d="M13.316 10.932a3.763 3.763 0 0 0 2.135.664 3.774 3.774 0 0 0 2.724-1.15c1.358-1.394 2.102-6.096 2.401-7.868-1 .157-6.149.821-7.848 2.566a3.774 3.774 0 0 0-1.077 2.702c.007.515.117 1.011.316 1.468-.612.877-.967 1.848-.967 2.757V15H6a1 1 0 0 0-.949 1.316l2 6A1 1 0 0 0 8 23h8a1 1 0 0 0 .949-.684l2-6A1 1 0 0 0 18 15h-5v-2.929c0-.353.118-.747.316-1.139zM15.279 21H8.72l-1.333-4h9.226l-1.334 4zM14.161 6.54c.56-.575 2.334-1.137 3.935-1.498-.392 1.805-.935 3.578-1.354 4.008a1.799 1.799 0 1 1-2.581-2.51z"/></g></svg>