<svg xmlns="http://www.w3.org/2000/svg" width="24" height="24"><path fill="none" d="M0 0h24v24H0z"/><path d="M1 12c0 5.515 4.486 10 10 10v-2a7.945 7.945 0 0 1-3-.589V16h3v-2H8v-4h3V8H8V4.589A7.945 7.945 0 0 1 11 4V2C5.486 2 1 6.486 1 12zm5 6.235A8.036 8.036 0 0 1 4.083 16H6v2.235zM6 14H3.263A8.005 8.005 0 0 1 3 12c0-.691.098-1.359.263-2H6v4zm0-8.235V8H4.083A8.036 8.036 0 0 1 6 5.765zM20 5c0-1.654-1.346-3-3-3s-3 1.346-3 3 1.346 3 3 3 3-1.346 3-3zm-3 1c-.551 0-1-.449-1-1 0-.551.449-1 1-1s1 .449 1 1c0 .551-.449 1-1 1zm0 2c-2.757 0-5 2.243-5 5v3a1 1 0 0 0 1 1h1v4a1 1 0 0 0 1 1h4a1 1 0 0 0 1-1v-4h1a1 1 0 0 0 1-1v-3c0-2.757-2.243-5-5-5zm3 7h-1a1 1 0 0 0-1 1v4h-2v-4a1 1 0 0 0-1-1h-1v-2c0-1.654 1.346-3 3-3s3 1.346 3 3v2z" fill="#757575"/></svg>