<svg xmlns="http://www.w3.org/2000/svg" width="24" height="24"><path fill="none" d="M0 0h24v24H0z"/><g fill="#757575"><path d="M15 7c.395 0 .779-.077 1.136-.225A3.98 3.98 0 0 0 19 8c2.206 0 4-1.794 4-4s-1.794-4-4-4c-1.09 0-2.12.453-2.864 1.225A2.962 2.962 0 0 0 15 1c-1.654 0-3 1.346-3 3s1.345 3 3 3zm0-4c.256 0 .501.1.689.281a.999.999 0 0 0 1.569-.237A1.999 1.999 0 0 1 19 2c1.103 0 2 .896 2 2 0 1.103-.897 2-2 2a2 2 0 0 1-1.742-1.044 1.001 1.001 0 0 0-1.568-.238A.994.994 0 0 1 15 5a1.001 1.001 0 0 1 0-2zm2.948 6.684A.999.999 0 0 0 17 9H7a1 1 0 0 0-.949.684l-4 12A.999.999 0 0 0 3 23h18a1.002 1.002 0 0 0 .949-1.317L17.948 9.684zM4.387 21L7.72 11h8.559l3.333 10H4.387z"/><circle cx="12" cy="16" r="1"/><path d="M11.355 14.105l-.646-1.893A4.002 4.002 0 0 0 8 16h2c0-.856.544-1.617 1.355-1.895zm-.864 3.208l-1.508 1.314a4.004 4.004 0 0 0 6.008.03l-1.494-1.33c-.766.861-2.251.855-3.006-.014zm2.843-5.084l-.668 1.885A2.004 2.004 0 0 1 14 16h2a4.008 4.008 0 0 0-2.666-3.771z"/></g></svg>