<svg xmlns="http://www.w3.org/2000/svg" width="24" height="24"><path fill="none" d="M0 0h24v24H0z"/><path fill="#757575" d="M20.998 15h-2v-1c0-1.654-1.345-3-2.998-3h-3V9h2a1 1 0 0 0 1-1V3a1 1 0 0 0-1-1H9a1 1 0 0 0-1 1v5a1 1 0 0 0 1 1h2v2H8c-1.654 0-3 1.346-3 3v1H3a1 1 0 0 0-1 1v5a1 1 0 0 0 1 1h6a1 1 0 0 0 1-1v-5a1 1 0 0 0-1-1H7v-1c0-.551.449-1 1-1h8a1 1 0 0 1 .998 1v1H15a1 1 0 0 0-1 1v5a1 1 0 0 0 1 1h5.998a1 1 0 0 0 1-1v-5a1 1 0 0 0-1-1zM10 7V4h4v3h-4zM8 20H4v-3h4v3zm11.998 0H16v-3h3.998v3z"/></svg>