<svg xmlns="http://www.w3.org/2000/svg" width="24" height="24"><path fill="none" d="M0 0h24v24H0z"/><path fill="#757575" d="M23.924 6.617A1.002 1.002 0 0 0 23 6H12.5L9.8 2.4A1 1 0 0 0 9 2H5c-.304 0-.591.139-.781.375l-4 5A1.002 1.002 0 0 0 1 9h4v4c0 .174.045.345.132.496l4 7A.999.999 0 0 0 10 21h9a1 1 0 0 0 .625-1.78l-4.127-3.302 8.21-8.21c.285-.287.371-.717.216-1.091zm-13.244.29L7 10.586V4h1.5l2.18 2.907zM3.081 7L5 4.602V7H3.081zm13.068 12h-3.735l1.66-1.66L16.149 19zm-5.93-.633l-2.972-5.2L12.414 8h8.172L10.219 18.367z"/></svg>