<svg xmlns="http://www.w3.org/2000/svg" width="24" height="24"><path fill="none" d="M0 0h24v24H0z"/><path fill="#757575" d="M22 5.07a2.98 2.98 0 0 0-.878-2.121c-1.133-1.134-3.11-1.134-4.243 0L6.67 13.158c-.931.068-1.839.425-2.519 1.105-1.416 1.415-1.356 2.606-1.309 3.564.041.823.07 1.417-.923 2.411L.477 21.68c1.816.231 2.244.32 3.244.32 1.496 0 4.276-.271 6.085-2.08a3.956 3.956 0 0 0 1.146-2.561L21.121 7.191A2.976 2.976 0 0 0 22 5.07zM8.393 18.506C7.35 19.549 5.738 19.88 4.528 19.97c.379-.877.342-1.63.312-2.241-.087-1.759 1.083-2.637 2.139-2.637.534 0 1.036.208 1.414.586a1.995 1.995 0 0 1 0 2.828zM19.707 5.777l-9.293 9.293a3.996 3.996 0 0 0-.607-.807 3.724 3.724 0 0 0-.815-.598l9.301-9.302a1.025 1.025 0 0 1 1.414 0c.189.189.293.441.293.707s-.104.518-.293.707z"/></svg>