<svg xmlns="http://www.w3.org/2000/svg" width="24" height="24"><path fill="none" d="M0 0h24v24H0z"/><g fill="#757575"><path d="M12 4v2h4.586l-6.293 6.293 1.414 1.414L18 7.414V12h2V4z"/><path d="M18 15h-4a2.002 2.002 0 0 0-1.999 1.922c-2.542-.404-4.473-2.341-4.909-4.925A2 2 0 0 0 9 10V6c0-1.103-.897-2-2-2H3c-1.103 0-2 .897-2 2v5c0 6.617 5.383 12 12 12h5c1.103 0 2-.897 2-2v-4c0-1.103-.897-2-2-2zm-5 6C7.486 21 3 16.515 3 11V6h4v4H6a1 1 0 0 0-1 1.016C5.072 15.567 8.512 19 13 19a1 1 0 0 0 1-1v-1h4l.001 4H13z"/></g></svg>