<svg xmlns="http://www.w3.org/2000/svg" width="24" height="24.001"><path fill="none" d="M0 0h24v24.001H0z"/><g fill="#757575"><path d="M21 13.001h-6v-2.632c1.283-.662 2-1.821 2-3.368 0-2.6-3.688-5.304-4.428-5.82a1 1 0 0 0-1.145 0C10.688 1.697 7 4.402 7 7.001c0 1.546.717 2.706 2 3.368v2.632H3a1 1 0 0 0-1 1v7c0 .551.448 1 1 1h7c.552 0 1-.449 1-1v-1.586l.999-1 1.002 1 .001 1.586c0 .551.448 1 1 1H21c.552 0 1-.449 1-1v-7a1 1 0 0 0-1-1zm-9-9.756c1.396 1.091 3 2.739 3 3.756 0 .494 0 2-3 2s-3-1.506-3-2c0-1.017 1.604-2.665 3-3.756zm-1 7.756h2v2h-2v-2zm9 9h-4.999L15 19c0-.264-.106-.519-.293-.707l-2.002-2a1 1 0 0 0-1.414 0l-1.998 2a1.003 1.003 0 0 0-.293.708v1H4v-5h16v5z"/><path d="M16 16.001h2v2h-2zm-10 0h2v2H6zm-3-7h2v3H3zm16 0h2v3h-2z"/></g></svg>