<svg xmlns="http://www.w3.org/2000/svg" width="24" height="24.001"><path fill="none" d="M0 0h24v24.001H0z"/><path fill="#757575" d="M21.999 14h-2V9a1 1 0 0 0-1-1h-5V3a1 1 0 0 0-1-1h-11a1 1 0 0 0-1 1v18a1 1 0 0 0 1 1h3.998a1 1 0 0 0 1-1v-1.499a.502.502 0 0 1 1.002 0V21a1 1 0 0 0 1 1h4a1 1 0 0 0 1-1v-1.5a.5.5 0 0 1 1 0V21a1 1 0 0 0 1 1h6a1 1 0 0 0 1-1v-6a1 1 0 0 0-1-1zm-4-4v4h-1v-.5c0-1.378-1.122-2.5-2.5-2.5s-2.5 1.122-2.5 2.5v.5h-2v-.499C9.999 12.122 8.877 11 7.498 11s-2.501 1.122-2.501 2.501V14H2.999v-4h2.998a1 1 0 0 0 1-1V7.501a.502.502 0 0 1 1.002 0V9a1 1 0 0 0 1 1h9zm-15-6h9v4h-2v-.499C9.999 6.122 8.877 5 7.498 5S4.997 6.122 4.997 7.501V8H2.999V4zm18 16h-4v-.5c0-1.378-1.122-2.5-2.5-2.5s-2.5 1.122-2.5 2.5v.5h-2v-.499C9.999 18.122 8.877 17 7.498 17s-2.501 1.122-2.501 2.501V20H2.999v-4h2.998a1 1 0 0 0 1-1v-1.499a.502.502 0 0 1 1.002 0V15a1 1 0 0 0 1 1h4a1 1 0 0 0 1-1v-1.5a.5.5 0 0 1 1 0V15a1 1 0 0 0 1 1h5v4z"/></svg>