<svg xmlns="http://www.w3.org/2000/svg" width="24" height="24.001"><path fill="none" d="M0 0h24v24.001H0z"/><path fill="#757575" d="M21.8 6.402l-3-4a1 1 0 0 0-.8-.401H6a1 1 0 0 0-.8.401l-3 4A1 1 0 0 0 3 8.001h2v9H3v2h2v3a1 1 0 0 0 1 1h12a1 1 0 0 0 1-1v-3h2v-2h-2v-9h2a1.001 1.001 0 0 0 .8-1.599zM17 21.001H7v-2h10v2zm0-4H7v-9h4v2H9a.998.998 0 0 0-.97 1.243l1 4a1 1 0 0 0 .97.758h4a.999.999 0 0 0 .97-.758l1-4a1.001 1.001 0 0 0-.97-1.243h-2v-2h4v9zm-3.281-5l-.5 2h-2.438l-.5-2h3.438zM5 6.001l1.5-2h11l1.5 2H5z"/></svg>