<svg xmlns="http://www.w3.org/2000/svg" width="24.001" height="24.001"><path fill="none" d="M0 0h24.001v24.001H0z"/><g fill="#757575"><path d="M6.721 12.996l2.541-7.621 1.658 2.764-1.388 4.857h2.08l1.35-4.726a1 1 0 0 0-.105-.79l-3-5a1.002 1.002 0 0 0-1.806.199l-3.52 10.562A4.932 4.932 0 0 1 6 12.996h.721zm12.279-8c-1.654 0-3 1.346-3 3v5h2v-2h1V9h-1V7.996c0-.551.449-1 1-1s1 .449 1 1v5.423a5.02 5.02 0 0 1 2 1.607v-7.03c0-1.655-1.346-3-3-3z"/><path d="M18 14H6c-2.206 0-4 1.792-4 3.998A4.004 4.004 0 0 0 6 22h12c2.206 0 4-1.794 4-4.002A4.002 4.002 0 0 0 18 14zm0 6H6a2.001 2.001 0 0 1 0-4.002h12A2.001 2.001 0 0 1 18 20z"/><circle cx="7" cy="17.996" r="1"/><circle cx="17" cy="17.996" r="1"/></g></svg>