<svg xmlns="http://www.w3.org/2000/svg" width="24.001" height="24.001"><path fill="none" d="M0 0h24.001v24.001H0z"/><path fill="#757575" d="M21.599 7.199l-4-3a1 1 0 0 0-.6-.2h-1.586l-.707-.707a1 1 0 0 0-.707-.293h-4a.997.997 0 0 0-.707.293l-.707.707H6.999a1 1 0 0 0-.6.2l-4 3a1 1 0 0 0-.294 1.247l2 4a.999.999 0 0 0 1.342.447L6 12.617v6.382a1 1 0 0 0 1 1h10a1 1 0 0 0 1-1v-6.382l.553.276a1 1 0 0 0 1.342-.447l2-4a1.003 1.003 0 0 0-.296-1.247zm-8.014-2.2l-1.586 1.586-1.586-1.586h3.172zm4.967 5.658l-1.105-.553a1.003 1.003 0 0 0-.973.044 1.003 1.003 0 0 0-.474.851v7H8v-7a1.003 1.003 0 0 0-1.448-.895l-1.105.553-1.18-2.359 3.066-2.299h1.252l2.414 2.414v3.586h2V8.413l2.414-2.414h1.252l3.066 2.299-1.179 2.359z"/></svg>