<svg xmlns="http://www.w3.org/2000/svg" width="24" height="24"><path fill="none" d="M0 0h24v24H0z"/><g fill="#757575"><path d="M19 6.001h-4v-3c0-1.103-.897-2-2-2h-3c-1.103 0-2 .897-2 2v3c0 1.103.897 2 2 2h9v7H4a1 1 0 0 0-1 1v6a1 1 0 0 0 1 1h16a1 1 0 0 0 1-1v-14c0-1.103-.897-2-2-2zm-9 0v-3h3l.001 3H10zm9 15H5v-4h14v4z"/><circle cx="13" cy="19.001" r="1"/><circle cx="17" cy="19.001" r="1"/><path d="M10 10.001h2v4h-2zm3.056-.181l1.885-.666 1.333 3.77-1.886.666zm-5.999-.667l1.885.667-1.333 3.77-1.885-.666z"/></g></svg>