<svg xmlns="http://www.w3.org/2000/svg" width="24" height="24"><path fill="none" d="M0 0h24v24H0z"/><g fill="#757575"><path d="M21 2h-9c-1.654 0-3 1.346-3 3v10H5C1.224 15 .067 20.567.02 20.804A.998.998 0 0 0 1 22h8a1 1 0 0 0 1-1h7c1.654 0 3-1.346 3-3V9h3a1 1 0 0 0 1-1V5c0-1.654-1.346-3-3-3zM8.071 20H2.326C2.799 18.678 3.7 17 5 17h4.164c-.63.931-.961 2.04-1.093 3zM13 17c.449 0 1 .552 1 1 0 .348.077.683.197 1h-3.831c.372-1 1.12-2 2.634-2zm5 1c0 .552-.449 1-1 1-.554 0-1-.547-1-1 0-1.542-1.458-3-3-3h-2V5c0-.552.449-1 1-1h6.184A2.966 2.966 0 0 0 18 5v13zm4-11h-2V5a1.001 1.001 0 0 1 2 0v2z"/><path d="M12 6h5v2h-5zm0 3h5v2h-5zm0 3h5v2h-5z"/></g></svg>