<svg xmlns="http://www.w3.org/2000/svg" width="24" height="24"><path fill="none" d="M0 0h24v24H0z"/><path fill="#757575" d="M20 8h-3.115a4.96 4.96 0 0 0 1.236-.879 3.004 3.004 0 0 0 0-4.242c-1.134-1.133-3.108-1.133-4.242 0C12.243 4.516 12.02 7.597 12 7.943c-.02-.346-.243-3.427-1.879-5.063-1.134-1.133-3.11-1.132-4.242 0C5.312 3.446 5 4.199 5 5s.312 1.555.878 2.121A4.99 4.99 0 0 0 7.115 8H4c-1.103 0-2 .898-2 2v3a1 1 0 0 0 1 1v6c0 1.103.897 2 2 2h14c1.103 0 2-.897 2-2v-6a1 1 0 0 0 1-1v-3c0-1.102-.897-2-2-2zM8 20H5v-6h3v6zm0-8H4v-2h4v2zm-.707-6.293A.993.993 0 0 1 7 5a.995.995 0 0 1 1-.999c.268 0 .519.104.708.293.59.589.934 1.648 1.118 2.53-.881-.185-1.946-.53-2.533-1.117zM14 20h-4v-6h4v6zm0-8h-4v-2h4v2zm1.293-7.706c.189-.189.44-.293.707-.293s.518.104.707.292a1 1 0 0 1 0 1.414c-.59.592-1.649.936-2.532 1.121.183-.885.528-1.944 1.118-2.534zM19 20h-3v-6h3v6zm1-8h-4v-2h4v2z"/></svg>