<svg xmlns="http://www.w3.org/2000/svg" width="24" height="24"><path fill="none" d="M0 0h24v24H0z"/><path fill="#757575" d="M18.78 2.375A1 1 0 0 0 18 2H6a1 1 0 0 0-.976 1.217l2 9 1.952-.434L7.247 4H10.2l.8 4h2l.8-4h2.954l-1.729 7.783 1.952.434 2-9a1 1 0 0 0-.197-.842z"/><path fill="#757575" d="M16 22c-.152 0-.306-.035-.447-.105L12 20.119l-3.553 1.775a1 1 0 0 1-1.418-1.136l.893-3.571-1.754-2.632A.998.998 0 0 1 7 13h2.382l1.724-3.447c.339-.677 1.45-.677 1.789 0L14.618 13H17a1 1 0 0 1 .832 1.554l-1.754 2.632.893 3.571A.998.998 0 0 1 16 22zm-4-4a.99.99 0 0 1 .447.106l2.055 1.027-.473-1.891a1.002 1.002 0 0 1 .138-.797L15.131 15H14c-.379 0-.725-.214-.895-.553L12 12.236l-1.105 2.211c-.17.339-.516.553-.895.553H8.869l.963 1.445a.998.998 0 0 1 .138.797l-.473 1.891 2.055-1.027A.997.997 0 0 1 12 18z"/></svg>