<svg xmlns="http://www.w3.org/2000/svg" width="24" height="24"><path fill="none" d="M0 0h24v24H0z"/><path fill="#757575" d="M20.308 3.695c-1.289-1.291-3.995.088-6.21 1.629A7 7 0 0 0 12 5.002c-3.86 0-7 3.14-7 7 0 .73.113 1.434.322 2.097-1.542 2.217-2.919 4.922-1.63 6.211.338.339.791.508 1.354.508 1.537 0 3.605-1.269 4.868-2.146.66.208 1.357.33 2.086.33 3.86 0 7-3.14 7-7a6.89 6.89 0 0 0-.33-2.086c1.147-1.652 3.061-4.799 1.638-6.221zm-8.207 13.297a39.454 39.454 0 0 0 4.889-4.889 4.994 4.994 0 0 1-4.889 4.889zm5.836-8.679l-.006-.011c-1.194 1.825-2.545 3.498-4.34 5.292-1.562 1.561-3.2 2.97-5.292 4.34l.011.005c-.595.377-3.072 1.796-3.558 1.312-.176-.177-.101-1.319 1.313-3.554.284.455.612.878.989 1.255a23.763 23.763 0 0 0 1.701-1.177C7.69 14.857 7 13.516 7 12.002c0-2.757 2.243-5 5-5 1.513 0 2.855.69 3.773 1.756.44-.586.839-1.158 1.176-1.702a7.016 7.016 0 0 0-1.254-.988c2.233-1.414 3.377-1.49 3.552-1.313.484.483-.934 2.963-1.31 3.558z"/></svg>