<svg xmlns="http://www.w3.org/2000/svg" width="24.001" height="24"><path fill="none" d="M0 0h24.001v24H0z"/><path fill="#757575" d="M21.707 11.293l-3-3-1.414 1.414L18.586 11H5.414l4.964-4.964c2.004.183 3.683 1.774 4.331 3.964h2.061c-.78-3.445-3.515-6-6.77-6-1.103 0-2-.897-2-2H6c0 1.511.853 2.813 2.092 3.494l-5.799 5.799a.999.999 0 0 0 0 1.414l5.799 5.8C6.853 19.187 6 20.489 6 22h2c0-1.104.897-2 2-2 3.255 0 5.989-2.555 6.77-6h-2.061c-.648 2.188-2.326 3.781-4.331 3.964L5.414 13h13.172l-1.293 1.293 1.414 1.414 3-3a.999.999 0 0 0 0-1.414z"/></svg>