<svg xmlns="http://www.w3.org/2000/svg" width="24" height="24"><path fill="none" d="M0 0h24v24H0z"/><path d="M13.499 2a1.5 1.5 0 0 0-1.5 1.5 1.5 1.5 0 0 0-3 0c0 1.5 3 4.5 3 4.5s3-3 3-4.5a1.5 1.5 0 0 0-1.5-1.5zm8.5 5c0-1.654-1.346-3-3-3s-3 1.346-3 3 1.346 3 3 3 3-1.346 3-3zm-3 1c-.551 0-1-.449-1-1 0-.551.449-1 1-1s1 .449 1 1c0 .551-.449 1-1 1zm0 2c-2.757 0-5 2.243-5 5v3a1 1 0 0 0 1 1h1v4a1 1 0 0 0 1 1h4a1 1 0 0 0 1-1v-4h1a1 1 0 0 0 1-1v-3c0-2.757-2.243-5-5-5zm3 7h-1a1 1 0 0 0-1 1v4h-2v-4a1 1 0 0 0-1-1h-1v-2c0-1.654 1.346-3 3-3s3 1.346 3 3v2zm-14-9c0-1.654-1.346-3-3-3s-3 1.346-3 3 1.346 3 3 3 3-1.346 3-3zm-3 1c-.551 0-1-.449-1-1 0-.551.449-1 1-1s1 .449 1 1c0 .551-.449 1-1 1zm3.455 4.801C8.125 12.179 6.671 11 4.999 11s-3.125 1.179-3.442 2.746c-.635 2.414-.362 1.345-1.528 6.011A1.003 1.003 0 0 0 .978 21s.744.016 1.332.018c.191.573.479 1.465.736 2.283.13.416.517.699.953.699h2a1 1 0 0 0 .954-.699c.258-.818.545-1.709.737-2.283A88.83 88.83 0 0 0 9.021 21a1 1 0 0 0 .948-1.243c-1.13-4.523-.937-3.773-1.515-5.956zM6.998 19c-.734 0-.783 0-1.732 3h-.534c-.911-2.88-.995-3-1.651-3-.077 0-.575.002-.806 0 0 0 .637-2.533 1.229-4.801.139-.683.782-1.199 1.495-1.199s1.356.516 1.507 1.254A491.855 491.855 0 0 1 7.723 19c-.23.002-.666 0-.725 0z" fill="#757575"/></svg>