<svg xmlns="http://www.w3.org/2000/svg" width="24" height="24.002"><path fill="none" d="M0 0h24v24.002H0z"/><g fill="#757575"><path d="M13.999 7.001c-.735 0-1.452.332-2 .846-.548-.514-1.265-.846-2-.846-2.393 0-4 1.607-4 3.999 0 3.467 4.924 6.521 5.485 6.857a.994.994 0 0 0 1.03 0c.562-.337 5.485-3.391 5.485-6.857 0-2.392-1.607-3.999-4-3.999zm-2 8.81c-1.422-.965-4-3.072-4-4.811 0-.601.195-1.999 2-1.999.449 0 1 .551 1 .999a1 1 0 0 0 2 0c0-.448.551-.999 1-.999 1.805 0 2 1.398 2 1.999 0 1.738-2.578 3.846-4 4.811z"/><path d="M23.999 11h-2.051c-.47-4.717-4.232-8.478-8.949-8.948V0h-2v2.052C6.282 2.522 2.52 6.283 2.05 11H-.001v2H2.05c.47 4.717 4.232 8.479 8.949 8.949V24h2v-2.051c4.717-.471 8.479-4.232 8.949-8.949h2.051v-2zm-11 8.931V19h-2v.931A8.008 8.008 0 0 1 4.068 13h.931v-2h-.931a8.007 8.007 0 0 1 6.931-6.93V5h2v-.93A8.008 8.008 0 0 1 19.93 11h-.931v2h.931a8.007 8.007 0 0 1-6.931 6.931z"/></g></svg>