<svg xmlns="http://www.w3.org/2000/svg" width="24" height="24.002"><path fill="none" d="M0 0h24v24.002H0z"/><path d="M15.999 8c0-2.033-2.94-6.225-4-7.759-.691 1-4 5.613-4 7.759 0 2.205 1.794 4 4 4s4-1.795 4-4zm-4 2c-1.103 0-2-.897-2-2 0-.662.933-2.473 2-4.179 1.067 1.705 2 3.517 2 4.179 0 1.103-.897 2-2 2zm11-5h-2a1 1 0 0 0-.949.684l-2.488 7.465-.856-.856a1 1 0 0 0-1.414 0l-2 2c-.283.283-.37.707-.222 1.079l1.495 3.737a.993.993 0 0 0-.566.892v3a1 1 0 0 0 1 1h7a1 1 0 0 0 1-1v-3a.985.985 0 0 0-.469-.826l1.363-2.726c.069-.138.105-.292.105-.447V6a.998.998 0 0 0-.999-1zm-7 9.414l1.293 1.293a.999.999 0 0 0 1.656-.39L21.72 7h.279v8.764L20.381 19h-3.705l-1.504-3.759.827-.827zm5 7.586h-5v-1h5v1zM8.706 12.293a1 1 0 0 0-1.414 0l-.856.856-2.488-7.465A1 1 0 0 0 2.999 5h-2a1 1 0 0 0-1 1v10c0 .155.036.309.105.447l1.363 2.726A.99.99 0 0 0 .999 20v3a1 1 0 0 0 1 1h7a1 1 0 0 0 1-1v-3a.997.997 0 0 0-.566-.892l1.495-3.737a1.002 1.002 0 0 0-.222-1.079l-2-1.999zM1.999 7h.279l2.772 8.316a1 1 0 0 0 1.656.39l1.293-1.293.827.827L7.322 19H3.617l-1.618-3.236V7zm6 15h-5v-1h5v1z" fill="#757575"/></svg>