<svg xmlns="http://www.w3.org/2000/svg" width="24" height="24"><path fill="none" d="M0 0h24v24H0z"/><path fill="#757575" d="M19 13.546c-1.561 0-2.901.907-3.56 2.215l-2.099-3.226c1.65-2.645 3.747-6.051 6.497-10.444L18.162 1 12 10.472 5.838 1 4.162 2.091c2.75 4.393 4.847 7.799 6.497 10.444L8.56 15.761c-.659-1.308-1.999-2.215-3.56-2.215-2.206 0-4 1.794-4 4 0 2.205 1.794 4 4 4 2.213 0 3.125-.769 7-6.878 3.875 6.109 4.787 6.878 7 6.878 2.206 0 4-1.795 4-4 0-2.206-1.794-4-4-4zM6.414 18.96c-.378.378-.88.586-1.414.586-1.103 0-2-.898-2-2 0-1.103.897-2 2-2a2.002 2.002 0 0 1 1.414 3.414zM19 19.546a1.986 1.986 0 0 1-1.414-.586A2.002 2.002 0 0 1 19 15.546c1.103 0 2 .897 2 2 0 1.102-.897 2-2 2z"/></svg>