<svg xmlns="http://www.w3.org/2000/svg" width="24" height="24"><path fill="none" d="M0 0h24v24H0z"/><path d="M18 15V4c0-2.626-4.527-4-9-4S0 1.374 0 4v12c0 2.626 4.527 4 9 4 2.161 0 4.33-.323 6-.952v-2.169C13.885 17.44 11.856 18 9 18c-4.547 0-7-1.418-7-2v-1.4c1.736.922 4.374 1.4 7 1.4s5.264-.478 7-1.4v.4h2zM9 2c4.547 0 7 1.419 7 2 0 .582-2.453 2-7 2S2 4.582 2 4c0-.581 2.453-2 7-2zM2 6.6C3.736 7.522 6.374 8 9 8s5.264-.478 7-1.4V8c0 .582-2.453 2-7 2S2 8.582 2 8V6.6zM2 12v-1.4c1.736.922 4.374 1.4 7 1.4s5.264-.478 7-1.4V12c0 .582-2.453 2-7 2s-7-1.418-7-2zm21.707 5.707l-1.414-1.414L20 18.586l-2.293-2.293-1.414 1.414L18.586 20l-2.293 2.293 1.414 1.414L20 21.414l2.293 2.293 1.414-1.414L21.414 20z" fill="#757575"/></svg>