<svg xmlns="http://www.w3.org/2000/svg" width="24" height="24"><path fill="none" d="M0 0h24v24H0z"/><path fill="#757575" d="M14 17.286c-1.176.396-2.851.714-5 .714-4.547 0-7-1.418-7-2v-1.4c1.736.922 4.374 1.4 7 1.4s5.264-.478 7-1.4V16h2V4c0-2.626-4.527-4-9-4S0 1.374 0 4v12c0 2.626 4.527 4 9 4 1.751 0 3.507-.214 5-.628v-2.086zM9 2c4.547 0 7 1.419 7 2 0 .582-2.453 2-7 2S2 4.582 2 4c0-.581 2.453-2 7-2zM2 6.6C3.736 7.522 6.374 8 9 8s5.264-.478 7-1.4V8c0 .582-2.453 2-7 2S2 8.582 2 8V6.6zm0 4c1.736.922 4.374 1.4 7 1.4s5.264-.478 7-1.4V12c0 .582-2.453 2-7 2s-7-1.418-7-2v-1.4zM17 19h6v2h-6z"/></svg>