<svg xmlns="http://www.w3.org/2000/svg" width="24" height="24"><path fill="none" d="M0 0h24v24H0z"/><g fill="#757575"><path d="M11 17.898c-.615.063-1.278.102-2 .102-4.547 0-7-1.418-7-2v-1.4c1.736.922 4.374 1.4 7 1.4.671 0 1.343-.031 2-.093v-2.008A19.84 19.84 0 0 1 9 14c-4.547 0-7-1.418-7-2v-1.4c1.736.922 4.374 1.4 7 1.4 1.375 0 2.75-.134 4-.392V9.569c-1.066.254-2.4.431-4 .431-4.547 0-7-1.418-7-2V6.6C3.736 7.522 6.374 8 9 8s5.264-.478 7-1.4V9h2V4c0-2.626-4.527-4-9-4S0 1.374 0 4v12c0 2.626 4.527 4 9 4 .671 0 1.342-.035 2-.096v-2.006zM9 2c4.547 0 7 1.419 7 2 0 .582-2.453 2-7 2S2 4.582 2 4c0-.581 2.453-2 7-2z"/><path d="M18 13c1.103 0 2 .897 2 2h2c0-2.206-1.794-4-4-4s-4 1.794-4 4h2c0-1.103.897-2 2-2zm6 5v-2H12v2h2v1h-2v2h2c0 .334.167.646.445.832l3 2a1 1 0 0 0 1.11 0l3-2c.278-.186.445-.498.445-.832h2v-2h-2v-1h2zm-4 2.465l-2 1.333-2-1.333V18h4v2.465z"/></g></svg>