<svg xmlns="http://www.w3.org/2000/svg" width="24" height="24"><path fill="none" d="M0 0h24v24H0z"/><g fill="#757575"><path d="M20 2H4c-1.103 0-2 .897-2 2v10c0 1.103.897 2 2 2h7v4H6v2h12v-2h-5v-4h7c1.103 0 2-.897 2-2V4c0-1.103-.897-2-2-2zm0 2l-.001 4H4V4h16zM4 14v-4h15.998l-.001 4H4z"/><path d="M5 5h5v2H5zm0 6h5v2H5z"/><circle cx="20" cy="21" r="1"/><circle cx="4" cy="21" r="1"/><circle cx="15" cy="6" r="1"/><circle cx="18" cy="6" r="1"/><circle cx="15" cy="12" r="1"/><circle cx="18" cy="12" r="1"/></g></svg>