<svg xmlns="http://www.w3.org/2000/svg" width="24" height="24"><path fill="none" d="M0 0h24v24H0z"/><path fill="#757575" d="M12 2C7.527 2 3 3.374 3 6v12c0 2.626 4.527 4 9 4s9-1.374 9-4V6c0-2.626-4.527-4-9-4zm0 2c4.547 0 7 1.419 7 2 0 .582-2.453 2-7 2S5 6.582 5 6c0-.581 2.453-2 7-2zm0 16c-4.547 0-7-1.418-7-2v-1.4c1.736.922 4.374 1.4 7 1.4s5.264-.478 7-1.4V18c0 .582-2.453 2-7 2zm0-4c-4.547 0-7-1.418-7-2v-1.4c1.736.922 4.374 1.4 7 1.4s5.264-.478 7-1.4V14c0 .582-2.453 2-7 2zm0-4c-4.547 0-7-1.418-7-2V8.6c1.736.922 4.374 1.4 7 1.4s5.264-.478 7-1.4V10c0 .582-2.453 2-7 2z"/></svg>