<svg xmlns="http://www.w3.org/2000/svg" width="24" height="24"><path fill="none" d="M0 0h24v24H0z"/><path d="M19 9c1.654 0 3-1.346 3-3s-1.346-3-3-3a2.993 2.993 0 0 0-2.815 2H2v2h14.185A2.993 2.993 0 0 0 19 9zm0-4a1.001 1.001 0 0 1 0 2 1.001 1.001 0 0 1 0-2zM9 9a2.993 2.993 0 0 0-2.815 2H2v2h4.185c.414 1.162 1.513 2 2.815 2s2.401-.838 2.815-2H22v-2H11.815A2.993 2.993 0 0 0 9 9zm0 4a1.001 1.001 0 0 1 0-2 1.001 1.001 0 0 1 0 2zm10 2a2.993 2.993 0 0 0-2.815 2H2v2h14.185A2.994 2.994 0 0 0 19 21c1.654 0 3-1.346 3-3s-1.346-3-3-3zm0 4a1.001 1.001 0 0 1 0-2 1.001 1.001 0 0 1 0 2z" fill="#757575"/></svg>