<svg xmlns="http://www.w3.org/2000/svg" width="24" height="24"><path fill="none" d="M0 0h24v24H0z"/><path fill="#757575" d="M18.01 24h-12v-2c0-2.85 2.58-5 6.001-5 3.42 0 5.999 2.15 5.999 5v2zm-10-2h8c0-1.738-1.682-3-3.999-3-2.319 0-4.001 1.262-4.001 3zm.467-6.32c-1.374-1.765-1.27-4.314.351-5.936a4.466 4.466 0 0 1 3.182-1.318c1.202 0 2.333.468 3.183 1.318 1.62 1.621 1.724 4.17.351 5.935.646.265 1.238.6 1.767 1 1.796-2.536 1.566-6.078-.704-8.349a6.457 6.457 0 0 0-4.597-1.904A6.455 6.455 0 0 0 7.414 8.33c-2.27 2.271-2.5 5.813-.704 8.349a7.815 7.815 0 0 1 1.767-.999z"/><path fill="#757575" d="M5.581 17.745c-2.311-3.13-2.059-7.57.773-10.402 3.119-3.119 8.194-3.119 11.313 0 2.832 2.833 3.083 7.273.772 10.402a6.565 6.565 0 0 1 1.099 1.819c3.424-3.923 3.279-9.899-.458-13.637-3.898-3.898-10.243-3.898-14.142 0-3.736 3.737-3.882 9.713-.458 13.636a6.576 6.576 0 0 1 1.101-1.818z"/><path fill="#757575" d="M12.01 16c-1.654 0-3-1.346-3-3s1.346-3 3-3 3 1.346 3 3-1.346 3-3 3zm0-4c-.551 0-1 .449-1 1 0 .551.449 1 1 1s1-.449 1-1c0-.551-.449-1-1-1z"/></svg>