<svg xmlns="http://www.w3.org/2000/svg" width="24" height="24"><path fill="none" d="M0 0h24v24H0z"/><path d="M21.707 13.606l-4.95-4.949 1.731-1.731c.164.043.334.074.512.074a2 2 0 1 0-2-2c0 .178.031.348.074.512l-1.731 1.731-4.95-4.95a.999.999 0 0 0-1.414 0 8.942 8.942 0 0 0-2.637 6.364 8.94 8.94 0 0 0 2.637 6.363c1.7 1.7 3.96 2.637 6.364 2.637s4.664-.937 6.364-2.637a.997.997 0 0 0 0-1.414zm-6.364 2.051a6.957 6.957 0 0 1-4.95-2.051 6.955 6.955 0 0 1-2.051-4.949c0-1.533.489-2.989 1.394-4.193l9.801 9.799a6.949 6.949 0 0 1-4.194 1.394zm-8.636-1.364a1.004 1.004 0 0 0-.867-.28c-.317.052-.59.253-.734.54l-3 6A1.001 1.001 0 0 0 3 22h9a1 1 0 0 0 .707-1.707l-6-6zM4.618 20l1.656-3.313L9.586 20H4.618z" fill="#757575"/></svg>