<svg xmlns="http://www.w3.org/2000/svg" width="24" height="24.002"><path fill="none" d="M0 0h24v24.002H0z"/><path d="M21.999 6c0-1.655-1.346-3-3-3s-3 1.345-3 3c0 1.654 1.346 3 3 3s3-1.346 3-3zm-3 1c-.551 0-1-.449-1-1 0-.551.449-1 1-1s1 .449 1 1c0 .551-.449 1-1 1zm0 2c-2.757 0-5 2.243-5 5v2c0 .551.448 1 1 1h1v4c0 .551.448 1 1 1h4c.552 0 1-.449 1-1v-4h1c.552 0 1-.449 1-1v-2c0-2.757-2.243-5-5-5zm3 6h-1a1 1 0 0 0-1 1v4h-2v-4a1 1 0 0 0-1-1h-1v-1c0-1.655 1.346-3 3-3s3 1.345 3 3v1zm-11-13h2v20h-2zm-3 4c0-1.655-1.346-3-3-3s-3 1.345-3 3c0 1.654 1.346 3 3 3s3-1.346 3-3zm-3 1c-.551 0-1-.449-1-1 0-.551.449-1 1-1s1 .449 1 1c0 .551-.449 1-1 1zm3.455 4.801C8.125 10.178 6.671 9 4.999 9s-3.125 1.178-3.442 2.746c-.652 2.482-.342 1.267-1.528 6.011A1.003 1.003 0 0 0 .978 19s.745.015 1.332.018c.191.573.478 1.465.736 2.283.13.416.517.699.953.699h2a1 1 0 0 0 .954-.699c.258-.818.545-1.71.736-2.283.587-.003 1.332-.018 1.332-.018a1 1 0 0 0 .948-1.244c-1.129-4.516-.919-3.705-1.515-5.955zM6.998 17c-.734 0-.784 0-1.732 3h-.534c-.911-2.881-.994-3-1.652-3-.078 0-.576.019-.806.018l.243-.972c.453-1.816.453-1.816.721-2.832l.265-1.015c.14-.684.783-1.199 1.496-1.199s1.356.515 1.507 1.254l.252.96c.268 1.016.268 1.016.721 2.832l.243.972c-.228.002-.666-.018-.724-.018z" fill="#757575"/></svg>