<svg xmlns="http://www.w3.org/2000/svg" width="24" height="24.002"><path fill="none" d="M0 0h24v24.002H0z"/><g fill="#757575"><path d="M5.999 4.414V8h2V4.414l1.293 1.293 1.414-1.415L6.999.586 3.292 4.292l1.414 1.415zm14.707.293l-1.414-1.415-1.293 1.294V1h-2v3.586l-1.293-1.294-1.414 1.415 3.707 3.707zM10.999 15c0-1.655-1.346-3-3-3s-3 1.345-3 3c0 1.654 1.346 3 3 3s3-1.346 3-3zm-3 1c-.551 0-1-.449-1-1 0-.551.449-1 1-1s1 .449 1 1c0 .551-.449 1-1 1zm-3 5h2c0-.551.449-1 1-1s1 .449 1 1h2c0-1.655-1.346-3-3-3s-3 1.345-3 3zm14-6c0-1.655-1.346-3-3-3s-3 1.345-3 3c0 1.654 1.346 3 3 3s3-1.346 3-3zm-3 1c-.551 0-1-.449-1-1 0-.551.449-1 1-1s1 .449 1 1c0 .551-.449 1-1 1zm-3 5h2c0-.551.449-1 1-1s1 .449 1 1h2c0-1.655-1.346-3-3-3s-3 1.345-3 3z"/><path d="M21.999 9h-20a1 1 0 0 0-1 1v13c0 .551.448 1 1 1h20c.552 0 1-.449 1-1V10a1 1 0 0 0-1-1zm-1 13h-18V11h18v11z"/></g></svg>