<svg xmlns="http://www.w3.org/2000/svg" width="24" height="24"><path fill="none" d="M0 0h24v24H0z"/><path fill="#757575" d="M22 13c0-5.467-4.472-10.003-9.992-10.003C6.568 2.997 2 7.415 2 13c0 5.476 4.486 10 9.991 10h.008C17.342 23 22 18.642 22 13zm-10.375 7.975c3.289-1.557 5.667-4.24 6.801-6.997.46.364.872.783 1.254 1.229a7.973 7.973 0 0 1-8.055 5.768zM7.088 19.3c4-.737 6.941-3.469 8.179-6.951.939.276 1.246.442 1.876.791-1.18 3.156-4.212 6.172-8.186 7.248A7.78 7.78 0 0 1 7.088 19.3zM5.121 8.938a13.645 13.645 0 0 0 2.816 8.609 9.267 9.267 0 0 1-2.199.415c-2.123-2.691-2.245-6.305-.617-9.024zM8.8 5.673c-1.243 3.821-.276 7.625 2.066 10.338a7.817 7.817 0 0 1-1.491.952c-2.186-2.67-3.259-6.257-2.531-10.067A7.946 7.946 0 0 1 8.8 5.673zm9.982 3.103c-2.926-1.49-5.984-1.835-8.898-1.262a9.225 9.225 0 0 1 .73-2.383c3.379-.577 6.504.972 8.168 3.645zm-8.85 2.051a9.247 9.247 0 0 1-.177-1.742 12.158 12.158 0 0 1 10.015 2.04c.173.72.248 1.446.212 2.238-2.872-2.668-6.652-3.438-10.05-2.536zm2.033 4.165a9.203 9.203 0 0 1-1.612-2.723 9.168 9.168 0 0 1 3.435-.235 9.168 9.168 0 0 1-1.823 2.958z"/></svg>