<svg xmlns="http://www.w3.org/2000/svg" width="24" height="24.002"><path fill="none" d="M0 0h24v24.002H0z"/><g fill="#757575"><path d="M14.999 10a6.944 6.944 0 0 0-4.052 1.303c-.539-1.215-.948-2.032-.948-3.303V4c0-1.654-1.346-3-3-3s-3 1.346-3 3v4c0 1.179-.355 1.972-.805 2.976-.56 1.25-1.195 2.667-1.195 5.024 0 4.309 2.199 8 4 8h2c.988 0 1.795-.929 2.338-1.793A6.966 6.966 0 0 0 14.999 24c3.86 0 7-3.14 7-7s-3.141-7-7-7zm-9-6c0-.551.449-1 1-1s1 .449 1 1v3h-2V4zm1.912 18H6.083c-.533-.298-2.085-2.557-2.085-6 0-1.93.496-3.035 1.02-4.206.376-.838.76-1.696.913-2.794h2.136c.152 1.098.537 1.957.912 2.794.146.325.29.665.426 1.016a6.942 6.942 0 0 0-.427 7.742c-.478.953-.916 1.355-1.067 1.448zm7.088 0c-2.757 0-5-2.243-5-5s2.243-5 5-5 5 2.243 5 5-2.244 5-5 5z"/><circle cx="14.999" cy="17" r="1"/><circle cx="16.999" cy="15" r="1"/><circle cx="12.999" cy="15" r="1"/></g></svg>