<svg xmlns="http://www.w3.org/2000/svg" width="24" height="24.001"><path fill="none" d="M0 0h24v24.001H0z"/><g fill="#757575"><path d="M12.999 8V5a1 1 0 0 0-1-1h-6c-.334 0-.646.167-.832.445l-2 3A.998.998 0 0 0 3.999 9h1v1.586l-2.707 2.707a.997.997 0 0 0-.293.707v7a1 1 0 0 0 1 1h9a1 1 0 0 0 1-1v-7a.997.997 0 0 0-.293-.707l-2.707-2.707V9h1v1c0 .266.105.52.293.707l3 3 1.414-1.414-2.707-2.707V8zM6.534 6h4.465v1H5.868l.666-1zm1.758 5.707l2.707 2.708V20h-7v-5.586l2.707-2.708A.992.992 0 0 0 6.999 11V9h1v2c0 .266.105.52.293.707z"/><circle cx="14.999" cy="6" r="1"/><circle cx="16.999" cy="4" r="1"/><circle cx="19.999" cy="2" r="1"/><circle cx="19.999" cy="6" r="1"/><circle cx="19.999" cy="10" r="1"/><circle cx="16.999" cy="8" r="1"/></g></svg>