<svg xmlns="http://www.w3.org/2000/svg" width="24" height="24"><path fill="none" d="M0 0h24v24H0z"/><path fill="#757575" d="M20 15.002c-.082 0-.16.015-.24.024L16.551 9.25c.277-.343.449-.773.449-1.248a2 2 0 0 0-2-2c-.589 0-1.113.259-1.479.664L5.993 3.928A1.997 1.997 0 0 0 2 4.002a2 2 0 0 0 2 2c.589 0 1.113-.259 1.479-.664l7.529 2.738c.006.162.034.317.076.467l-6.087 4.735A1.981 1.981 0 0 0 6 13.002a2 2 0 1 0 .781 3.842l2.377 2.377A2 2 0 0 0 11 22.002c1.061 0 1.92-.828 1.987-1.872l5.5-1.833c.367.428.905.705 1.513.705a2 2 0 0 0 0-4zm-9 3a2.01 2.01 0 0 0-.781.158l-2.377-2.377A2.01 2.01 0 0 0 8 15.002c0-.188-.034-.367-.083-.541l6.087-4.734c.294.17.632.275.996.275.082 0 .16-.015.24-.024l3.209 5.776a1.977 1.977 0 0 0-.436 1.12l-5.5 1.833A1.988 1.988 0 0 0 11 18.002z"/></svg>