<svg xmlns="http://www.w3.org/2000/svg" width="24" height="24"><path fill="none" d="M0 0h24v24H0z"/><g fill="#757575"><path d="M19.573 16.058l-1.742-2.613a1 1 0 0 0-.832-.445h-.323l-.4-1h3.723v1h2V9h-2v1h-4.523l-.548-1.372A1.002 1.002 0 0 0 13.999 8h-5c-.409 0-.776.249-.929.628L6.322 13h-.323a1 1 0 0 0-.949.684l-.797 2.392A4 4 0 0 0 .999 20c0 2.205 1.794 4 4 4h14c2.206 0 4-1.795 4-4 0-2.01-1.494-3.661-3.426-3.942zM17.13 16H6.386l.333-1h9.744l.667 1zm-7.454-6h3.646l1.2 3H8.476l1.2-3zm9.323 12h-14c-1.103 0-2-.898-2-2 0-1.104.897-2 2-2h14c1.103 0 2 .896 2 2 0 1.102-.897 2-2 2z"/><circle cx="6.999" cy="20" r="1.25"/><circle cx="11.999" cy="20" r="1.25"/><circle cx="16.999" cy="20" r="1.25"/></g></svg>