<svg xmlns="http://www.w3.org/2000/svg" width="24" height="24.001"><path fill="none" d="M0 0h24v24.001H0z"/><path fill="#757575" d="M21.949 19.685l-1-3a1 1 0 0 0-.949-.684h-1v-7h1a1 1 0 0 0 1-1v-2c0-.417-.259-.79-.649-.937l-8-3a.998.998 0 0 0-.702 0l-8 3c-.39.147-.649.521-.649.937v2a1 1 0 0 0 1 1h1v7H4a1 1 0 0 0-.949.684l-1 3A1.001 1.001 0 0 0 3 21.001h18a1 1 0 0 0 .949-1.316zM17 16.001h-2v-7h2v7zm-4-7v7h-2v-7h2zM5 6.695l7-2.625 7 2.625v.306H5v-.306zm2 2.306h2v7H7v-7zm-2.612 10l.333-1H19.28l.333 1H4.388z"/></svg>