<svg xmlns="http://www.w3.org/2000/svg" width="24.001" height="24.001"><path fill="none" d="M0 0h24.001v24.001H0z"/><g fill="#757575"><path d="M20.287 14.128l1.42-1.421a.998.998 0 0 0 0-1.413l-1.42-1.42 1.545-2.319A.998.998 0 0 0 21 6h-7.189C13.16 4.258 10.843 3 8 3 4.636 3 2 4.757 2 7v10c0 2.243 2.636 4 6 4 2.843 0 5.16-1.257 5.811-3H21a1 1 0 0 0 .832-1.554l-1.545-2.318zM8 5c2.29 0 4 1.056 4 2s-1.71 2-4 2-4-1.055-4-2 1.71-2 4-2zm0 14c-2.29 0-4-1.056-4-2v-7c1.055.623 2.448 1 4 1s2.945-.377 4-1v7c0 .945-1.71 2-4 2zm10.168-4.445L19.131 16H14V8h5.131l-.963 1.445a.998.998 0 0 0 .125 1.261L19.586 12l-1.293 1.293a1 1 0 0 0-.125 1.262z"/><circle cx="8" cy="7" r="1"/></g></svg>