<svg xmlns="http://www.w3.org/2000/svg" width="24" height="24"><path fill="none" d="M0 0h24v24H0z"/><g fill="#757575"><path d="M18.001 8.002h-4.766l-1.333-2 1.333-2h1.766v-2h-6v2h2.432l-1.333 2 1.333 2H6.001v2h12zm3 10v-6a1 1 0 0 0-1-1h-17a1 1 0 0 0-1 1v6a1 1 0 0 0 1 1h1.185a2.962 2.962 0 0 0-.185 1c0 .771.301 1.468.78 2h-2.78v2h19v-2h-2.78a2.98 2.98 0 0 0 .78-2c0-.353-.072-.686-.185-1h1.185a1 1 0 0 0 1-1zm-13 2c0 .551-.449 1-1 1s-1-.449-1-1c0-.551.449-1 1-1s1 .449 1 1zm1.22 2a2.98 2.98 0 0 0 .78-2c0-.353-.072-.686-.185-1h3.369a2.962 2.962 0 0 0-.185 1c0 .771.301 1.468.78 2H9.221zm7.78-2c0 .551-.449 1-1 1s-1-.449-1-1c0-.551.449-1 1-1s1 .449 1 1zm2-3h-15v-4h15v4z"/><path d="M7.001 14.002h3v2h-3zm6 0h3v2h-3z"/></g></svg>