<svg xmlns="http://www.w3.org/2000/svg" width="24" height="24.001"><g fill="none"><path d="M0 0h24v24.001H0z"/><path d="M0 0h24v24.001H0z"/></g><path d="M6 2.001a3.231 3.231 0 0 0-3.214 2.878L1.007 20.89a.997.997 0 0 0 .422.931.998.998 0 0 0 1.019.075L6 20.119l3.553 1.777a.999.999 0 0 0 1.441-1.006L9.215 4.879A3.233 3.233 0 0 0 6 2.001zm-1 3c0-.551.449-1 1-1s1 .449 1 1v3a1.001 1.001 0 0 1-2 0v-3zm1.448 13.105a1 1 0 0 0-.895 0l-2.356 1.179.99-8.91c.506.387 1.129.626 1.813.626s1.308-.239 1.813-.625l.99 8.91-2.355-1.18zM22.572 2.182a.998.998 0 0 0-1.019-.075L18 3.883l-3.553-1.776a.998.998 0 0 0-1.441 1.005l1.779 16.013c.183 1.64 1.564 2.877 3.214 2.877s3.032-1.237 3.214-2.877l1.779-16.013a.99.99 0 0 0-.42-.93zm-5.019 3.714c.281.14.613.14.895 0l2.356-1.178-.99 8.909c-.505-.387-1.129-.626-1.813-.626s-1.308.239-1.813.626l-.99-8.909 2.355 1.178zM17 19.001v-3c0-.551.449-1 1-1s1 .449 1 1v3a1.001 1.001 0 0 1-2 0z" fill="#757575"/></svg>