<svg xmlns="http://www.w3.org/2000/svg" width="24" height="24.001"><g fill="none"><path d="M0 0h24v24.001H0z"/><path d="M0 0h24v24.001H0z"/></g><path fill="#757575" d="M22 18c-2.708 0-5.057.239-7.077.599l-1.424-4.613c.708-1.07 1.739-1.87 2.973-2.244a5.544 5.544 0 0 1 4.081.356 1 1 0 0 0 1.053-.097c.506-.385.432-.845.275-1.377-1.463-4.818-6.269-7.92-11.495-6.887l-.312-1.027a1 1 0 1 0-1.914.581l.305 1.006c-5.313 2.208-7.302 8.329-5.596 12.507a1 1 0 0 0 1.794.115 5.506 5.506 0 0 1 3.196-2.563c1.228-.373 2.551-.275 3.728.22l1.37 4.436C7.062 20.435 5.139 22.409 3.149 24H23v-6h-1zM7.278 12.441a7.467 7.467 0 0 0-2.946 1.699c-.282-3.658 2.002-7.16 5.655-8.269 3.685-1.12 7.484.563 9.287 3.733a7.46 7.46 0 0 0-3.384.224 7.484 7.484 0 0 0-3.871 2.743 7.525 7.525 0 0 0-4.741-.13zM21 22H10.086c2.367-.919 5.976-1.874 10.914-1.989V22z"/></svg>