<svg xmlns="http://www.w3.org/2000/svg" width="24.001" height="24.001"><path fill="none" d="M0 0h24.001v24.001H0z"/><g fill="#757575"><path d="M20.001 12h-16c-.552 0-1 .449-1 1v8a1 1 0 0 0 1 1h16a1 1 0 0 0 1-1v-8c0-.551-.448-1-1-1zm-12 2h8v3h-8v-3zm11 6h-14v-6h1v4a1 1 0 0 0 1 1h10a1 1 0 0 0 1-1v-4h1v6zm-8-18h2v3h-2zM4.708 3.294l2 2-1.414 1.413-2-2zm14.586 0l1.414 1.413-1.999 2-1.414-1.413zM4.001 11.002h2c0-.551.449-1 1-1 .296 0 .516.136.647.25a.998.998 0 0 0 1.578-.38C9.689 8.737 10.778 8.003 12 8.003s2.311.734 2.774 1.869a1 1 0 0 0 1.578.38.994.994 0 0 1 .647-.25c.551 0 1 .449 1 1h2c0-1.654-1.346-3-3-3-.307 0-.61.049-.9.141-.921-1.327-2.436-2.141-4.1-2.141s-3.179.814-4.1 2.141a2.975 2.975 0 0 0-.9-.141 3.003 3.003 0 0 0-2.998 3z"/><circle cx="12.001" cy="15.5" r="1"/></g></svg>