<svg xmlns="http://www.w3.org/2000/svg" width="24.001" height="24.001"><path fill="none" d="M0 0h24.001v24.001H0z"/><path d="M20.999 7.999h-18a1 1 0 0 0-1 1v6a1 1 0 0 0 1 1c4.29 0 6.036 3.311 6.105 3.447a1 1 0 0 0 .895.553h4c.379 0 .725-.214.895-.553.017-.034 1.773-3.447 6.105-3.447a1 1 0 0 0 1-1v-6a1 1 0 0 0-1-1zm-6 5c0 1.243-1.012 3.673-1.63 5h-2.741c-.718-1.535-1.629-3.861-1.629-5 0-1.877.924-2.732 1.292-3h3.414c.378.276 1.294 1.132 1.294 3zm-11 1.049V9.999h3.724c-.408.738-.724 1.719-.724 3 0 .601.147 1.329.36 2.078a8.763 8.763 0 0 0-3.36-1.029zm16 0a8.769 8.769 0 0 0-3.36 1.029c.213-.749.36-1.477.36-2.078 0-1.281-.316-2.262-.724-3h3.724v4.049zm-18-9.049h20v2h-20z" fill="#757575"/></svg>