<svg xmlns="http://www.w3.org/2000/svg" width="24.001" height="24.001"><path fill="none" d="M0 0h24.001v24.001H0z"/><path fill="#757575" d="M17.999 15.999c0-.663.347-1.165.785-1.799.542-.783 1.215-1.757 1.215-3.201 0-1.243-1.003-3.328-3-3.867V1.999h-2v5.706c-.276.378-1.132 1.294-3 1.294-1.877 0-2.732-.924-3-1.292V1.999h-2v5.133c-1.997.539-3 2.624-3 3.867 0 1.444.673 2.418 1.215 3.201.438.634.785 1.136.785 1.799 0 .188-.107.481-.243.853-.301.824-.757 2.068-.757 4.147a1 1 0 0 0 1 1h12a1 1 0 0 0 1-1c0-2.079-.456-3.323-.757-4.147-.136-.372-.243-.664-.243-.853zm-.86-2.936c-.534.773-1.14 1.649-1.14 2.937 0 .544.177 1.027.365 1.54.223.609.489 1.336.592 2.46H7.042c.103-1.124.369-1.851.592-2.46.188-.513.365-.996.365-1.54 0-1.287-.606-2.164-1.14-2.937-.48-.694-.86-1.243-.86-2.063 0-.423.464-1.646 1.524-1.938C8.146 9.819 9.515 11 11.999 11s3.853-1.181 4.476-1.938c1.06.291 1.524 1.515 1.524 1.938 0 .819-.379 1.368-.86 2.063z"/></svg>