<svg xmlns="http://www.w3.org/2000/svg" width="24" height="24"><path fill="none" d="M0 0h24v24H0z"/><g fill="#757575"><path d="M21.656 20.293l-5.363-5.363A7.933 7.933 0 0 0 18 10a7.945 7.945 0 0 0-2.344-5.656C14.146 2.833 12.137 2 10 2s-4.146.833-5.656 2.343C2.833 5.854 2 7.863 2 10s.833 4.146 2.344 5.656A7.94 7.94 0 0 0 10 18c1.787 0 3.48-.589 4.872-1.664l5.371 5.37 1.413-1.413zM5.758 14.242A5.954 5.954 0 0 1 4 10c0-1.604.624-3.109 1.758-4.242C6.891 4.624 8.397 4 10 4s3.109.624 4.242 1.759A5.95 5.95 0 0 1 16 10c0 1.603-.624 3.11-1.758 4.243C13.109 15.376 11.603 16 10 16s-3.109-.624-4.242-1.758z"/><path d="M6.949 14c0-1.841 1.159-3 3-3s3 1.159 3 3h-6z"/><circle cx="9.949" cy="8" r="2"/></g></svg>