<svg xmlns="http://www.w3.org/2000/svg" width="24" height="24"><path fill="none" d="M0 0h24v24H0z"/><path fill="#757575" d="M15 22H5a1 1 0 0 1-1-1V10c0-4.411 3.589-8 8-8 6.498 0 7.546 4.586 8.56 9.02.131.571.264 1.153.41 1.738A1 1 0 0 1 20 14h-1v3c0 1.103-.897 2-2 2h-1v2a1 1 0 0 1-1 1zm-9-2h8v-2a1 1 0 0 1 1-1h2v-4a1 1 0 0 1 1-1h.733l-.123-.535C17.489 6.56 16.685 4 12 4c-3.309 0-6 2.691-6 6v10z"/><path fill="#757575" d="M12 13.988s4-2.908 4-5.064c0-2.047-3.111-2.936-4-.248-.889-2.688-4-1.8-4 .248 0 2.156 4 5.064 4 5.064z"/></svg>