<svg xmlns="http://www.w3.org/2000/svg" width="24" height="24"><path fill="none" d="M0 0h24v24H0z"/><path fill="#757575" d="M15 16a1 1 0 0 1-1-1v-2h-1v-2h2a1 1 0 0 1 1 1v1l2.4-1.8a1 1 0 0 1 .6-.2h3V4H12v3h-2V4c0-1.104.897-2 2-2h10c1.103 0 2 .896 2 2v7c0 1.103-.897 2-2 2h-2.667L15.6 15.8c-.177.132-.388.2-.6.2z"/><path fill="#757575" d="M8 16c-2.206 0-4-1.794-4-4s1.794-4 4-4 4 1.794 4 4-1.794 4-4 4zm0-6c-1.103 0-2 .896-2 2 0 1.103.897 2 2 2s2-.897 2-2c0-1.104-.897-2-2-2zm8 14H0v-1c0-3.533 3.29-6 8-6s8 2.467 8 6v1zM2.159 22h11.683c-.598-1.808-2.833-3-5.841-3s-5.244 1.192-5.842 3z"/></svg>