<svg xmlns="http://www.w3.org/2000/svg" width="24" height="24"><path fill="none" d="M0 0h24v24H0z"/><path fill="#757575" d="M12 9c-1.654 0-3-1.346-3-3s1.346-3 3-3 3 1.346 3 3-1.346 3-3 3zm0-4c-.551 0-1 .449-1 1 0 .551.449 1 1 1s1-.449 1-1c0-.551-.449-1-1-1zm1 17h-2a1 1 0 0 1-.954-.699c-.258-.818-.544-1.709-.736-2.283C8.723 19.016 7.979 19 7.979 19a1 1 0 0 1-.948-1.243l1.528-6.011C8.875 10.179 10.328 9 12 9s3.125 1.179 3.455 2.801l1.516 5.956A1.003 1.003 0 0 1 16.023 19s-.744.016-1.331.018c-.192.573-.479 1.465-.737 2.283A1.002 1.002 0 0 1 13 22zm-1.267-2h.534c.949-3 .998-3 1.732-3 .059 0 .116.005.173.015.113.005.323.005.552.003l-.243-.972c-.453-1.816-.453-1.816-.721-2.832l-.252-.96C13.356 11.516 12.713 11 12 11s-1.356.516-1.495 1.199l-.265 1.015c-.268 1.016-.268 1.016-.721 2.832l-.243.972c.231.001.441.001.554-.003.083-.015.175-.015.252-.015.657 0 .741.12 1.651 3z"/></svg>