<svg xmlns="http://www.w3.org/2000/svg" width="24" height="24"><path fill="none" d="M0 0h24v24H0z"/><path fill="#757575" d="M20 16.184V7.816A2.995 2.995 0 0 0 22 5c0-1.654-1.346-3-3-3a2.996 2.996 0 0 0-2.816 2H7.815A2.993 2.993 0 0 0 5 2C3.346 2 2 3.346 2 5c0 1.302.838 2.402 2 2.815v8.369A2.997 2.997 0 0 0 2 19c0 1.654 1.346 3 3 3a2.993 2.993 0 0 0 2.815-2h8.369a2.994 2.994 0 0 0 2.815 2c1.654 0 3-1.346 3-3A2.994 2.994 0 0 0 20 16.184zM19 4a1 1 0 1 1 0 2 1 1 0 0 1 0-2zM5 4a1 1 0 1 1 0 2 1 1 0 0 1 0-2zm0 16a1 1 0 1 1 0-2 1 1 0 0 1 0 2zm11.184-2H7.815A2.993 2.993 0 0 0 6 16.184V7.816A2.993 2.993 0 0 0 7.815 6h8.369A2.993 2.993 0 0 0 18 7.815v8.369A2.997 2.997 0 0 0 16.184 18zM19 20a1 1 0 1 1 0-2 1 1 0 0 1 0 2z"/></svg>