<svg xmlns="http://www.w3.org/2000/svg" width="24" height="24"><path fill="none" d="M0 0h24v24H0z"/><path fill="#757575" d="M23 9h-1.485A10.004 10.004 0 0 0 15 2.485V1a1 1 0 0 0-1-1h-4a1 1 0 0 0-1 1v1.492A10.003 10.003 0 0 0 2.485 9H1a1 1 0 0 0-1 1v4a1 1 0 0 0 1 1h1.485A10.003 10.003 0 0 0 9 21.508V23a1 1 0 0 0 1 1h4a1 1 0 0 0 1-1v-1.485A10.004 10.004 0 0 0 21.515 15H23a1 1 0 0 0 1-1v-4a1 1 0 0 0-1-1zM11 2h2v2h-2V2zm-9 9h2v2H2v-2zm11 11h-2v-2h2v2zm2-2.596V19a1 1 0 0 0-1-1h-4a1 1 0 0 0-1 1v.413A8.04 8.04 0 0 1 4.596 15H5a1 1 0 0 0 1-1v-4a1 1 0 0 0-1-1h-.404A8.04 8.04 0 0 1 9 4.587V5a1 1 0 0 0 1 1h4a1 1 0 0 0 1-1v-.404A8.024 8.024 0 0 1 19.404 9H19a1 1 0 0 0-1 1v4a1 1 0 0 0 1 1h.404A8.024 8.024 0 0 1 15 19.404zM22 13h-2v-2h2v2z"/></svg>