<svg xmlns="http://www.w3.org/2000/svg" width="24" height="24"><path fill="none" d="M0 0h24v24H0z"/><path fill="#757575" d="M20.333 16h-.813l-5.665-8.092A1.663 1.663 0 0 0 15 6.333V3.667A1.67 1.67 0 0 0 13.333 2h-2.666A1.67 1.67 0 0 0 9 3.667v2.667c0 .735.482 1.354 1.144 1.574L4.479 16h-.812A1.67 1.67 0 0 0 2 17.667v2.667C2 21.252 2.748 22 3.667 22h2.666A1.67 1.67 0 0 0 8 20.333V20h8v.333A1.67 1.67 0 0 0 17.667 22h2.666A1.67 1.67 0 0 0 22 20.333v-2.667c0-.918-.748-1.666-1.667-1.666zM11 4h2v2h-2V4zM6 20H4v-2h2v2zm2-2v-.333c0-.735-.482-1.354-1.144-1.574L12 8.744l5.144 7.349A1.662 1.662 0 0 0 16 17.667V18H8zm12 2h-2v-2h2v2z"/></svg>