<svg xmlns="http://www.w3.org/2000/svg" width="24" height="24"><path fill="none" d="M0 0h24v24H0z"/><path d="M20.526 13.15a1.003 1.003 0 0 0-.973-.044L17 14.382V14c0-1.104-.897-2-2-2H7c-1.103 0-2 .896-2 2v6c0 1.103.897 2 2 2h8c1.103 0 2-.897 2-2v-.381l2.553 1.275a.992.992 0 0 0 .973-.043c.294-.182.474-.504.474-.851v-6a1 1 0 0 0-.474-.85zM7 20v-6h8l.001 6H7zm12-1.618l-2-1v-.763l2-1v2.763zM10 7c0-2.205-1.794-4-4-4S2 4.795 2 7c0 2.206 1.794 4 4 4s4-1.794 4-4zM4 7c0-1.104.897-2 2-2s2 .896 2 2c0 1.103-.897 2-2 2s-2-.897-2-2zm11 4c2.206 0 4-1.794 4-4 0-2.205-1.794-4-4-4s-4 1.795-4 4c0 2.206 1.794 4 4 4zm0-6c1.103 0 2 .896 2 2 0 1.103-.897 2-2 2s-2-.897-2-2c0-1.104.897-2 2-2z" fill="#757575"/></svg>