<svg xmlns="http://www.w3.org/2000/svg" width="24.001" height="24.002"><path fill="none" d="M0 0h24.001v24.002H0z"/><g fill="#757575"><path d="M18.999 1h-14c-1.103 0-2 .896-2 2v18c0 1.103.897 2 2 2h11c2.757 0 5-2.243 5-5V3c0-1.104-.897-2-2-2zm-3 20h-11V3h14v15c0 1.654-1.346 3-3 3z"/><path d="M9.999 14h-2v2h-2v2h2v2h2v-2h2v-2h-2z"/><circle cx="16.999" cy="16" r="1"/><circle cx="14.999" cy="18" r="1"/><path d="M16.999 4h-10a1 1 0 0 0-1 1v7a1 1 0 0 0 1 1h10a1 1 0 0 0 1-1V5a1 1 0 0 0-1-1zm-1 7h-8V6h8v5z"/></g></svg>