<svg xmlns="http://www.w3.org/2000/svg" width="24" height="24"><path fill="none" d="M0 0h24v24H0z"/><g fill="#757575"><path d="M8.999 9h-2v4h3v-2h-1zm5 0h-2v4h3v-2h-1z"/><path d="M11.999 0c-4.962 0-9 4.038-9 9v14a1.002 1.002 0 0 0 1.707.707l3.293-3.293 3.293 3.293a.999.999 0 0 0 1.414 0l3.293-3.293 3.293 3.293A1 1 0 0 0 20.999 23V9c0-4.962-4.038-9-9-9zm7 20.586l-2.293-2.293a.999.999 0 0 0-1.414 0l-3.293 3.293-3.293-3.293a.997.997 0 0 0-1.414 0l-2.293 2.293V9c0-3.86 3.14-7 7-7s7 3.14 7 7v11.586z"/></g></svg>