<svg xmlns="http://www.w3.org/2000/svg" width="24" height="24.001"><path fill="none" d="M0 0h24v24.001H0z"/><path fill="#757575" d="M20 23.001H4a1 1 0 1 1-.625-1.781C5.608 19.432 8 16.907 8 16.001a1 1 0 0 1 1-1h6a1 1 0 0 1 1 1c0 .909 2.391 3.433 4.625 5.219A1 1 0 0 1 20 23.001zm-13.33-2h10.66c-1.242-1.178-2.603-2.679-3.117-4H9.787c-.514 1.321-1.875 2.822-3.117 4zm8.33-7h-2v-4a1 1 0 0 1 1-1h4a1.001 1.001 0 0 0 0-2h-2.551a1 1 0 0 1-.99-.857C14.283 4.922 13.226 4.001 12 4.001s-2.283.921-2.459 2.142a1 1 0 0 1-.99.858H6a1.001 1.001 0 0 0 0 2h4a1 1 0 0 1 1 1v4H9v-3H6c-1.654 0-3-1.345-3-3 0-1.654 1.346-3 3-3h1.773c.625-1.759 2.312-3 4.227-3s3.602 1.241 4.227 3H18c1.654 0 3 1.346 3 3 0 1.655-1.346 3-3 3h-3v3z"/></svg>