<svg xmlns="http://www.w3.org/2000/svg" width="24" height="24"><path fill="none" d="M0 0h24v24H0z"/><g fill="#757575"><path d="M20.879 17.41C18.299 19.09 15.27 20 12.16 20s-6.14-.91-8.72-2.59L2 18.85C4.98 20.89 8.53 22 12.16 22s7.18-1.11 10.16-3.15l-1.441-1.44z"/><path d="M12.32 18c3.309 0 6-2.691 6-6 0-3.026-4.686-8.959-5.22-9.625l-.78-.974-.78.974c-.535.666-5.22 6.599-5.22 9.625 0 3.309 2.691 6 6 6zm0-13.365c1.792 2.392 4 5.841 4 7.365 0 2.206-1.794 4-4 4s-4-1.794-4-4c0-1.522 2.208-4.972 4-7.365z"/><path d="M15.07 12h-1.5c0 .69-.561 1.25-1.25 1.25v1.5A2.753 2.753 0 0 0 15.07 12z"/></g></svg>