<svg xmlns="http://www.w3.org/2000/svg" xmlns:xlink="http://www.w3.org/1999/xlink" version="1.1" x="0px" y="0px" viewBox="0 0 100 125" enable-background="new 0 0 100 100" xml:space="preserve"><g><rect x="-192" width="185" height="99"/><rect y="-36" width="100" height="30"/><text transform="matrix(1 0 0 1 66 -19.5)" fill="#000000" font-family="'Helvetica'" font-size="2.4">http://thenounproject.com</text><text transform="matrix(1 0 0 1 7.166 -24.5)" fill="#000000" font-family="'Helvetica-Bold'" font-size="6.1578">The Noun Project</text><text transform="matrix(1 0 0 1 8.2861 -19.6992)" fill="#000000" font-family="'Helvetica-Bold'" font-size="4">Icon Template</text><text transform="matrix(1 0 0 1 -178.5 10.5)" fill="#000000" font-family="'Helvetica-Bold'" font-size="6.1578">Reminders</text><line fill="#000000" stroke="#FFFFFF" stroke-miterlimit="10" x1="8" y1="-14.5" x2="18" y2="-14.5"/><line fill="#000000" stroke="#FFFFFF" stroke-miterlimit="10" x1="-179" y1="16.5" x2="-162" y2="16.5"/><g><g><g><rect x="-170.802" y="31.318" fill="#000000" width="8.721" height="8.642"/><path fill="#000000" d="M-164.455,42.312h4.747v-4.703h-4.747V42.312z M-159.266,42.749h-5.63V37.17h5.63V42.749      L-159.266,42.749z M-166.221,44.062h8.279v-8.203h-8.279V44.062L-166.221,44.062z M-157.5,44.5h-9.163v-9.079h9.163V44.5      L-157.5,44.5z"/><polygon fill="#000000" points="-166.149,44.133 -166.292,43.991 -158.013,35.787 -157.871,35.929     "/></g></g></g><rect x="-179" y="58" fill="none" width="35" height="32.5"/><text transform="matrix(1 0 0 1 -179 60.1582)" fill="#000000" font-family="'Helvetica-Bold'" font-size="3">Strokes</text><text transform="matrix(1 0 0 1 -179 65.1582)" fill="#000000" font-family="'Helvetica'" font-size="2.4">Try to keep strokes at 4px</text><text transform="matrix(1 0 0 1 -179 70.1582)" fill="#000000" font-family="'Helvetica'" font-size="2.4">Minimum stroke weight is 2px</text><text transform="matrix(1 0 0 1 -179 74.6582)" fill="#000000" font-family="'Helvetica'" font-size="2.4">For thicker strokes use even </text><text transform="matrix(1 0 0 1 -179 77.6582)" fill="#000000" font-family="'Helvetica'" font-size="2.4">numbers: 6px, 8px etc.</text><text transform="matrix(1 0 0 1 -179 82.1582)" fill="#000000" font-family="'Helvetica-Bold'" font-size="2.4">Remember to expand strokes </text><text transform="matrix(1 0 0 1 -179 85.1582)" fill="#000000" font-family="'Helvetica-Bold'" font-size="2.4">before saving as an SVG </text><rect x="-136.5" y="58" fill="none" width="35" height="32.5"/><text transform="matrix(1 0 0 1 -136.5 60.1582)" fill="#000000" font-family="'Helvetica-Bold'" font-size="3">Size</text><text transform="matrix(1 0 0 1 -136.5 65.1582)" fill="#000000" font-family="'Helvetica'" font-size="2.4">Cannot be wider or taller than </text><text transform="matrix(1 0 0 1 -136.5 68.6582)" fill="#000000" font-family="'Helvetica'" font-size="2.4">100px (artboard size)</text><text transform="matrix(1 0 0 1 -136.5 73.6582)" fill="#000000" font-family="'Helvetica'" font-size="2.4">Scale your icon to fill as much of </text><text transform="matrix(1 0 0 1 -136.5 76.6582)" fill="#000000" font-family="'Helvetica'" font-size="2.4">the artboard as possible</text><rect x="-94" y="58" fill="none" width="35" height="32.5"/><text transform="matrix(1 0 0 1 -94 60.1582)" fill="#000000" font-family="'Helvetica-Bold'" font-size="3">Ungroup</text><text transform="matrix(1 0 0 1 -94 65.1582)" fill="#000000" font-family="'Helvetica'" font-size="2.4">If your design has more than one </text><text transform="matrix(1 0 0 1 -94 68.1582)" fill="#000000" font-family="'Helvetica'" font-size="2.4">shape, make sure to ungroup</text><rect x="-50" y="58" fill="none" width="35" height="32.5"/><text transform="matrix(1 0 0 1 -50 60.1582)" fill="#000000" font-family="'Helvetica-Bold'" font-size="3">Save as</text><text transform="matrix(1 0 0 1 -50 65.1582)" fill="#000000" font-family="'Helvetica'" font-size="2.4">Save as .SVG and make sure </text><text transform="matrix(1 0 0 1 -50 68.1582)" fill="#000000" font-family="'Helvetica'" font-size="2.4">“Use Artboards” is checked</text><text transform="matrix(1.0074 0 0 1 -125.542 30.5947)" fill="#000000" font-family="'Helvetica'" font-size="2.5731">100px</text><text transform="matrix(1.0074 0 0 1 -41 39)" fill="#000000" font-family="'Helvetica-Bold'" font-size="5.1462">.SVG</text><rect x="-126.514" y="34.815" fill="#000000" width="10.261" height="10.185"/><rect x="-126.477" y="31.766" fill="#000000" width="0.522" height="2.337"/><rect x="-116.812" y="31.766" fill="#000000" width="0.523" height="2.337"/><rect x="-127" y="32.337" fill="#000000" width="11.233" height="0.572"/><g><rect x="-83.805" y="33.844" fill="#000000" width="10.305" height="10.156"/><rect x="-76.809" y="28.707" fill="#000000" width="3.308" height="3.261"/></g><rect x="-178.5" y="22.5" fill="#000000" stroke="#FFFFFF" stroke-miterlimit="10" width="30" height="30"/><rect x="-136.5" y="22.5" fill="#000000" stroke="#FFFFFF" stroke-miterlimit="10" width="30" height="30"/><rect x="-93.5" y="22.5" fill="#000000" stroke="#FFFFFF" stroke-miterlimit="10" width="30" height="30"/><rect x="-49.5" y="22.5" fill="#000000" stroke="#FFFFFF" stroke-miterlimit="10" width="30" height="30"/></g><path fill="#000000" d="M31.031,48.001v39.024c2.994-1.725,4.962-4.646,4.962-7.968V55.967  C35.993,52.651,34.025,49.728,31.031,48.001z M62.792,48.013c-2.978,1.724-4.938,4.648-4.938,7.961v23.084  c0,3.313,1.961,6.23,4.938,7.962V48.013z M96.137,69.17c-0.38-0.465-0.933-0.729-1.535-0.729h-5.42l4.308-27.576v-0.351  C93.485,18.569,72.696,0.792,47.043,0.791C21.393,0.792,0.604,18.569,0.599,40.515v0.351L5.613,73.06  c0.422,2.719,3.139,4.688,6.259,4.688c0.276,0,0.557-0.01,0.84-0.049c0.277-0.029,0.55-0.078,0.809-0.143v1.501  c0,5.308,5.031,9.607,11.236,9.607c1.484,0,2.891-0.26,4.184-0.706V47.068c-1.293-0.449-2.7-0.705-4.184-0.705  c-4.199,0-7.861,1.974-9.788,4.9l-1.727-11.092c0.109-7.868,3.855-14.927,9.897-20.106c6.139-5.24,14.551-8.463,23.904-8.466  c9.359,0.003,17.771,3.226,23.905,8.466c6.039,5.179,9.792,12.236,9.899,20.101l-1.781,11.403c-1.868-3.092-5.628-5.206-9.979-5.206  c-1.487,0-2.901,0.256-4.201,0.708v40.883c1.3,0.45,2.714,0.71,4.201,0.71c6.204,0,11.234-4.3,11.234-9.607v-1.665  c0.337,0.091,0.688,0.164,1.052,0.208c3.461,0.394,6.639-1.682,7.102-4.642l0.087-0.576l3.595-0.001l-4.452,20.685H52.868  c-0.735-1.607-2.35-2.729-4.23-2.729c-2.578,0-4.668,2.088-4.668,4.664c0,2.573,2.09,4.663,4.668,4.663  c1.852,0,3.44-1.089,4.192-2.654H89.3c0.927,0,1.733-0.65,1.926-1.56l5.302-24.625C96.652,70.237,96.511,69.637,96.137,69.17z"/><text x="0" y="115" fill="#000000" font-size="5px" font-weight="bold" font-family="'Helvetica Neue', Helvetica, Arial-Unicode, Arial, Sans-serif">Created by iconoci</text><text x="0" y="120" fill="#000000" font-size="5px" font-weight="bold" font-family="'Helvetica Neue', Helvetica, Arial-Unicode, Arial, Sans-serif">from the Noun Project</text></svg>