<svg xmlns="http://www.w3.org/2000/svg" viewBox="0 0 100 125"><path d="M-192 0H-7v99h-185zM0-36h100v30H0z"/><text transform="translate(66 -19.5)" font-family="'Helvetica'" font-size="2.4">http://thenounproject.com</text><text transform="translate(7.166 -24.5)" font-family="'Helvetica-Bold'" font-size="6.158">The Noun Project</text><text transform="translate(8.286 -19.7)" font-family="'Helvetica-Bold'" font-size="4">Icon Template</text><text transform="translate(-178.5 10.5)" font-family="'Helvetica-Bold'" font-size="6.158">Reminders</text><path stroke="#FFF" stroke-miterlimit="10" d="M8-14.5h10m-197 31h17"/><path d="M-170.802 31.318h8.721v8.642h-8.721z"/><path d="M-164.455 42.312h4.747v-4.703h-4.747v4.703zm5.189.437h-5.63V37.17h5.63v5.579zm-6.955 1.313h8.279v-8.203h-8.279v8.203zm8.721.438h-9.163v-9.079h9.163V44.5z"/><path d="M-166.149 44.133l-.143-.142 8.279-8.204.142.142z"/><path fill="none" d="M-179 58h35v32.5h-35z"/><text transform="translate(-179 60.158)" font-family="'Helvetica-Bold'" font-size="3">Strokes</text><text transform="translate(-179 65.158)" font-family="'Helvetica'" font-size="2.4">Try to keep strokes at 4px</text><text transform="translate(-179 70.158)" font-family="'Helvetica'" font-size="2.4">Minimum stroke weight is 2px</text><text transform="translate(-179 74.658)" font-family="'Helvetica'" font-size="2.4">For thicker strokes use even</text><text transform="translate(-179 77.658)" font-family="'Helvetica'" font-size="2.4">numbers: 6px, 8px etc.</text><text transform="translate(-179 82.158)" font-family="'Helvetica-Bold'" font-size="2.4">Remember to expand strokes</text><text transform="translate(-179 85.158)" font-family="'Helvetica-Bold'" font-size="2.4">before saving as an SVG</text><path fill="none" d="M-136.5 58h35v32.5h-35z"/><text transform="translate(-136.5 60.158)" font-family="'Helvetica-Bold'" font-size="3">Size</text><text transform="translate(-136.5 65.158)" font-family="'Helvetica'" font-size="2.4">Cannot be wider or taller than</text><text transform="translate(-136.5 68.658)" font-family="'Helvetica'" font-size="2.4">100px (artboard size)</text><text transform="translate(-136.5 73.658)" font-family="'Helvetica'" font-size="2.4">Scale your icon to fill as much of</text><text transform="translate(-136.5 76.658)" font-family="'Helvetica'" font-size="2.4">the artboard as possible</text><path fill="none" d="M-94 58h35v32.5h-35z"/><text transform="translate(-94 60.158)" font-family="'Helvetica-Bold'" font-size="3">Ungroup</text><text transform="translate(-94 65.158)" font-family="'Helvetica'" font-size="2.4">If your design has more than one</text><text transform="translate(-94 68.158)" font-family="'Helvetica'" font-size="2.4">shape, make sure to ungroup</text><path fill="none" d="M-50 58h35v32.5h-35z"/><text transform="translate(-50 60.158)" font-family="'Helvetica-Bold'" font-size="3">Save as</text><text transform="translate(-50 65.158)" font-family="'Helvetica'" font-size="2.4">Save as .SVG and make sure</text><text transform="translate(-50 68.158)" font-family="'Helvetica'" font-size="2.4">“Use Artboards” is checked</text><text transform="matrix(1.0074 0 0 1 -125.542 30.595)" font-family="'Helvetica'" font-size="2.573">100px</text><text transform="matrix(1.0074 0 0 1 -41 39)" font-family="'Helvetica-Bold'" font-size="5.146">.SVG</text><path d="M-126.514 34.815h10.261V45h-10.261zm.037-3.049h.522v2.337h-.522zm9.665 0h.523v2.337h-.523z"/><path d="M-127 32.337h11.233v.572H-127zm43.195 1.507H-73.5V44h-10.305zm6.996-5.137h3.308v3.261h-3.308z"/><path stroke="#FFF" stroke-miterlimit="10" d="M-178.5 22.5h30v30h-30zm42 0h30v30h-30zm43 0h30v30h-30zm44 0h30v30h-30z"/><path d="M31.031 48.001v39.024c2.994-1.725 4.962-4.646 4.962-7.968v-23.09c0-3.316-1.968-6.239-4.962-7.966zm31.761.012c-2.978 1.724-4.938 4.648-4.938 7.961v23.084c0 3.313 1.961 6.23 4.938 7.962V48.013zM96.137 69.17a1.965 1.965 0 0 0-1.535-.729h-5.42l4.308-27.576v-.351C93.485 18.569 72.696.792 47.043.791 21.393.792.604 18.569.599 40.515v.351L5.613 73.06c.422 2.719 3.139 4.688 6.259 4.688.276 0 .557-.01.84-.049.277-.029.55-.078.809-.143v1.501c0 5.308 5.031 9.607 11.236 9.607 1.484 0 2.891-.26 4.184-.706v-40.89a12.731 12.731 0 0 0-4.184-.705c-4.199 0-7.861 1.974-9.788 4.9l-1.727-11.092c.109-7.868 3.855-14.927 9.897-20.106 6.139-5.24 14.551-8.463 23.904-8.466 9.359.003 17.771 3.226 23.905 8.466 6.039 5.179 9.792 12.236 9.899 20.101l-1.781 11.403c-1.868-3.092-5.628-5.206-9.979-5.206-1.487 0-2.901.256-4.201.708v40.883c1.3.45 2.714.71 4.201.71 6.204 0 11.234-4.3 11.234-9.607v-1.665c.337.091.688.164 1.052.208 3.461.394 6.639-1.682 7.102-4.642l.087-.576 3.595-.001-4.452 20.685H52.868a4.654 4.654 0 0 0-4.23-2.729 4.666 4.666 0 0 0-4.668 4.664 4.667 4.667 0 0 0 4.668 4.663 4.652 4.652 0 0 0 4.192-2.654H89.3a1.97 1.97 0 0 0 1.926-1.56l5.302-24.625a1.977 1.977 0 0 0-.391-1.655z"/><text y="115" font-size="5" font-weight="bold" font-family="'Helvetica Neue', Helvetica, Arial-Unicode, Arial, Sans-serif">Created by iconoci</text><text y="120" font-size="5" font-weight="bold" font-family="'Helvetica Neue', Helvetica, Arial-Unicode, Arial, Sans-serif">from the Noun Project</text></svg>