<svg xmlns="http://www.w3.org/2000/svg" width="24" height="24"><path fill="none" d="M0 0h24v24H0z"/><g fill="#757575"><circle cx="12.002" cy="12.004" r="2"/><path d="M21.417 5.418a2 2 0 1 0-2.828-2.828 1.992 1.992 0 0 0-.511 1.925l-1.033 1.034c-1.438-.975-3.174-1.545-5.042-1.545s-3.604.57-5.043 1.545L5.927 4.515a1.989 1.989 0 0 0-.51-1.925 2 2 0 1 0-2.828 2.828 1.992 1.992 0 0 0 1.924.511l.928.927a8.964 8.964 0 0 0-2.439 6.147v7a3 3 0 0 0 6 0 3 3 0 0 0 6 0 3 3 0 0 0 6 0v-7c0-2.38-.931-4.537-2.439-6.147l.928-.927a1.996 1.996 0 0 0 1.926-.511zm-9.415 10.586a4 4 0 1 1 0-8 4 4 0 0 1 0 8z"/></g></svg>