<svg xmlns="http://www.w3.org/2000/svg" width="24" height="24"><path fill="none" d="M0 0h24v24H0z"/><path fill="#757575" d="M12 1.5C6.21 1.5 1.5 6.21 1.5 12S6.21 22.5 12 22.5c2.141 0 4.193-.632 5.936-1.829l-1.698-2.474A7.443 7.443 0 0 1 12 19.5c-4.136 0-7.5-3.364-7.5-7.5 0-4.135 3.364-7.5 7.5-7.5s7.5 3.365 7.5 7.5v.783c0 .642-.143 1.717-1.1 1.717h-.399c-.292-.011-.882-.582-.901-.869V12c0-2.813-2.288-5.1-5.1-5.1S6.9 9.188 6.9 12s2.288 5.1 5.1 5.1a5.055 5.055 0 0 0 3.101-1.08c.752.867 1.825 1.48 2.899 1.48h.4c2.414 0 4.1-1.94 4.1-4.717V12c0-5.79-4.71-10.5-10.5-10.5zm0 12.6c-1.158 0-2.1-.942-2.1-2.1 0-1.157.942-2.1 2.099-2.1A2.1 2.1 0 0 1 12 14.1z"/></svg>