<svg xmlns="http://www.w3.org/2000/svg" width="24" height="24"><path fill="none" d="M0 0h24v24H0z"/><circle fill="#757575" cx="6.999" cy="20" r="2"/><circle fill="#757575" cx="12.999" cy="20" r="2"/><g fill="#757575"><path d="M10.706 8h.293V3a1 1 0 0 0-1-1h-1a5.955 5.955 0 0 0-3.299.994L10.706 8zM4.912 3.62A5.976 5.976 0 0 0 2.999 8h6.293l-4.38-4.38z"/><path d="M16.999 5c-.441 0-.831.29-.958.713L15.055 9H2.999c0 .316-.002.712.005 1.027a.96.96 0 0 0 .046.29l2 6a1 1 0 0 0 .949.683h8c.441 0 .831-.29.958-.713L17.743 7h3.256V5h-4z"/></g></svg>