<svg xmlns="http://www.w3.org/2000/svg" width="24" height="24.002"><path fill="none" d="M0 0h24v24.002H0z"/><g fill="#757575"><path d="M14.564 16.962l4.006 1.752c.403-1.285.704-2.616.935-3.948l-4.941 2.196z"/><circle cx="11.984" cy="9.5" r="1.5"/><path d="M4.523 14.751C5.952 23.051 8.441 24 12.015 24c2.946 0 4.639-.898 5.839-3.416L4.523 14.751zm7.56 1.125l7.748-3.443c.275-2.585.189-4.355.184-4.433 0-4.636-3.365-8-8-8-4.636 0-8 3.364-7.999 7.946-.006.113-.092 1.893.184 4.481l7.883 3.449zM12.015 3a5 5 0 1 1 0 10 5 5 0 0 1 0-10z"/></g></svg>