<svg xmlns="http://www.w3.org/2000/svg" width="24" height="24"><path fill="none" d="M0 0h24v24H0z"/><g fill="#757575"><circle cx="16" cy="12" r="2"/><path d="M23 6h-1.434l-2.709-4.515a1.004 1.004 0 0 0-.653-.464 1.01 1.01 0 0 0-.785.165L10.68 6h3.441L17.7 3.444 19.234 6H15v2h7v8H10v-2H8v3a1 1 0 0 0 1 1h6.882l-.224.448a.991.991 0 0 1-.893.552H8.414L6 16.586v-5.171L8.414 9H12v1c0 .551-.448 1-1 1H9v2h2c1.654 0 3-1.346 3-3V8a1 1 0 0 0-1-1H8a.99.99 0 0 0-.707.294L5.46 9.126A.986.986 0 0 0 5 9H1a1 1 0 0 0-1 1v8a1 1 0 0 0 1 1h4c.169 0 .32-.052.46-.126l1.833 1.834c.187.186.442.292.707.292h6.765a2.981 2.981 0 0 0 2.683-1.659l.67-1.341H23a1 1 0 0 0 1-1V7a1 1 0 0 0-1-1zM4 17H2v-6h2v6z"/></g></svg>