<svg xmlns="http://www.w3.org/2000/svg" width="24" height="24"><path fill="none" d="M0 0h24v24H0z"/><path fill="#757575" d="M22 3H10c-1.103 0-2 .896-2 2v1h2V5h12v2h-7v2h6.999l-.002 6H10v-1H8v1c0 1.104.897 2 2 2h6.382l-.724 1.448a.992.992 0 0 1-.894.552h-6.35L6 16.586v-5.171L8.414 9H12v1c0 .551-.449 1-1 1H9v2h2c1.654 0 3-1.346 3-3V8a1 1 0 0 0-1-1H8a.99.99 0 0 0-.707.294L5.46 9.126A.986.986 0 0 0 5 9H1a1 1 0 0 0-1 1v8a1 1 0 0 0 1 1h4c.169 0 .32-.052.46-.126l1.833 1.834c.187.186.442.292.707.292h6.764a2.981 2.981 0 0 0 2.683-1.659L18.618 17H22c1.103 0 2-.896 2-2V5c0-1.104-.897-2-2-2zM4 17H2v-6h2v6z"/></svg>