<svg xmlns="http://www.w3.org/2000/svg" width="24" height="24"><path fill="none" d="M0 0h24v24H0z"/><g fill="#757575"><path d="M12.5 15H11v1h1.5a.5.5 0 1 0 0-1zM11 13h1.5a.5.5 0 1 0 0-1H11v1zm11-5.998v-2c0-1.102-.897-2-2-2H4c-1.103 0-2 .898-2 2v2h20zm-14-3a1.001 1.001 0 0 1 0 2 1 1 0 0 1 0-2zm-3 0a1.001 1.001 0 0 1 0 2 1 1 0 0 1 0-2z"/><path d="M2 8.002v11c0 1.103.897 2 2 2h16c1.103 0 2-.897 2-2v-11H2zM15 15.5c0 1.207-.86 2.217-2 2.449V19h-2v-1H9v-8h2V9h2v1.051c1.14.232 2 1.242 2 2.449 0 .564-.195 1.081-.513 1.5.318.418.513.936.513 1.5z"/></g></svg>