<svg xmlns="http://www.w3.org/2000/svg" width="24" height="24"><path fill="none" d="M0 0h24v24H0z"/><g fill="#757575"><path d="M11 11.004h1.5a.5.5 0 0 0 0-1H11v1z"/><path d="M12 .004c-6.617 0-12 5.383-12 12 0 6.616 5.383 11.999 12 11.999s12-5.383 12-11.999c0-6.617-5.383-12-12-12zm8.647 7H17.58l-2.597-4.546a10.043 10.043 0 0 1 5.664 4.546zM15 13.504c0 1.207-.86 2.217-2 2.449v1.051h-2v-1H9v-8h2v-1h2v1.051c1.14.233 2 1.242 2 2.449 0 .564-.195 1.08-.513 1.5.318.419.513.935.513 1.5zM11.568 2.027c.144-.007.286-.023.432-.023s.288.016.432.022l1.943 3.399c-.742-.267-1.54-.421-2.375-.421s-1.633.153-2.375.421l1.943-3.398zm-2.551.432L6.42 7.004H3.353a10.037 10.037 0 0 1 5.664-4.545zM2 12.004c0-1.046.163-2.053.461-3h3.222c-.433.91-.683 1.925-.683 3s.25 2.089.683 3H2.461a9.98 9.98 0 0 1-.461-3zm1.354 5H6.42l2.597 4.544a10.034 10.034 0 0 1-5.663-4.544zm9.078 4.977c-.144.007-.286.022-.432.022s-.288-.016-.432-.022l-1.943-3.399c.743.268 1.54.423 2.375.423s1.632-.154 2.375-.423l-1.943 3.399zm2.551-.433l2.597-4.544h3.066a10.034 10.034 0 0 1-5.663 4.544zm3.334-6.544c.433-.911.683-1.925.683-3s-.25-2.09-.683-3h3.222a9.976 9.976 0 0 1 0 6h-3.222z"/><path d="M12.5 13.004H11v1h1.5a.5.5 0 0 0 0-1z"/></g></svg>