<svg xmlns="http://www.w3.org/2000/svg" width="24" height="24"><path fill="none" d="M0 0h24v24H0z"/><g fill="#757575"><path d="M23.243 16.033c-.082-.021-.162-.013-.243-.013V3.003c0-.551-.448-1-1-1H2c-.552 0-1 .449-1 1v13s-.161.009-.243.03a1 1 0 0 0-.728 1.212l.757 3.031c.247.985 1.199 1.727 2.214 1.727h18c1.015 0 1.967-.742 2.213-1.726l.757-3.031a1 1 0 0 0-.727-1.213zM3 4.003h18v12h-7c-.552 0-1 .449-1 1h-2c0-.551-.448-1-1-1H3v-12zm18.272 15.788c-.022.087-.182.212-.272.212H3c-.09 0-.25-.125-.272-.212l-.447-1.788H9a1 1 0 0 0 1 1h4a1 1 0 0 0 1-1h6.719l-.447 1.788z"/><path d="M11 14.003H9v-8h2v-1H5c-.552 0-1 .449-1 1v8a1 1 0 0 0 1 1h6v-1zm1.5-3H11v1h1.5a.5.5 0 0 0 0-1z"/><path d="M15 8.503c0 .566-.195 1.082-.513 1.5.317.419.513.935.513 1.5 0 1.208-.86 2.217-2 2.449v1.051h6a1 1 0 0 0 1-1v-8c0-.551-.448-1-1-1h-6v1.051c1.14.232 2 1.242 2 2.449z"/><path d="M11 9.003h1.5a.5.5 0 0 0 0-1H11v1z"/></g></svg>