<svg xmlns="http://www.w3.org/2000/svg" width="24" height="24"><path fill="none" d="M0 0h24v24H0z"/><g fill="#757575"><circle cx="17.003" cy="20.006" r="2"/><circle cx="8.003" cy="20.006" r="2"/><path d="M19.966 10.241a6.998 6.998 0 0 0-5.897-3.235l-.032.002-.033-.002c-4.021 0-7.34 2.971-7.905 6.835l-.095.165h-1a2 2 0 0 0-2 2v3a1 1 0 0 0 1 1h1a3.001 3.001 0 0 1 6 0h3a3.001 3.001 0 0 1 6 0h1a1 1 0 0 0 1-1v-3c-.001-2.045-.775-4.12-2.038-5.765zM8.093 14.006c.478-2.837 2.938-5 5.91-5s5.433 2.163 5.91 5H8.093z"/></g></svg>