<svg xmlns="http://www.w3.org/2000/svg" width="24" height="24.001"><path fill="none" d="M0 0h24v24.001H0z"/><g fill="#757575"><path d="M18.001 9.831v2.171h1a1 1 0 0 0 1-1v-3c0-.051-.021-.094-.029-.143l-1.971 1.972z"/><path d="M21.925 3.62a1.001 1.001 0 0 0-.924-.618h-10v4h-1v-4h-2v5h-1V3.104a5.007 5.007 0 0 0-4 4.898c0 2.757 2.243 5 5 5h8a1 1 0 0 0 1-1V9.417l4.707-4.708a.996.996 0 0 0 .217-1.089zM10.001 15.248l-5 1.429v-2.675h-2v7h2v-2.245l6.275-1.793c.429-.123.725-.516.725-.962v-2h-2v1.246z"/></g></svg>