<svg xmlns="http://www.w3.org/2000/svg" width="24" height="24"><path fill="none" d="M0 0h24v24H0z"/><path d="M21 17v-3c0-1.103-.897-2-2-2H5c-1.103 0-2 .897-2 2v3h18zm-4.5-3.5a1 1 0 1 1 0 2 1 1 0 0 1 0-2zm-3 0a1 1 0 1 1 0 2 1 1 0 0 1 0-2zM21 19H3v3c0 1.103.897 2 2 2h14c1.103 0 2-.897 2-2v-3zm-7.5 3.5a1 1 0 1 1 0-2 1 1 0 0 1 0 2zm3 0a1 1 0 1 1 0-2 1 1 0 0 1 0 2zM14.1 0c-1.634 0-3.092.816-3.986 2.106 1.115.365 1.949 1.491 2.157 1.98l-.849.614C10.375 3.182 9.475 2.857 8.5 2.857 6.57 2.857 5 4.46 5 6.429S6.57 10 8.5 10h5.6c2.702 0 4.9-2.243 4.9-5s-2.198-5-4.9-5z" fill="#757575"/></svg>