<svg xmlns="http://www.w3.org/2000/svg" width="24" height="24"><path fill="none" d="M0 0h24v24H0z"/><g fill="#757575"><circle cx="12" cy="12" r="2.4"/><path d="M19 3H5a2 2 0 0 0-2 2v14a2 2 0 0 0 2 2h14a2 2 0 0 0 2-2V5a2 2 0 0 0-2-2zm-1 10.091h-1.79a4.343 4.343 0 0 1-.431 1.053l1.13 1.13-1.636 1.635-1.131-1.13a4.23 4.23 0 0 1-1.053.43V18h-2.181v-1.791a4.24 4.24 0 0 1-1.052-.43l-1.131 1.13-1.635-1.635 1.131-1.13a4.343 4.343 0 0 1-.431-1.053H6v-2.182h1.79a4.36 4.36 0 0 1 .431-1.053L7.09 8.727l1.637-1.636 1.131 1.13a4.24 4.24 0 0 1 1.052-.43V6h2.181v1.791c.375.097.726.243 1.053.43l1.131-1.13 1.636 1.636-1.13 1.13c.187.329.333.679.431 1.053H18v2.181z"/></g></svg>