<svg xmlns="http://www.w3.org/2000/svg" width="24" height="24.001"><path fill="none" d="M0 0h24v24.001H0z"/><g fill="#757575"><path d="M20.503 9.504c-1.93 0-3.5 1.57-3.5 3.5h-9c0-1.93-1.57-3.5-3.5-3.5s-3.5 1.57-3.5 3.5v4c0 1.102.897 2 2 2v1h2v-1h15v1h2v-1c1.103 0 2-.898 2-2v-4c0-1.93-1.57-3.5-3.5-3.5z"/><path d="M20.503 8.504c.155 0 .303.03.454.045-.233-2.542-2.353-4.545-4.954-4.545h-3v8h3.112a4.508 4.508 0 0 1 4.388-3.5zm-11.611 3.5h3.111v-8h-3c-2.601 0-4.721 2.004-4.954 4.545.151-.015.299-.045.454-.045a4.507 4.507 0 0 1 4.389 3.5z"/></g></svg>