<svg xmlns="http://www.w3.org/2000/svg" width="24" height="24"><path fill="none" d="M0 0h24v24H0z"/><path fill="#757575" d="M22.253 7.409l-.634.634c-.024.024-.053.044-.078.068l-5.648-5.647c.024-.025.044-.053.069-.078l.634-.634L15.181.338l-.633.634a12.728 12.728 0 0 0-3.683 9.899 12.724 12.724 0 0 0-9.898 3.682l-.634.635 1.414 1.414.634-.635c.024-.024.053-.044.078-.068l5.648 5.648c-.024.024-.044.053-.069.077l-.634.634 1.414 1.414.634-.634a12.723 12.723 0 0 0 3.683-9.898 12.716 12.716 0 0 0 9.898-3.683l.634-.634-1.414-1.414zm-2.282 1.96c-.584.389-1.2.72-1.844.985L13.65 5.877c.266-.643.596-1.258.985-1.842l5.336 5.334zm-8.872 3.538a10.722 10.722 0 0 1-.098 3.049l-2.952-2.952a10.694 10.694 0 0 1 3.05-.097zm-7.07 1.734c.584-.39 1.199-.72 1.843-.986l4.478 4.478a10.76 10.76 0 0 1-.985 1.845l-5.336-5.337zm8.873-3.537A10.695 10.695 0 0 1 13 8.054l2.951 2.953c-.997.18-2.023.205-3.049.097z"/></svg>