<svg xmlns="http://www.w3.org/2000/svg" width="24" height="24.002"><path fill="none" d="M0 0h24v24.002H0z"/><path d="M6.966 8.427l2.181-.814a4.076 4.076 0 0 0 4.918 1.72c2.25-.84 5.127-5.253 5.448-5.753l.563-.877-1.011-.255c-.158-.04-3.911-.979-6.306-.979-3.029 0-4.526 2.523-4.139 4.739l-2.179.814.525 1.405zm5.793-5.457c1.479 0 3.623.414 4.89.691-1.065 1.511-2.879 3.808-4.109 4.267-1.06.395-2.261-.006-2.938-.858l3.661-1.366-.524-1.404-3.668 1.368c-.074-1.219.714-2.698 2.688-2.698zm4.518 8.585a1 1 0 0 0-.895-.553H7.62c-.379 0-.725.214-.895.553l-2.618 5.236a1.003 1.003 0 0 0-.105.448v2.763a1 1 0 0 0 1 1h1v.5a1.5 1.5 0 0 0 3 0v-.5h6v.5a1.5 1.5 0 0 0 3 0v-.5h1a1 1 0 0 0 1-1v-2.763c0-.156-.036-.309-.105-.448l-2.62-5.236zm-8.276 7.447h-3v-2h3v2zm-2-4l1-2h8l1 2h-10zm11 4h-3v-2h3v2z" fill="#757575"/></svg>