<svg xmlns="http://www.w3.org/2000/svg" width="24" height="24"><path fill="none" d="M0 0h24v24H0z"/><g fill="#757575"><path d="M8.966 9.427l2.181-.814a4.076 4.076 0 0 0 4.918 1.72c2.191-.819 4.832-4.791 6.011-6.63-2.032-.511-5.104-1.233-7.316-1.233-3.029 0-4.526 2.523-4.139 4.739l-2.179.813.524 1.405zM14.76 3.97c1.479 0 3.623.414 4.89.691-1.065 1.511-2.879 3.808-4.109 4.267-1.06.395-2.261-.006-2.938-.858l3.661-1.366L15.74 5.3l-3.668 1.368c-.075-1.219.713-2.698 2.688-2.698z"/><path d="M21.002 13.002h-15v-3.5a1 1 0 0 0-.4-.8l-2-1.5a.999.999 0 0 0-1.6.8v14a1 1 0 0 0 1 1h18a1 1 0 0 0 1-1v-8a1 1 0 0 0-1-1zm-11 8h-3v-2h3v2zm0-4h-3v-2h3v2zm5 4h-3v-2h3v2zm0-4h-3v-2h3v2zm5 4h-3v-2h3v2zm0-4h-3v-2h3v2z"/></g></svg>