<svg xmlns="http://www.w3.org/2000/svg" width="24" height="24"><path fill="none" d="M0 0h24v24H0z"/><g fill="#757575"><path d="M15.771 13.679l-7.189 5.135a1.004 1.004 0 0 1-1.163 0l-7.365-5.26A1.994 1.994 0 0 0 0 14v8c0 1.103.897 2 2 2h12c1.103 0 2-.897 2-2v-8c0-.092-.015-.181-.027-.27a4.258 4.258 0 0 1-.202-.051z"/><path d="M8 16.771l5.67-4.05a8.035 8.035 0 0 1-.949-.721H2c-.194 0-.378.037-.555.088L8 16.771zM18-.015c-3.309 0-6 2.692-6 6 0 3.307 2.691 6 6 6s6-2.693 6-6c0-3.308-2.691-6-6-6zm3 7h-4v-5h2v3h2v2z"/></g></svg>