<svg xmlns="http://www.w3.org/2000/svg" width="24" height="24"><path fill="none" d="M0 0h24v24H0z"/><path d="M13.252 15.003l1.63-2.966-1.72-3.021.022-.013h-2.436l-1.63 2.968 1.72 3.021-.022.011zm-.95-12.983c-.101-.004-.2-.016-.302-.016a9.965 9.965 0 0 0-6.949 2.824l2.906 5.104 4.345-7.912zm8.345 4.983a10.027 10.027 0 0 0-6.225-4.691l-2.576 4.691h8.801zm.892 2h-6.083l4.862 8.539A9.93 9.93 0 0 0 22 12.003a9.986 9.986 0 0 0-.461-3zM3.681 6.465a9.98 9.98 0 0 0-1.22 8.538h6.083L3.681 6.465zm8.017 15.523c.101.003.2.015.302.015 2.7 0 5.148-1.08 6.949-2.824l-2.906-5.103-4.345 7.912zm-8.345-4.985a10.023 10.023 0 0 0 6.225 4.691l2.576-4.691H3.353z" fill="#757575"/></svg>