<svg xmlns="http://www.w3.org/2000/svg" width="24" height="24"><path fill="none" d="M0 0h24v24H0z"/><path d="M15.535 16.551l-.509-.172L12 18.733l-3.026-2.354-.509.172C5.669 17.492 4 19.529 4 22v2h16v-2c0-2.471-1.669-4.508-4.465-5.449zM5 11v2h3c.912 1.226 2.359 2 4 2s3.088-.774 4-2h3v-2C19 1 5 1 5 11zm7 2a2.997 2.997 0 0 1-2.796-1.938c.046-.029.098-.052.143-.082C10.652 10.102 11.713 8.708 12 7c.285 1.697 1.339 3.096 2.653 3.98.045.03.097.053.143.082A2.996 2.996 0 0 1 12 13z" fill="#757575"/></svg>