<svg xmlns="http://www.w3.org/2000/svg" width="24" height="24"><path fill="none" d="M0 0h24v24H0z"/><path d="M9 0H3C1.897 0 1 .898 1 2v7c0 1.103.897 2 2 2h6c1.103 0 2-.897 2-2V2c0-1.102-.897-2-2-2zM3 4h4v1H3V4zm6 4H3V7h6v1zm12-8h-6c-1.103 0-2 .898-2 2v7c0 1.103.897 2 2 2h6c1.103 0 2-.897 2-2V2c0-1.102-.897-2-2-2zm-6 4h4v1h-4V4zm6 4h-6V7h6v1zM9 13H3c-1.103 0-2 .898-2 2v7c0 1.103.897 2 2 2h6c1.103 0 2-.897 2-2v-7c0-1.102-.897-2-2-2zm-6 4h4v1H3v-1zm6 4H3v-1h6v1zm12-8h-6c-1.103 0-2 .898-2 2v7c0 1.103.897 2 2 2h6c1.103 0 2-.897 2-2v-7c0-1.102-.897-2-2-2zm-6 4h4v1h-4v-1zm6 4h-6v-1h6v1z" fill="#757575"/></svg>