<svg xmlns="http://www.w3.org/2000/svg" width="24.001" height="24.001"><path fill="none" d="M0 0h24.001v24.001H0z"/><g fill="#757575"><path d="M17.003 10.002c1.654 0 3-1.345 3-3 0-1.275-1.522-3.619-2.177-4.568-.374-.541-1.272-.541-1.646 0-.654.949-2.177 3.293-2.177 4.568 0 1.655 1.346 3 3 3zm0-5.146c.576.971.991 1.841 1 2.146a1 1 0 0 1-2 .001c.009-.304.425-1.175 1-2.147z"/><path d="M10.003 13.002h10v-2h-9v-9h-5c-1.103 0-2 .898-2 2v5c0 1.102.897 2 2 2h4v2zm0 1v6c0 1.102.897 2 2 2h6c1.103 0 2-.898 2-2v-6h-10z"/></g></svg>