<svg xmlns="http://www.w3.org/2000/svg" width="24.001" height="24"><path fill="none" d="M0 0h24.001v24H0z"/><g fill="#757575"><path d="M11.002 6.002h1v-2h-.837L5.319 2.053l-.633 1.898 2.88.96a6.998 6.998 0 0 0-3.563 6.091v7h2v-7a5.005 5.005 0 0 1 4.999-5zm8.634-3.773a.999.999 0 0 0-.83-.207l-5 1a1 1 0 0 0-.804.98v2c0 .477.336.888.804.98l5 1a.998.998 0 0 0 1.196-.98v-4c0-.3-.134-.584-.366-.773z"/><path d="M11.002 7.002c-2.206 0-4 1.794-4 4v10a1 1 0 0 0 1 1h6a1 1 0 0 0 1-1v-10c0-2.206-1.794-4-4-4zm3 11h-3v-6h3v6z"/></g></svg>