<svg xmlns="http://www.w3.org/2000/svg" width="24.001" height="24"><path fill="none" d="M0 0h24.001v24H0z"/><path fill="#757575" d="M19.707 4.293c-2.394-2.394-6.026-2.388-8.414 0-2.578 2.578-3.725 5.755-3.188 8.188L6.586 14H5c-1.654 0-3 1.346-3 3 0 1.352.898 2.497 2.129 2.871A3.004 3.004 0 0 0 7 22c1.654 0 3-1.346 3-3v-1.586l1.521-1.521c2.891.648 6.075-1.075 8.186-3.187 2.398-2.397 2.398-6.015 0-8.413zM9.586 15l-1.293 1.293A.997.997 0 0 0 8 17v2c0 .551-.449 1-1 1a.993.993 0 0 1-.93-.656l.637-.637-1.414-1.414-.637.638A.996.996 0 0 1 4 17c0-.551.449-1 1-1h2c.265 0 .52-.105.707-.293L9 14.414l.586.586z"/></svg>