<svg xmlns="http://www.w3.org/2000/svg" width="24" height="24.001"><path fill="none" d="M0 0h24v24.001H0z"/><g fill="#757575"><path d="M20.708 2.294a1 1 0 0 0-1.707.707v19h2v-6h2a1 1 0 0 0 1-1c0-9.307-3.158-12.572-3.293-12.707zm.293 11.707V7.244c.487 1.6.908 3.808.987 6.757h-.987zm-13-8v-4h-2v4c0 .737-.405 1.375-1 1.723V2.001h-2v5.723c-.595-.348-1-.985-1-1.723v-4h-2v4c0 1.858 1.28 3.41 3 3.858v12.142h2V9.859c1.721-.448 3-2 3-3.858z"/><path d="M12.001 9.001c-3.309 0-6 2.691-6 6s2.691 6 6 6 6-2.691 6-6-2.691-6-6-6zm0 9s-3-2-3-3.5a1.5 1.5 0 0 1 3 0 1.5 1.5 0 0 1 3 0c0 1.5-3 3.5-3 3.5z"/></g></svg>