<svg xmlns="http://www.w3.org/2000/svg" width="24.001" height="24"><path fill="none" d="M0 0h24.001v24H0z"/><path d="M23.896.006L14 1.047v2.012l10.104-1.065zM7 3.795V1.784l-2.104.222.208 1.988zM5 5h2v2H5zm9 0h10v2H14zM8 1h2v9H8zm3-1h2v8h-2zm4.792 11.406c-.011-.014-.012-.033-.024-.046A1 1 0 0 0 15 11H4c-.296 0-.578.132-.768.359-.012.014-.014.032-.024.046L3.2 11.4l-3 4 1.6 1.2 1.626-2.168 1.59 8.747c.087.475.501.821.984.821h7c.483 0 .897-.346.984-.821l1.59-8.747L17.2 16.6l1.6-1.2-3-4-.008.006z" fill="#757575"/></svg>