<svg xmlns="http://www.w3.org/2000/svg" width="24" height="24.001"><path fill="none" d="M0 0h24v24.001H0z"/><path d="M6.001 24.001h12c1.103 0 2-.897 2-2h-16c0 1.103.897 2 2 2zm12-17c.775 0 1.418.067 1.959.191-.407-4.033-3.821-7.191-7.959-7.191S4.449 3.159 4.042 7.192c.542-.124 1.184-.191 1.959-.191h12zm-3.25-3.5a.75.75 0 1 1 0 1.5.75.75 0 0 1 0-1.5zm-2.75-1.5a.75.75 0 1 1 0 1.5.75.75 0 0 1 0-1.5zm-2.75 1.5a.75.75 0 1 1 0 1.5.75.75 0 0 1 0-1.5zm10.936 8.896a4.417 4.417 0 0 1-2.186.604 3.449 3.449 0 0 1-2.059-.674 5.1 5.1 0 0 1-2.441.674 3.428 3.428 0 0 1-1.5-.345 3.425 3.425 0 0 1-1.5.345 5.094 5.094 0 0 1-2.441-.674 3.447 3.447 0 0 1-2.059.674 4.42 4.42 0 0 1-2.186-.604 1.993 1.993 0 0 0-.814 1.604 2 2 0 0 0 2 2h14a1.996 1.996 0 1 0 1.186-3.604zm-14.186-.396c.822 0 1.545-.402 2-1.014.456.611 1.679 1.014 2.5 1.014.565 0 1.081-.195 1.5-.512.419.316.935.512 1.5.512.822 0 2.045-.402 2.5-1.014a2.493 2.493 0 0 0 2 1.014c1.381 0 3-1 3-2.5 0-.5-1-1.5-2-1.5h-14c-1 0-2 1-2 1.5 0 1.5 1.62 2.5 3 2.5zm13 5h-.009c0 .26-.092.517-.284.707l-2 2a.997.997 0 0 1-1.414 0l-2-2a.994.994 0 0 1-.284-.707H5.001a2 2 0 0 0 0 4h14a2 2 0 0 0 0-4z" fill="#757575"/></svg>