<svg xmlns="http://www.w3.org/2000/svg" width="24" height="24"><path fill="none" d="M0 0h24v24H0z"/><g fill="#757575"><path d="M7 12.001h10a.998.998 0 0 0 .961-1.274l-2-7A1 1 0 0 0 15 3.001H9a1 1 0 0 0-.961.726l-2 7A1 1 0 0 0 7 12.001zm2.857-6h2.286l-.857 3H9l.857-3zm.104 7.727A1 1 0 0 0 9 13.001H3a1 1 0 0 0-.961.726l-2 7A1 1 0 0 0 1 22.001h10a.998.998 0 0 0 .961-1.274l-2-6.999zm-3.818 5.273H3.857l.857-3H7l-.857 3z"/><path d="M23.961 20.728l-2-7a1.001 1.001 0 0 0-.961-.726h-6a1 1 0 0 0-.961.726l-2 7A1 1 0 0 0 13 22.002h10a.998.998 0 0 0 .961-1.274zm-5.675-1.727H16l.857-3h2.286l-.857 3z"/></g></svg>