<svg xmlns="http://www.w3.org/2000/svg" width="24" height="24"><path fill="none" d="M0 0h24v24H0z"/><g fill="#757575"><path d="M22.447 7.11l-10-5a1 1 0 0 0-.895 0l-10 5a1.006 1.006 0 0 0-.445.463A1.215 1.215 0 0 0 1 8.005v5.765a1 1 0 0 0 2 0V9.172l9.015 3.756 10.357-3.994a1.001 1.001 0 0 0 .075-1.824z"/><path d="M12 15.005c-.131 0-.262-.026-.385-.077L5 12.171v3.014a1 1 0 0 0 .553.894c1.715.858 3.482 1.919 6.447 1.919 2.963 0 4.735-1.063 6.447-1.919a.997.997 0 0 0 .553-.893v-2.801l-6.641 2.554a1.01 1.01 0 0 1-.359.066zm-10 1a1 1 0 0 0-1 1v2a1 1 0 0 0 2 0v-2a1 1 0 0 0-1-1z"/></g></svg>