<svg xmlns="http://www.w3.org/2000/svg" width="24" height="24.002"><path fill="none" d="M0 0h24v24.002H0z"/><g fill="#757575"><path d="M12.002 9.002a1 1 0 0 0 1 1h5a1 1 0 0 0 1-1v-8c0-.551-.448-1-1-1h-5c-.552 0-1 .449-1 1v3h-10v2h10v3zm-3 3h-6a1.001 1.001 0 0 0-.832 1.555l2 3c.153.23.395.386.667.432l4.165.694v-5.681z"/><path d="M21.374 15.932c.379-.153.628-.52.628-.929v-3c0-.551-.448-1-1-1h-10c-.552 0-1 .449-1 1v6.382l-3.447 1.724a1 1 0 0 0-.553.894v2a1 1 0 0 0 1 1h14a1 1 0 0 0 1-1v-2a1 1 0 0 0-.628-.928l-4.372-1.749v-.646l4.372-1.748z"/></g></svg>