<svg xmlns="http://www.w3.org/2000/svg" width="24" height="24"><path fill="none" d="M0 0h24v24H0z"/><path fill="#757575" d="M4.882 4.852L3.353 3.563A9.985 9.985 0 0 1 11.006 0a9.987 9.987 0 0 1 7.64 3.547l-1.527 1.291A7.994 7.994 0 0 0 11.006 2a7.994 7.994 0 0 0-6.124 2.852z"/><path fill="#757575" d="M14.208 7.602A3.97 3.97 0 0 0 11.006 6c-1.27 0-2.437.583-3.2 1.602L6.206 6.4a6.03 6.03 0 0 1 4.8-2.4 5.95 5.95 0 0 1 4.802 2.402l-1.6 1.2zm1.785 12.814l-3.414-3.414 2.217-2.217 1.197.599v-4.45A1.998 1.998 0 0 0 14 9.002H8c-1.103 0-2 .897-2 2v10c0 1.103.897 2 2 2h6c1.08 0 1.957-.861 1.993-1.933v-.653zm-5-1.164a1.25 1.25 0 1 1 0-2.5 1.25 1.25 0 0 1 0 2.5zm0-4a1.25 1.25 0 1 1 0-2.5 1.25 1.25 0 0 1 0 2.5z"/><path fill="#757575" d="M16.993 11.002l3 3v5l2 5h-5v-4l-3-3 1-1 2 1z"/></svg>