<svg xmlns="http://www.w3.org/2000/svg" width="24" height="24.001"><path fill="none" d="M0 0h24v24.001H0z"/><g fill="#757575"><path d="M19.997 12.933l.002.066v3s-4 2-8 2-8-2-8-2v-3l.002-.066c-1.261.836-2.002 1.89-2.002 3.066 0 2.851 4.299 5 10 5s10-2.149 10-5c0-1.176-.741-2.23-2.002-3.066zm-6.998-.517l4.068-5.424c-1-1.089-2.372-1.749-4.068-1.934v7.358zm-2-7.358c-1.697.184-3.068.844-4.068 1.933l4.068 5.424V5.058z"/><path d="M5.683 14.948c.129.042 3.19 1.051 6.316 1.051s6.188-1.008 6.316-1.051c.408-.137.684-.519.684-.949v-1c0-1.885-.353-3.471-1.021-4.722l-5.379 7.172a.753.753 0 0 1-1.2 0L6.02 8.277c-.668 1.251-1.021 2.837-1.021 4.722v1a1 1 0 0 0 .684.949z"/></g></svg>