<svg xmlns="http://www.w3.org/2000/svg" width="24" height="24.001"><path fill="none" d="M0 0h24v24.001H0z"/><path d="M12.001 2.001c-2.346 0-10 .217-10 3 0 2.784 7.654 3 10 3s10-.216 10-3c0-2.783-7.654-3-10-3zm3 4h-6a1 1 0 1 1 0-2h6a1 1 0 0 1 0 2zm-10 3.056v9.944c0 .266.105.52.293.707 1.536 1.536 4.122 2.304 6.708 2.304 2.585 0 5.171-.768 6.707-2.304a.997.997 0 0 0 .293-.707V9.057c-1.972.592-4.384.944-7 .944-2.616 0-5.029-.353-7.001-.944zm12 5.564c-1.469.574-3.232.866-5 .866s-3.531-.292-5-.866V12.43c2.631 1.413 7.369 1.414 10 .002v2.189z" fill="#757575"/></svg>