<svg xmlns="http://www.w3.org/2000/svg" width="24.001" height="24"><path fill="none" d="M0 0h24.001v24H0z"/><g fill="#757575"><path d="M14.002 3.002a2 2 0 0 0-2 2h4a2 2 0 0 0-2-2zm-5 14.184v-7.184a1 1 0 0 0-1-1h-2a.997.997 0 0 0-.707.293l-3 3a1 1 0 0 0-.293.707v6a1 1 0 0 0 1 1h2a3 3 0 0 1 3-3c.353 0 .686.072 1 .184zm-2-3.184h-2v-2h2v2z"/><circle cx="8.002" cy="20.002" r="2"/><path d="M20.002 6.002h-8c-1.103 0-2 .897-2 2v9.778c.609.549 1 1.337 1 2.222h3a3 3 0 0 1 6 0h1a1 1 0 0 0 1-1v-11c0-1.103-.897-2-2-2zm-1 7h-2v2h-2v-2h-2v-2h2v-2h2v2h2v2z"/><circle cx="17.002" cy="20.002" r="2"/></g></svg>