<svg xmlns="http://www.w3.org/2000/svg" width="24" height="24.001"><path fill="none" d="M0 0h24v24.001H0z"/><g fill="#757575"><path d="M2.76 10.002l3.243-3.243L8.754 9.51l4.469-5.587 4.612 6.918 1.26-.84h2.62c.173-.668.288-1.337.288-2 0-3.533-2.467-6-6-6-1.594 0-3.071.837-4 2.08-.929-1.243-2.406-2.08-4-2.08-3.533 0-6 2.467-6 6 0 .663.115 1.332.288 2h.469zm6.491 8.492l-3.249-3.249-.579.579c2.591 3.309 5.742 5.794 5.965 5.967a.994.994 0 0 0 1.228 0 38.463 38.463 0 0 0 3.317-2.984l-3.151-4.727-3.531 4.414z"/><path d="M19.7 12.002l-2.42 1.613-4.204-6.305-4.157 5.195-2.917-2.917-2.414 2.414H1.002v2h3.415l1.585-1.585 3.083 3.082 3.844-4.804 3.796 5.694 3.58-2.387h2.697v-2z"/></g></svg>