<svg xmlns="http://www.w3.org/2000/svg" width="24" height="24"><path fill="none" d="M0 0h24v24H0z"/><g fill="#757575"><path d="M20 9.502c0-3.334-2.322-6.156-5.532-7.132.845 1.785 1.282 4.465 1.282 7.132 0 1.239-.098 2.478-.284 3.631l-2.862 6.869h-1.208l-2.862-6.869a23.173 23.173 0 0 1-.284-3.631c0-2.667.437-5.347 1.282-7.132C6.323 3.346 4 6.168 4 9.502c0 2.818 1.668 5.256 4.12 6.537l1.651 3.963H9l1 3h4l1-3h-.77l1.651-3.963C18.332 14.758 20 12.32 20 9.502z"/><path d="M12 17.002c.161 0 .318-.014.477-.022.78-.804 1.773-3.377 1.773-7.478 0-4.1-.993-6.674-1.773-7.478-.158-.008-.315-.022-.477-.022s-.318.014-.477.022c-.779.804-1.773 3.378-1.773 7.478s.993 6.674 1.773 7.478c.159.008.316.022.477.022z"/></g></svg>