<svg xmlns="http://www.w3.org/2000/svg" width="24" height="24.002"><path fill="none" d="M0 0h24v24.002H0z"/><g fill="#757575"><circle cx="13.003" cy="6.004" r="1"/><circle cx="11.003" cy="8.504" r="1"/><circle cx="15.003" cy="8.504" r="1"/><circle cx="13.003" cy="11.004" r="1"/><circle cx="9.003" cy="11.004" r="1"/><circle cx="17.003" cy="11.004" r="1"/><path d="M22.003 14.004v-10c0-1.654-1.346-3-3-3h-7v3h2v-1h5c.551 0 1 .449 1 1v10h-20v2h24v-2h-2zM5.089 20.889l-1.586 2.115h2.5l1.5-2h9l1.5 2h2.5l-1.586-2.115a3.995 3.995 0 0 0 3.086-3.885h-20a3.995 3.995 0 0 0 3.086 3.885z"/></g></svg>