<svg xmlns="http://www.w3.org/2000/svg" width="24.001" height="24.001"><path fill="none" d="M0 0h24.001v24.001H0z"/><g fill="#757575"><path d="M17.001 5h-1.279l-.772-2.316A1 1 0 0 0 14.001 2h-8a1 1 0 0 0-.949.684l-1 3a.989.989 0 0 0-.031.512L5.781 15h2.04l-1.6-8h7.561l-1.6 8h2.04l1.6-8h1.18c.551 0 1 .449 1 1v7h2V8a3.005 3.005 0 0 0-3.001-3zm-2.586 11H5.587l-1.293 1.292a1 1 0 0 0-.293.708v3a1 1 0 0 0 1 1h10a1 1 0 0 0 1-1v-3a1 1 0 0 0-.293-.708L14.415 16zm-4.414 4.25a1.25 1.25 0 1 1 0-2.5 1.25 1.25 0 0 1 0 2.5z"/><path d="M9.001 11h2v4h-2z"/></g></svg>