<svg xmlns="http://www.w3.org/2000/svg" width="24.001" height="24.001"><path fill="none" d="M0 0h24.001v24.001H0z"/><path d="M20.003 20.002v-7a6.956 6.956 0 0 0-3.317-5.945 4.454 4.454 0 0 1-.551 2.042 4.976 4.976 0 0 1 1.868 3.903v7h-4v2h8v-2h-2zM14.302 9.813l.367-.372a3.477 3.477 0 0 0 1.027-2.477c0-.936-.364-1.814-1.025-2.475-.627-.627-1.529-.987-2.474-.987-.946 0-1.848.36-2.475.987l-.371.369c-2.453-.438-4.515.275-5.995 1.752l-.707.705a.5.5 0 0 0 0 .706l8.486 8.489a.518.518 0 0 0 .707 0l.708-.708c1.45-1.45 2.197-3.49 1.752-5.989z" fill="#757575"/></svg>