<svg xmlns="http://www.w3.org/2000/svg" width="24" height="24"><path fill="none" d="M0 0h24v24H0z"/><g fill="#757575"><path d="M22 3H2a1 1 0 0 0-1 1v10h8a2 2 0 0 1 1.414.586l.415.414h2.343l.415-.414A1.997 1.997 0 0 1 15 14h8V4a1 1 0 0 0-1-1z"/><path d="M23.243 15H15c-.265 0-.52.106-.707.293l-.707.707h-3.172l-.707-.707A1.002 1.002 0 0 0 9 15l-8.243.019a1.013 1.013 0 0 0-.728 1.225l.758 3.031C1.034 20.258 1.985 21 3 21h18c1.015 0 1.967-.743 2.213-1.727l.757-3.03c.134-.536-.192-1.109-.727-1.243z"/></g></svg>