<svg xmlns="http://www.w3.org/2000/svg" width="24" height="24"><path fill="none" d="M0 0h24v24H0z"/><g fill="#757575"><path d="M15.499 9.5c0-1.93-1.57-3.5-3.5-3.5s-3.5 1.57-3.5 3.5 1.57 3.5 3.5 3.5 3.5-1.57 3.5-3.5z"/><path d="M4.999 13h2V9c0-2.757 2.243-5 5-5s5 2.243 5 5v4h2a3 3 0 0 0 0-6h-.295c-.863-2.888-3.541-5-6.705-5S6.157 4.112 5.294 7h-.295a3 3 0 1 0 0 6zm7 1a5.999 5.999 0 0 0-5.188 3h10.376a5.999 5.999 0 0 0-5.188-3zm-10 7h20v3h-20zm2-3a1 1 0 0 0-1 1v1h8v-1a1 1 0 0 0-1-1h-6zm17 1a1 1 0 0 0-1-1h-6a1 1 0 0 0-1 1v1h8v-1z"/></g></svg>