<svg xmlns="http://www.w3.org/2000/svg" width="24" height="24"><path fill="none" d="M0 0h24v24H0z"/><path d="M14.999 9.268l-3-5.252-3 5.25V11h6zM3.999 11h3V9c0-.174.045-.345.132-.496l3.103-5.43L3.399 8.2a.998.998 0 0 0-.4.8v1a1 1 0 0 0 1 1zm13-1.998V11h3a1 1 0 0 0 1-1V9a1 1 0 0 0-.4-.8l-6.835-5.126 3.103 5.432a.993.993 0 0 1 .132.496zm-6 2.998h2v10h-2zm9.03 2.757L19.218 18h-3.219a1 1 0 0 0-1 1v3h2v-2h2v2h2v-2.877l.97-3.88-1.94-.486zM7.999 18H4.78l-.811-3.243-1.94.486.97 3.88V22h2v-2h2v2h2v-3a1 1 0 0 0-1-1z" fill="#757575"/></svg>