<svg xmlns="http://www.w3.org/2000/svg" width="24.001" height="24.002"><path fill="none" d="M0 0h24.001v24.002H0z"/><g fill="#757575"><path d="M13 10.002h3.131L12 3.805l-4.131 6.197H11v10H2v2h20v-2h-9zm8.406-3.914l-7.788-3.461 4.917 7.375H21a1 1 0 0 0 1-1v-2c0-.395-.233-.753-.594-.914zM3 10.002h2.465l4.917-7.375-7.788 3.461A1.001 1.001 0 0 0 2 7.002v2a1 1 0 0 0 1 1z"/><path d="M3 15.002v1c0 1.767 1.233 3 2.999 3H6c1.766-.001 3-1.234 3-3v-1a1 1 0 0 0-1-1H4a1 1 0 0 0-1 1zm12 0v1c0 1.767 1.233 3 2.999 3H18c1.766-.001 3-1.234 3-3v-1a1 1 0 0 0-1-1h-4a1 1 0 0 0-1 1z"/></g></svg>