<svg xmlns="http://www.w3.org/2000/svg" width="24" height="24.001"><g fill="none"><path d="M0 0h24v24.001H0z"/><path d="M0 0h24v24.001H0z"/></g><g fill="#757575"><circle cx="12.004" cy="6.004" r="1.5"/><path d="M21.901 18.372l-2.441-5a2 2 0 0 0-1.897-1.367h-2.344c.936-2.374 1.785-4.847 1.785-6 0-2.757-2.243-5-5-5s-5 2.243-5 5c0 1.153.85 3.626 1.785 6H6.445a2 2 0 0 0-1.897 1.367l-2.442 5a2.003 2.003 0 0 0 1.898 2.633h16c.643 0 1.247-.309 1.623-.83a2.006 2.006 0 0 0 .274-1.803zM12.004 3.004a3 3 0 0 1 3 3c0 1.469-2.445 7.646-3 9-.558-1.369-3-7.527-3-9a3 3 0 0 1 3-3z"/></g></svg>