<svg xmlns="http://www.w3.org/2000/svg" width="24" height="24.001"><g fill="none"><path d="M0 0h24v24.001H0z"/><path d="M0 0h24v24.001H0z"/></g><path fill="#757575" d="M12.003 2.003c-4.418 0-8 3.582-8 8s8 12 8 12 8-7.582 8-12-3.582-8-8-8zm1 12.803v1.197h-2v-1.197c-1.138-.433-2-1.553-2-2.803h2c0 .495.505 1 1 1s1-.505 1-1c0-.202-.563-.359-1.243-.529-1.031-.258-2.757-.69-2.757-2.471 0-1.25.862-2.37 2-2.802V5.003h2v1.198C14.14 6.634 15 7.754 15 9.003h-2c0-.495-.503-1-.997-1-.495 0-1 .505-1 1 0 .203.563.36 1.243.53 1.031.258 2.757.69 2.757 2.47 0 1.25-.861 2.37-2 2.803z"/></svg>