<svg xmlns="http://www.w3.org/2000/svg" width="24" height="24.001"><g fill="none"><path d="M0 0h24v24.001H0z"/><path d="M0 0h24v24.001H0z"/></g><g fill="#757575"><path d="M12.003 6.004c1.654 0 3-1.346 3-3s-1.346-2.999-3-2.999-3 1.346-3 2.999c0 1.654 1.346 3 3 3zm-4 9h1v4a1 1 0 0 0 1 1h4a1 1 0 0 0 1-1v-4h1a1 1 0 0 0 1-1v-2c0-2.756-2.243-5-5-5s-5 2.244-5 5v2a1 1 0 0 0 1 1z"/><path d="M18.343 16.828l-.578 1.914c1.849.559 2.238 1.166 2.238 1.262 0 .514-2.75 2-8 2s-8-1.486-8-2c0-.101.417-.738 2.396-1.309l-.555-1.922c-3.174.917-3.841 2.263-3.841 3.231 0 2.748 5.184 4 10 4s10-1.252 10-4c0-.944-.634-2.263-3.66-3.176z"/></g></svg>