<svg xmlns="http://www.w3.org/2000/svg" width="24.001" height="24.001"><path fill="none" d="M0 0h24.001v24.001H0z"/><path d="M13.296 17.71l1.415-1.415 6 6-1.415 1.414zm2.707-6.708c0-2.238-1.946-5.221-2.168-5.554a1 1 0 0 0-1.539-.152l-1.293 1.292V1.002c0-.42-.264-.796-.66-.941a1.004 1.004 0 0 0-1.108.302c-.214.256-5.232 6.327-5.232 10.64a5.98 5.98 0 0 0 1.482 3.914 5.99 5.99 0 0 0 4.518 2.086 5.942 5.942 0 0 0 3.544-1.179c1.561-1.151 2.456-2.908 2.456-4.822zm-4.368 2.489a2.957 2.957 0 0 0-3.247-.009 2.974 2.974 0 0 1-.637-.531 3.19 3.19 0 0 1-.591-1.054 4.963 4.963 0 0 1 5.686 0c-.236.736-.63 1.195-1.211 1.594z" fill="#757575"/></svg>