<svg xmlns="http://www.w3.org/2000/svg" width="24" height="24"><path fill="none" d="M0 0h24v24H0z"/><g fill="#757575"><path d="M12.003 13.006a2 2 0 0 0-2 2v6a2 2 0 0 0 4 0v-6a2 2 0 0 0-2-2z"/><path d="M15.597 6.006h4.406v-2h-4c0-1-2-2-4-2s-4 1-4 2h-4v2H8.41c.309.846.813 1.716 1.564 2.302a7 7 0 0 0-4.971 6.698v4a1 1 0 0 0 1 1h3v-6a2 2 0 0 1 2-2h2a2 2 0 0 1 2 2v6h3a1 1 0 0 0 1-1v-4a7 7 0 0 0-4.971-6.698c.753-.586 1.257-1.456 1.565-2.302zm-3.594-2a1.5 1.5 0 1 1-.001 3.001 1.5 1.5 0 0 1 .001-3.001z"/></g></svg>