<svg xmlns="http://www.w3.org/2000/svg" width="24" height="24"><path fill="none" d="M0 0h24v24H0z"/><path d="M9.102 10.699a2.421 2.421 0 0 0-.242-3.416c-1.008-.876-5.242-1.345-5.242-1.345s.851 3.942 2.069 5.001a2.422 2.422 0 0 0 3.415-.24zm3.9 1.374c0-.323.102-.694.285-1.074a3.515 3.515 0 0 0 4.431-.499c1.355-1.391 2.387-7.494 2.387-7.494s-5.791.908-7.427 2.588a3.514 3.514 0 0 0-.741 3.758c-.63.92-.935 1.896-.935 2.721v2.929h2v-2.929zm4.674 3.929H6.328a.999.999 0 0 0-.961 1.275l1.429 5a1 1 0 0 0 .961.725h8.491a.998.998 0 0 0 .961-.725l1.429-5a.998.998 0 0 0-.962-1.275z" fill="#757575"/></svg>