<svg xmlns="http://www.w3.org/2000/svg" width="24" height="24"><path fill="none" d="M0 0h24v24H0z"/><path d="M18.475 16.4a.999.999 0 0 0-.798-.399H6.328a.999.999 0 0 0-.961 1.275l1.429 5a1 1 0 0 0 .961.725h8.491a.998.998 0 0 0 .961-.725l1.429-5a.999.999 0 0 0-.163-.876zM9.18 8.984c.02.057.031.117.054.172a2 2 0 0 0 .769 3.845c.366 0 .705-.105 1-.277v2.277h2v-2.277c.295.172.634.277 1 .277a2 2 0 0 0 .769-3.845c.022-.055.033-.115.054-.172a1.985 1.985 0 0 0 2.178-1.983 2 2 0 0 0-2-2c-.378 0-.728.112-1.029.293a1.988 1.988 0 0 0-1.971-2.293 1.988 1.988 0 0 0-1.971 2.293 2.003 2.003 0 0 0-1.031-.292 2 2 0 0 0-2 2c0 1.099.909 2.087 2.178 1.982zm2.822-2.982a2 2 0 1 1-.001 4.001 2 2 0 0 1 .001-4.001z" fill="#757575"/></svg>