<svg xmlns="http://www.w3.org/2000/svg" width="24" height="24"><path fill="none" d="M0 0h24v24H0z"/><g fill="#757575"><path d="M7 10h4v4H7zm-2 0H.202a9.983 9.983 0 0 0 0 4H5v-4zm2-2h4V2h-1a9.986 9.986 0 0 0-3 .461V8zm0 8v5.54c.948.298 1.955.46 3 .46h1v-6H7zM5 8V3.353A10.053 10.053 0 0 0 .841 8H5zm0 8H.841A10.04 10.04 0 0 0 5 20.646V16z"/><circle cx="17" cy="5" r="3"/><path d="M17 8c-2.757 0-5 2.243-5 5v3a1 1 0 0 0 1 1h1v4a1 1 0 0 0 1 1h4a1 1 0 0 0 1-1v-4h1a1 1 0 0 0 1-1v-3c0-2.757-2.243-5-5-5z"/></g></svg>