<svg xmlns="http://www.w3.org/2000/svg" width="24" height="24"><path fill="none" d="M0 0h24v24H0z"/><path d="M21.002 2.002c-.538 0-1.024.215-1.383.561-.511-.926-1.485-1.561-2.617-1.561s-2.106.635-2.617 1.561a1.986 1.986 0 0 0-1.383-.561 2 2 0 0 0 0 4c.538 0 1.024-.215 1.383-.561.511.926 1.485 1.561 2.617 1.561s2.106-.634 2.617-1.561c.359.346.846.561 1.383.561a2 2 0 0 0 0-4zm-3.763 7.664a1 1 0 0 0-.941-.664H7.707c-.422 0-.799.266-.942.664l-4.285 12a1.001 1.001 0 0 0 .941 1.336h17.162a.999.999 0 0 0 .941-1.336l-4.285-12zm-5.237 5.336a1 1 0 1 1 0 2 1 1 0 0 1 0-2zm-2.29-3.45l1.15 2.29c-.79.4-1.341 1.21-1.341 2.16h-2.52a5.027 5.027 0 0 1 2.711-4.45zm2.29 9.45c-1.14 0-2.19-.38-3.03-1.029l1.58-2.101c.41.31.9.5 1.45.5s1.04-.19 1.45-.5l1.58 2.11c-.84.64-1.89 1.02-3.03 1.02zm2.37-5c0-.95-.55-1.76-1.351-2.16l1.171-2.33a5.005 5.005 0 0 1 2.81 4.49h-2.63z" fill="#757575"/></svg>