<svg xmlns="http://www.w3.org/2000/svg" width="24" height="24.001"><path fill="none" d="M0 0h24v24.001H0z"/><path d="M14.004 3.004a2 2 0 0 0-4 0v2h4v-2zm-5 8.939l5.939-5.939H3.004a1 1 0 1 0 0 2h1.5l.224.447a.998.998 0 0 0 .894.553h3.382v2.939zm12-5.939h-3.939l-8.061 8.06v5.94H7.337a.998.998 0 0 0-.948.684l-.333 1a1.002 1.002 0 0 0 .949 1.315h10a1.002 1.002 0 0 0 .949-1.315l-.333-1a.999.999 0 0 0-.948-.684h-1.667v-11h3.382c.379 0 .725-.214.895-.553l.224-.447h1.5a1 1 0 1 0-.003-2z" fill="#757575"/></svg>