<svg xmlns="http://www.w3.org/2000/svg" width="24" height="24"><path fill="none" d="M0 0h24v24H0z"/><path d="M19.989 22.469a45.509 45.509 0 0 1-2.463-4.467h2.477v-2h-16v2H6.48a45.718 45.718 0 0 1-2.463 4.467 1 1 0 0 0 .845 1.534h3.142c0-2.209.791-4 3-4h2c2.209 0 3 1.791 3 4h3.142a.998.998 0 0 0 .843-1.534zM13.003 5.002v-2l-1-2-1 2v2a78.27 78.27 0 0 1-1.083 4h4.165a78.982 78.982 0 0 1-1.082-4zm-2.75 10l.75-3h2l.75 3h2.43a57.496 57.496 0 0 1-1.127-3h.948v-2h-8v2h.948a58.414 58.414 0 0 1-1.127 3h2.428z" fill="#757575"/></svg>