<svg xmlns="http://www.w3.org/2000/svg" width="24" height="24.001"><path fill="none" d="M0 0h24v24.001H0z"/><path d="M4.001 5.502a1.5 1.5 0 0 1 3 0v1.5h2v-1.5a1.5 1.5 0 0 1 3 0v1.5h2v-4a1 1 0 0 0-1-1h-10a1 1 0 0 0-1 1v4h2v-1.5zm0 7a1.5 1.5 0 0 1 3 0v1.5h2v-1.5a1.5 1.5 0 0 1 3 0v1.5h2v-1.5a1.5 1.5 0 0 1 3 0v1.5h2v-4a1 1 0 0 0-1-1h-15a1 1 0 0 0-1 1v4h2v-1.5zm17 3.5h-18a1 1 0 0 0-1 1v4a1 1 0 0 0 1 1h1v-1.5a1.5 1.5 0 0 1 3 0v1.5h2v-1.5a1.5 1.5 0 0 1 3 0v1.5h2v-1.5a1.5 1.5 0 0 1 3 0v1.5h4a1 1 0 0 0 1-1v-4a1 1 0 0 0-1-1z" fill="#757575"/></svg>