<svg xmlns="http://www.w3.org/2000/svg" width="24.001" height="24.001"><path fill="none" d="M0 0h24.001v24.001H0z"/><g fill="#757575"><path d="M6.723 13.002l2.541-7.621 1.658 2.764-1.388 4.857h2.08l1.35-4.726a.998.998 0 0 0-.104-.789l-3-5a1 1 0 0 0-1.806.199L4.533 13.249a4.939 4.939 0 0 1 1.47-.246h.72zm12.279-8c-1.654 0-3 1.346-3 3v5h2v-2h1v-2h-1v-1c0-.551.449-1 1-1s1 .449 1 1v5.424a5.028 5.028 0 0 1 2 1.607V8.002c0-1.653-1.345-3-3-3z"/><path d="M18.002 14.002h-12c-2.206 0-4 1.794-4 4s1.794 4 4 4h12c2.206 0 4-1.794 4-4s-1.794-4-4-4zm-12 5a1 1 0 1 1 0-2 1 1 0 0 1 0 2zm12 0a1 1 0 1 1 0-2 1 1 0 0 1 0 2z"/></g></svg>