<svg xmlns="http://www.w3.org/2000/svg" width="24.001" height="24.001"><path fill="none" d="M0 0h24.001v24.001H0z"/><path fill="#757575" d="M20.599 8.199l-4-3a1 1 0 0 0-.6-.2h-.586l-1.707-1.707a1 1 0 0 0-.707-.293h-3a.997.997 0 0 0-.707.293L7.585 4.999h-.586a1 1 0 0 0-.6.2l-4 3a1.001 1.001 0 0 0-.232 1.355l2 3c.28.42.828.564 1.279.34l.553-.276V20a1 1 0 0 0 1 1h9a1 1 0 0 0 1-1v-7.382l.553.276a1 1 0 0 0 1.279-.34l2-3a1.001 1.001 0 0 0-.232-1.355zm-8.6-.29v4.09h-1v-4.09L9.368 6.045l1.045-1.046h2.172l1.045 1.046-1.631 1.864z"/></svg>