<svg xmlns="http://www.w3.org/2000/svg" width="24" height="24"><path fill="none" d="M0 0h24v24H0z"/><g fill="#757575"><path d="M13.002 5.002h-2a1 1 0 0 0-1 1v1h-1a1 1 0 0 0-1 1v8c0 1.103.897 2 2 2h4c1.103 0 2-.897 2-2v-8a1 1 0 0 0-1-1h-1v-1a1 1 0 0 0-1-1zm1.5 7l-3.5 4v-3h-1.5l3.5-4v3h1.5z"/><path d="M12.002 21.002c-4.054 0-7.489-2.696-8.611-6.389l2.611-2.611h-6v6l1.827-1.827c1.647 4.001 5.584 6.827 10.173 6.827 5.382 0 9.865-3.888 10.809-9H20.77c-.913 4.002-4.494 7-8.768 7zM22.175 7.829c-1.647-4.001-5.584-6.827-10.173-6.827-5.382 0-9.865 3.888-10.809 9h2.041c.913-4.001 4.494-7 8.768-7 4.055 0 7.489 2.696 8.611 6.39l-2.611 2.61h6v-6l-1.827 1.827z"/></g></svg>