<svg xmlns="http://www.w3.org/2000/svg" width="24" height="24"><path fill="none" d="M0 0h24v24H0z"/><path d="M3 13.999v6c0 1.103.897 2 2 2h6v-8H3zm10 0v8h6c1.103 0 2-.897 2-2v-6h-8zm7-6h-3.114a4.998 4.998 0 0 0 1.235-.877 3.006 3.006 0 0 0 0-4.244c-1.134-1.131-3.107-1.132-4.242.001-1.636 1.637-1.857 4.718-1.877 5.064-.002.019.008.036.008.056h-.02c0-.019.01-.037.009-.057-.02-.346-.241-3.427-1.878-5.065-1.134-1.131-3.109-1.131-4.243.001a3.005 3.005 0 0 0 0 4.243c.357.356.785.643 1.236.877H4c-1.103 0-2 .897-2 2v3h9v-4h2v4h9v-3a2.002 2.002 0 0 0-2-1.999zM7.293 5.707A1.002 1.002 0 0 1 8 4c.268 0 .519.104.708.292.59.59.934 1.648 1.118 2.531-.881-.184-1.947-.53-2.533-1.116zm6.881 1.118c.184-.883.528-1.942 1.118-2.532.189-.189.441-.293.708-.293s.519.104.706.291c.39.391.391 1.026 0 1.416-.59.591-1.649.935-2.532 1.118z" fill="#757575"/></svg>