<svg xmlns="http://www.w3.org/2000/svg" width="24" height="24"><path fill="none" d="M0 0h24v24H0z"/><g fill="#757575"><path d="M20.311 3.696c-.231-.23-.655-.506-1.363-.506-.718 0-1.659.309-2.733.859a8.992 8.992 0 0 1 1.464.97c.3-.123 1.343-.493 1.571-.263 1.22 1.214-4.434 7.555-5.654 8.777-1.62 1.62-6.279 5.784-8.539 5.784-.663 0-.294-1.031-.045-1.646a9 9 0 0 1-.967-1.462c-1.76 3.417-.426 4.608 1.012 4.608 1.161 0 2.898-.792 4.854-2.145a6.919 6.919 0 0 0 2.092.331 7 7 0 0 0 7-7c0-.729-.121-1.427-.329-2.087 1.146-1.651 3.059-4.798 1.637-6.22z"/><path d="M12.535 12.474c1.81-1.811 3.383-3.739 4.425-5.411a7 7 0 1 0-9.914 9.884c1.692-1.044 3.652-2.637 5.489-4.473z"/></g></svg>