<svg xmlns="http://www.w3.org/2000/svg" width="24" height="24.002"><path fill="none" d="M0 0h24v24.002H0z"/><g fill="#757575"><path d="M13.999 8.001c-1 0-2 .999-2 1.999 0-1-1-1.999-2-1.999-2 0-3 1.344-3 2.999 0 3 5 6 5 6s5-3 5-6c0-1.655-1-2.999-3-2.999z"/><path d="M23.999 11h-2.051c-.47-4.717-4.232-8.478-8.949-8.948V0h-2v2.052C6.282 2.522 2.52 6.283 2.05 11H-.001v2H2.05c.47 4.717 4.232 8.479 8.949 8.949V24h2v-2.051c4.717-.471 8.479-4.232 8.949-8.949h2.051v-2zm-11 8.931V19h-2v.931A8.008 8.008 0 0 1 4.068 13h.931v-2h-.931a8.007 8.007 0 0 1 6.931-6.93V5h2v-.93A8.008 8.008 0 0 1 19.93 11h-.931v2h.931a8.007 8.007 0 0 1-6.931 6.931z"/></g></svg>