<svg xmlns="http://www.w3.org/2000/svg" width="24" height="24"><path fill="none" d="M0 0h24v24H0z"/><g fill="#757575"><path d="M13.499 1a1.5 1.5 0 0 0-1.5 1.5 1.5 1.5 0 0 0-3 0c0 1.5 3 4.5 3 4.5s3-3 3-4.5a1.5 1.5 0 0 0-1.5-1.5z"/><circle cx="18.999" cy="7.5" r="2.5"/><path d="M18.999 11c-2.393 0-4 2.009-4 5v2a1 1 0 0 0 1 1h1v4a1 1 0 0 0 1 1h2a1 1 0 0 0 1-1v-4h1a1 1 0 0 0 1-1v-2c0-2.991-1.607-5-4-5z"/><circle cx="4.999" cy="7.5" r="2.5"/><path d="M8.174 16.533C6.948 11.523 6.82 11 4.978 11c-1.799 0-1.928.524-3.154 5.539-.219.895-.479 1.957-.794 3.219A.997.997 0 0 0 1.978 21s.744.016 1.332.018c.191.573.479 1.465.736 2.283a.998.998 0 0 0 1.907 0c.258-.818.545-1.709.737-2.283A88.83 88.83 0 0 0 8.021 21a1 1 0 0 0 .948-1.243c-.316-1.264-.576-2.328-.795-3.224z"/></g></svg>