<svg xmlns="http://www.w3.org/2000/svg" width="24" height="24"><path fill="none" d="M0 0h24v24H0z"/><g fill="#757575"><path d="M9 15c1.572 0 2.889-.123 4-.316V11.7c-1.189.19-2.518.3-4 .3-4.175 0-7.191-.843-9-2.031V12c0 .769 2.216 3 9 3zm0-5c6.784 0 9-2.231 9-3V4.969C16.191 6.157 13.175 7 9 7s-7.191-.843-9-2.031V7c0 .769 2.216 3 9 3zm2 6.925c-.637.045-1.297.075-2 .075-4.175 0-7.191-.843-9-2.031V16c0 2.626 4.527 4 9 4 .671 0 1.342-.035 2-.096v-2.979z"/><path d="M9 5c5.195 0 7.705-1.306 8.599-2.265C16.404.936 12.687 0 9 0S1.596.936.401 2.735C1.295 3.694 3.805 5 9 5zm12 11h-9v2h2v1h-2v2h2c0 .334.167.646.445.832l3 2a1 1 0 0 0 1.11 0l3-2c.278-.186.445-.498.445-.832h2v-2h-2v-1h2v-2h-3zm-7-1a4 4 0 0 1 8 0h-8z"/></g></svg>