<svg xmlns="http://www.w3.org/2000/svg" width="24" height="24"><path fill="none" d="M0 0h24v24H0z"/><g fill="#757575"><path d="M9 15c6.784 0 9-2.231 9-3V9.969C16.191 11.157 13.175 12 9 12s-7.191-.843-9-2.031V12c0 .769 2.216 3 9 3z"/><path d="M9 10c6.784 0 9-2.231 9-3V4.969C16.191 6.157 13.175 7 9 7s-7.191-.843-9-2.031V7c0 .769 2.216 3 9 3z"/><path d="M9 5c5.195 0 7.705-1.306 8.599-2.265C16.404.936 12.687 0 9 0S1.596.936.401 2.735C1.295 3.694 3.805 5 9 5zm5.148 11.479C12.693 16.806 10.981 17 9 17c-4.175 0-7.191-.843-9-2.031V16c0 2.626 4.527 4 9 4 1.38 0 2.764-.132 4.02-.39a5.965 5.965 0 0 1 1.128-3.131zM18 23.414l-3.707-3.707 1.414-1.414L18 20.586l4.293-4.293 1.414 1.414z"/></g></svg>