<svg xmlns="http://www.w3.org/2000/svg" width="24" height="24"><path fill="none" d="M0 0h24v24H0z"/><g fill="#757575"><path d="M12 9c-4.175 0-7.191-.843-9-2.031V9c0 .769 2.216 3 9 3s9-2.231 9-3V6.969C19.191 8.157 16.175 9 12 9z"/><path d="M12 17c6.784 0 9-2.231 9-3v-2.031C19.191 13.157 16.175 14 12 14s-7.191-.843-9-2.031V14c0 .769 2.216 3 9 3zm0-10c5.195 0 7.705-1.306 8.599-2.265C19.404 2.936 15.687 2 12 2s-7.404.936-8.599 2.735C4.295 5.694 6.805 7 12 7z"/><path d="M12 19c-4.175 0-7.191-.843-9-2.031V18c0 2.626 4.527 4 9 4s9-1.374 9-4v-1.031C19.191 18.157 16.175 19 12 19z"/></g></svg>