<svg xmlns="http://www.w3.org/2000/svg" width="24" height="24"><path fill="none" d="M0 0h24v24H0z"/><g fill="#757575"><path d="M13 16.996h-2c-2.757 0-5 2.243-5 5v2h12v-2c0-2.757-2.244-5-5-5zm-4.657-1.473c-1.249-1.757-1.099-4.21.475-5.784a4.504 4.504 0 0 1 6.364 0c1.574 1.573 1.724 4.027.475 5.784a7.015 7.015 0 0 1 1.733 1.028c1.702-2.526 1.439-5.992-.793-8.226-2.534-2.535-6.658-2.533-9.193 0-2.232 2.234-2.495 5.7-.793 8.226a6.973 6.973 0 0 1 1.732-1.028z"/><path d="M5.512 17.664A7.936 7.936 0 0 1 4 12.996c0-2.137.833-4.146 2.343-5.657 3.119-3.119 8.194-3.119 11.313 0 2.809 2.81 3.08 7.2.83 10.324a6.987 6.987 0 0 1 1.06 1.878c3.406-3.923 3.254-9.886-.476-13.617-3.898-3.897-10.243-3.897-14.142 0A9.944 9.944 0 0 0 2 12.996c0 2.434.872 4.729 2.452 6.546a6.972 6.972 0 0 1 1.06-1.878z"/><circle cx="12" cy="12.996" r="3"/></g></svg>