<svg xmlns="http://www.w3.org/2000/svg" width="24" height="24"><path fill="none" d="M0 0h24v24H0z"/><path d="M21.707 13.606L10.393 2.293a.999.999 0 0 0-1.414 0c-1.7 1.7-2.637 3.959-2.637 6.363s.937 4.664 2.637 6.363c1.7 1.7 3.96 2.637 6.364 2.637s4.664-.937 6.364-2.637a.995.995 0 0 0 0-1.413zm-4.062-5.961l.749-.749c.191.062.393.104.606.104a2 2 0 1 0-2-2c0 .143.016.282.045.416l-.815.814 1.415 1.415zM6.707 14.293a1.004 1.004 0 0 0-.867-.28c-.317.052-.59.253-.734.54l-3 6A1.001 1.001 0 0 0 3 22h9a1 1 0 0 0 .707-1.707l-6-6z" fill="#757575"/></svg>