<svg xmlns="http://www.w3.org/2000/svg" width="24" height="24.002"><path fill="none" d="M0 0h24v24.002H0z"/><path d="M5.001 4.416v3.586h2V4.416l1.293 1.292 1.414-1.414L6.001.588 2.294 4.294l1.414 1.414zm15.707.292l-1.414-1.414-1.293 1.294V1.002h-2v3.586l-1.293-1.294-1.414 1.414 3.707 3.708zm-.707 5.294h-16a2 2 0 0 0-2 2v9a2 2 0 0 0 2 2h16a2 2 0 0 0 2-2v-9a2 2 0 0 0-2-2zm-3.5 3c1.101 0 2 .901 2 2 0 1.098-.899 2-2 2s-2-.902-2-2c0-1.099.9-2 2-2zm-9 0c1.101 0 2 .901 2 2 0 1.098-.899 2-2 2s-2-.902-2-2c0-1.099.9-2 2-2zm-3.5 8a3 3 0 0 1 3-3h1a3 3 0 0 1 3 3h-7zm9 0a3 3 0 0 1 3-3h1a3 3 0 0 1 3 3h-7z" fill="#757575"/></svg>