<svg xmlns="http://www.w3.org/2000/svg" width="24" height="24.002"><path fill="none" d="M0 0h24v24.002H0z"/><g fill="#757575"><circle cx="19.001" cy="6.002" r="2"/><path d="M19.001 9.002c-2.393 0-4 2.009-4 5v2a1 1 0 0 0 1 1h1v4a1 1 0 0 0 1 1h2a1 1 0 0 0 1-1v-4h1a1 1 0 0 0 1-1v-2c0-2.991-1.607-5-4-5zm-8-7h2v20h-2z"/><circle cx="5.001" cy="6.002" r="2"/><path d="M8.176 14.535C6.951 9.525 6.822 9.002 4.98 9.002c-1.799 0-1.928.524-3.154 5.538-.219.895-.479 1.957-.794 3.219a1.003 1.003 0 0 0 .948 1.243s.745.016 1.332.018c.191.573.478 1.465.736 2.283a1 1 0 1 0 1.908 0c.258-.818.545-1.71.736-2.283a88.829 88.829 0 0 0 1.332-.018 1.002 1.002 0 0 0 .948-1.243 637.575 637.575 0 0 1-.796-3.224z"/></g></svg>