<svg xmlns="http://www.w3.org/2000/svg" width="24" height="24"><path fill="none" d="M0 0h24v24H0z"/><path fill="#757575" d="M12 2.002c-5.522 0-10 4.477-10 10 0 5.521 4.478 10 10 10s10-4.479 10-10c0-5.523-4.478-10-10-10zm-3 14H7v-1H5v-2h3.5a.5.5 0 0 0 0-1h-1a2.503 2.503 0 0 1-2.5-2.5c0-1.208.86-2.217 2-2.449V6.002h2v1h2v2H7.5a.5.5 0 0 0 0 1h1c1.378 0 2.5 1.121 2.5 2.5 0 1.207-.86 2.217-2 2.449v1.051zm5 3h-4v-2h4v2zm5-10h-3.5a.5.5 0 0 0 0 1h1c1.378 0 2.5 1.121 2.5 2.5 0 1.207-.86 2.217-2 2.449v1.051h-2v-1h-2v-2h3.5a.5.5 0 0 0 0-1h-1a2.503 2.503 0 0 1-2.5-2.5c0-1.208.86-2.217 2-2.449V6.002h2v1h2v2z"/></svg>