<svg xmlns="http://www.w3.org/2000/svg" width="24" height="24"><path fill="none" d="M0 0h24v24H0z"/><g fill="#757575"><path d="M16.023 9.295c.334.931.554 1.897.554 2.85 0 2.362-1.306 4.152-2.521 5.313 1.309.033 3.021-.229 4.325-1.534 2.43-2.43 2.514-7.542 2.514-7.542s-2.526.043-4.872.913zm-8.034 0c-2.345-.87-4.872-.914-4.872-.914s.084 5.112 2.514 7.542c1.304 1.305 3.016 1.568 4.325 1.534-1.216-1.16-2.521-2.95-2.521-5.313 0-.952.22-1.918.554-2.849z"/><path d="M15.562 11.891c0-3.437-3.556-7.112-3.556-7.112S8.45 8.454 8.45 11.891c0 2.237 1.504 3.817 2.556 4.651v5.46h2v-5.46c1.052-.834 2.556-2.414 2.556-4.651z"/></g></svg>