<svg xmlns="http://www.w3.org/2000/svg" width="24" height="24"><path fill="none" d="M0 0h24v24H0z"/><g fill="#757575"><path d="M8.3 21.331c5.067-1.379 8.853-5.263 10.263-9.193-.873-.498-1.445-.771-2.644-1.105-1.52 4.451-5.314 7.884-10.336 8.679A10.004 10.004 0 0 0 8.3 21.331z"/><path d="M9.737 11.025a11.515 11.515 0 0 0 2.218 3.743 11.495 11.495 0 0 0 2.485-4.052 11.498 11.498 0 0 0-4.703.309z"/><path d="M10.858 15.789c-3.021-3.398-4.227-8.246-2.54-13.031a10.006 10.006 0 0 0-2.855 1.734 15.32 15.32 0 0 0 3.225 12.672c.748-.371 1.257-.635 2.17-1.375z"/><path d="M21.998 12.048c0-.851-.118-1.672-.318-2.461-3.815-2.779-8.394-3.541-12.63-2.506l-.002.03c0 .843.098 1.669.272 2.475 4.297-1.204 9.104-.192 12.638 3.249.021-.261.04-.522.04-.787z"/><path d="M9.164 5.514c3.805-.814 7.854-.337 11.601 1.725A9.994 9.994 0 0 0 12 2.049c-.633 0-1.25.065-1.85.178a11.586 11.586 0 0 0-.986 3.287zm10.68 7.468c-1.418 3.621-4.631 7.161-8.899 9.007 4.997.523 9.428-2.688 10.689-7.303a11.592 11.592 0 0 0-1.79-1.704zm-12.567 4.77A16.768 16.768 0 0 1 3.692 6.484a9.954 9.954 0 0 0-1.691 5.563c0 2.389.841 4.58 2.239 6.3a11.484 11.484 0 0 0 3.037-.595z"/></g></svg>