<svg xmlns="http://www.w3.org/2000/svg" width="24" height="24"><path fill="none" d="M0 0h24v24H0z"/><path d="M18.08 11h3.87a9.932 9.932 0 0 0-1.491-4.316A6.987 6.987 0 0 0 18.08 11zm0 2a6.992 6.992 0 0 0 2.379 4.317A9.94 9.94 0 0 0 21.95 13h-3.87zM13 11h3.059a8.985 8.985 0 0 1 3.17-5.897A9.959 9.959 0 0 0 13 2.051V11zm-5.059 0H11V2.051a9.959 9.959 0 0 0-6.229 3.052A8.99 8.99 0 0 1 7.941 11zM2.05 13a9.94 9.94 0 0 0 1.491 4.317A6.992 6.992 0 0 0 5.92 13H2.05zm1.491-6.316A9.932 9.932 0 0 0 2.05 11h3.87a6.987 6.987 0 0 0-2.379-4.316zM16.059 13H13v8.95a9.969 9.969 0 0 0 6.229-3.052A8.994 8.994 0 0 1 16.059 13zM11 13H7.941a8.985 8.985 0 0 1-3.17 5.897A9.959 9.959 0 0 0 11 21.949V13z" fill="#757575"/></svg>