<svg xmlns="http://www.w3.org/2000/svg" width="24" height="24.001"><path fill="none" d="M0 0h24v24.001H0z"/><g fill="#757575"><circle cx="15.001" cy="6.002" r="1"/><circle cx="17.001" cy="4.002" r="1"/><circle cx="20.001" cy="2.002" r="1"/><circle cx="20.001" cy="6.002" r="1"/><circle cx="20.001" cy="10.002" r="1"/><circle cx="17.001" cy="8.002" r="1"/><path d="M13.001 5.002a1 1 0 0 0-1-1h-5c-.334 0-.646.167-.832.445l-2 3a1.002 1.002 0 0 0 .833 1.555h6.001v1h-.001c0 .266.105.52.293.707l3 3 1.414-1.414-2.707-2.707V5.002z"/><path d="M10.001 10.588v-.586h-4v.586l-2.707 2.707a1 1 0 0 0-.293.707v7a1 1 0 0 0 1 1h8a1 1 0 0 0 1-1v-7a.997.997 0 0 0-.293-.707l-2.707-2.707z"/></g></svg>