<svg xmlns="http://www.w3.org/2000/svg" width="24" height="24"><path fill="none" d="M0 0h24v24H0z"/><path fill="#757575" d="M19.763 15.028l-3.209-5.776c.276-.343.449-.773.449-1.248a2 2 0 0 0-2-2c-.589 0-1.113.259-1.479.664L5.995 3.93a1.997 1.997 0 0 0-3.993.074 2 2 0 0 0 2 2c.589 0 1.113-.259 1.479-.664l7.529 2.738c.006.162.034.317.076.467L6.999 13.28a1.984 1.984 0 0 0-.996-.275 2 2 0 1 0 .781 3.842l2.377 2.377a2 2 0 0 0 1.842 2.781c1.061 0 1.92-.828 1.987-1.872l5.5-1.833c.367.428.905.705 1.513.705a2 2 0 0 0 2-2 1.986 1.986 0 0 0-2.24-1.977zm-8.761 2.976c-.277 0-.541.057-.781.159l-2.377-2.378c.102-.24.158-.504.158-.781 0-.188-.034-.367-.083-.541l6.087-4.734c.448.26.828.301 1.236.251l3.209 5.776a1.977 1.977 0 0 0-.436 1.12l-5.5 1.833a1.988 1.988 0 0 0-1.513-.705z"/></svg>