<svg xmlns="http://www.w3.org/2000/svg" width="24" height="24"><path fill="none" d="M0 0h24v24H0z"/><path d="M17.896 14.554a1 1 0 0 0-.895-.552h-11a1 1 0 0 0-.97.757l-.561 2.243h14.65l-1.224-2.448zm1.105 3.448h-14a3 3 0 1 0 0 6h14a3 3 0 1 0 0-6zm-12 4.25a1.25 1.25 0 1 1 0-2.5 1.25 1.25 0 0 1 0 2.5zm5 0a1.25 1.25 0 1 1 0-2.5 1.25 1.25 0 0 1 0 2.5zm5 0a1.25 1.25 0 1 1 0-2.5 1.25 1.25 0 0 1 0 2.5zm3-13.25v1h-4.923l-.148-.372a1 1 0 0 0-.929-.628h-5c-.409 0-.776.249-.929.628l-1.349 3.372h9.555l-.4-1h4.123v1h2v-4h-2z" fill="#757575"/></svg>