<svg xmlns="http://www.w3.org/2000/svg" width="24" height="24"><path fill="none" d="M0 0h24v24H0z"/><g fill="#757575"><path d="M21.899 6.758l-2.828-2.829C15.172.03 8.828.03 4.928 3.929L2.101 6.758c-.378.378-.586.88-.586 1.415 0 .534.208 1.036.586 1.414l2.121 2.121c.378.378.88.586 1.414.586s1.036-.208 1.414-.586l2.122-2.121c.378-.378.586-.88.586-1.414 0-.535-.208-1.037-.586-1.415L7.099 4.686a8.007 8.007 0 0 1 9.803 0l-2.074 2.073a2.005 2.005 0 0 0 .001 2.827l2.121 2.121c.378.378.88.586 1.415.586s1.037-.208 1.415-.586l2.121-2.121a2.003 2.003 0 0 0-.002-2.828z"/><path d="M15 13.08V11h-2v2h-2v-2H9v2.08c-3.387.487-6 3.4-6 6.92v3h18v-3c0-3.52-2.613-6.433-6-6.92zM12 21a3 3 0 1 1 0-6 3 3 0 0 1 0 6z"/></g></svg>