<svg xmlns="http://www.w3.org/2000/svg" width="24.001" height="24.001"><path fill="none" d="M0 0h24.001v24.001H0z"/><g fill="#757575"><path d="M20.289 14.13l1.42-1.421a.998.998 0 0 0 0-1.413l-1.42-1.421 1.545-2.317a.998.998 0 0 0-.832-1.555h-7.189c-.651-1.743-2.967-3-5.811-3-3.364 0-6 1.757-6 4v10c0 2.243 2.636 4 6 4 2.843 0 5.16-1.257 5.811-3h7.189a1 1 0 0 0 .832-1.554l-1.545-2.319zM8.002 5.002c2.29 0 4 1.056 4 2s-1.71 2-4 2-4-1.056-4-2 1.711-2 4-2zm0 14c-2.29 0-4-1.056-4-2v-7c1.055.623 2.448 1 4 1s2.945-.377 4-1v7c0 .945-1.71 2-4 2zm10.168-4.444l.963 1.445h-5.131v-8h5.131l-.963 1.445a.998.998 0 0 0 .125 1.261l1.293 1.293-1.293 1.293a1.002 1.002 0 0 0-.125 1.263z"/><circle cx="8.002" cy="7.002" r="1"/></g></svg>