<svg xmlns="http://www.w3.org/2000/svg" width="24" height="24"><path fill="none" d="M0 0h24v24H0z"/><g fill="#757575"><path d="M8.002 20.002c0-.366-.105-.705-.277-1h7.555a1.977 1.977 0 0 0-.277 1 2 2 0 0 0 4 0c0-.366-.105-.705-.277-1h1.277a1 1 0 0 0 1-1v-6a1 1 0 0 0-1-1h-17a1 1 0 0 0-1 1v6a1 1 0 0 0 1 1H4.28a1.977 1.977 0 0 0-.277 1 2 2 0 0 0 3.999 0zm8-7h3v3h-3v-3zm-6 0h3v3h-3v-3zm-6 0h3v3h-3v-3z"/><path d="M2.002 22.002h20v2h-20zm16-14h-4.765l-1.333-2 1.333-2h1.765v-2h-6v2h2.432l-1.333 2 1.333 2H6.002v2h12z"/></g></svg>