<svg xmlns="http://www.w3.org/2000/svg" width="24" height="24.001"><g fill="none"><path d="M0 0h24v24.001H0z"/><path d="M0 0h24v24.001H0z"/></g><path d="M21.475 3.003l-.729 5.105-1.486-.212.699-4.894h-3.913l.699 4.894-1.485.212-.729-5.105h-1.528l1.739 16.995a3.285 3.285 0 0 0 3.261 3.005c1.696 0 3.111-1.321 3.259-3.012l1.741-16.988h-1.528zm-1.472 16a2 2 0 0 1-4 0v-3a2 2 0 0 1 4 0v3zm-12-17a3.286 3.286 0 0 0-3.261 3.005L3.003 22.003h1.528l.729-5.106 1.485.212-.699 4.895h3.913l-.699-4.896 1.485-.212.729 5.106h1.528l-1.74-16.986c-.148-1.692-1.563-3.013-3.259-3.013zm2 7a2 2 0 0 1-4 0v-3a2 2 0 0 1 4 0v3z" fill="#757575"/></svg>