<svg xmlns="http://www.w3.org/2000/svg" width="24.001" height="24.001"><path fill="none" d="M0 0h24.001v24.001H0z"/><path d="M4.003 11.002h16a3 3 0 0 0-3-3c-.314 0-.612.062-.897.152a4.986 4.986 0 0 0-8.205.001 2.966 2.966 0 0 0-.897-.152 3 3 0 0 0-3.001 2.999zm7-9h2v3h-2zM4.71 3.296l2 2-1.414 1.413-2-2zm14.587 0l1.414 1.413-1.999 2.001-1.414-1.413zm.706 8.706h-16c-.552 0-1 .449-1 1v8a1 1 0 0 0 1 1h16a1 1 0 0 0 1-1v-8a1 1 0 0 0-1-1zM12.002 13.5a1.002 1.002 0 1 1-.001 2.003 1.002 1.002 0 0 1 .001-2.003zm6.001 5.502h-12v-4h3v2h6v-2h3v4z" fill="#757575"/></svg>