<svg xmlns="http://www.w3.org/2000/svg" width="24.001" height="24.001"><path fill="none" d="M0 0h24.001v24.001H0z"/><path d="M10.457 7.999c-.472.595-1.458 2.067-1.458 4 0 1.363 1.128 5.723 1.758 8h2.483c.63-2.277 1.758-6.638 1.758-8 0-1.952-.981-3.409-1.455-4h-3.086zm-2.389 0H2.999a1 1 0 0 0-1 1v6a1 1 0 0 0 1 1c2.629 0 4.299 1.242 5.217 2.236-.569-2.211-1.217-4.998-1.217-6.236 0-1.645.523-3.012 1.069-4zm12.931 0H15.93c.546.988 1.069 2.355 1.069 4 0 1.24-.65 4.034-1.219 6.247.919-.995 2.594-2.247 5.219-2.247a1 1 0 0 0 1-1v-6a1 1 0 0 0-1-1zm-19-3h20v2h-20z" fill="#757575"/></svg>