<svg xmlns="http://www.w3.org/2000/svg" width="24.001" height="24.001"><path fill="none" d="M0 0h24.001v24.001H0z"/><path fill="#757575" d="M17.999 15.999c0-.663.347-1.165.785-1.799.542-.783 1.215-1.757 1.215-3.201 0-1.243-1.003-3.328-3-3.867V1.999h-2v5.706c-.276.378-1.132 1.294-3 1.294-1.877 0-2.732-.924-3-1.292V1.999h-2v5.133c-1.997.539-3 2.624-3 3.867 0 1.444.673 2.418 1.215 3.201.438.634.785 1.136.785 1.799 0 .188-.107.481-.243.853-.301.824-.757 2.068-.757 4.147a1 1 0 0 0 1 1h12a1 1 0 0 0 1-1c0-2.079-.456-3.323-.757-4.147-.136-.372-.243-.664-.243-.853z"/></svg>