<svg xmlns="http://www.w3.org/2000/svg" width="24" height="24"><path fill="none" d="M0 0h24v24H0z"/><path fill="#757575" d="M21.414 18.586l-4.527-4.527A7.95 7.95 0 0 0 18 10a7.945 7.945 0 0 0-2.344-5.656C14.146 2.833 12.137 2 10 2s-4.146.833-5.656 2.343C2.833 5.854 2 7.863 2 10s.833 4.146 2.344 5.656A7.94 7.94 0 0 0 10 18a7.95 7.95 0 0 0 4.059-1.113l4.527 4.527c.378.378.88.586 1.414.586s1.036-.208 1.414-.586c.78-.779.78-2.048 0-2.828zM9.949 6a2 2 0 1 1-.001 4.001A2 2 0 0 1 9.949 6zm-3 8c0-1.841 1.159-3 3-3s3 1.159 3 3h-6z"/></svg>