<svg xmlns="http://www.w3.org/2000/svg" width="24" height="24"><path fill="none" d="M0 0h24v24H0z"/><path d="M10.667 8h2.666A1.67 1.67 0 0 0 15 6.333V3.667A1.67 1.67 0 0 0 13.333 2h-2.666A1.67 1.67 0 0 0 9 3.667v2.667C9 7.252 9.748 8 10.667 8zm-4.334 8H3.667A1.67 1.67 0 0 0 2 17.667v2.667C2 21.252 2.748 22 3.667 22h2.666A1.67 1.67 0 0 0 8 20.333v-2.667C8 16.748 7.252 16 6.333 16zm14 0h-2.666A1.67 1.67 0 0 0 16 17.667v2.667c0 .918.748 1.666 1.667 1.666h2.666A1.67 1.67 0 0 0 22 20.333v-2.667c0-.918-.748-1.666-1.667-1.666zM9.105 8.553l1.79.894-3 6-1.79-.895zm7 6.895l-3-6 1.79-.894 3 6zM10 18h4v2h-4z" fill="#757575"/></svg>