<svg xmlns="http://www.w3.org/2000/svg" width="24" height="24"><path fill="none" d="M0 0h24v24H0z"/><path d="M22 10h-2c-.55 0-1 .451-1 1v2c0 .55.45 1 1 1h2c.55 0 1-.45 1-1v-2c0-.549-.45-1-1-1zM5 13v-2c0-.549-.45-1-1-1H2c-.55 0-1 .451-1 1v2c0 .55.45 1 1 1h2c.55 0 1-.45 1-1zm8-12h-2c-.55 0-1 .451-1 1v2c0 .55.45 1 1 1h2c.55 0 1-.45 1-1V2c0-.549-.45-1-1-1zm0 18h-2c-.55 0-1 .451-1 1v2c0 .55.45 1 1 1h2c.55 0 1-.45 1-1v-2c0-.549-.45-1-1-1zm5.917-11h2.242A10.054 10.054 0 0 0 16 2.841v2.242A8.03 8.03 0 0 1 18.917 8zM2.841 8h2.242A8.03 8.03 0 0 1 8 5.083V2.841A10.054 10.054 0 0 0 2.841 8zM16 18.917v2.242A10.054 10.054 0 0 0 21.159 16h-2.242A8.03 8.03 0 0 1 16 18.917zM5.083 16H2.841A10.054 10.054 0 0 0 8 21.159v-2.242A8.03 8.03 0 0 1 5.083 16z" fill="#757575"/></svg>