<svg xmlns="http://www.w3.org/2000/svg" width="24" height="24"><path fill="none" d="M0 0h24v24H0z"/><path fill="#757575" d="M12 21.998c-5.514 0-10-4.486-10-10C2 6.486 6.486 2 12 2s10 4.486 10 9.998c0 5.514-4.486 10-10 10zM12 4c-4.411 0-8 3.588-8 7.998 0 4.412 3.589 8 8 8s8-3.588 8-8C20 7.588 16.411 4 12 4z"/><path fill="#757575" d="M12 17.998c-.178 0-.356-.047-.515-.142C10.924 17.519 6 14.464 6 10.998 6 8.607 7.607 7 10 7c.735 0 1.452.332 2 .845.548-.513 1.265-.845 2-.845 2.393 0 4 1.607 4 3.998 0 3.467-4.924 6.521-5.485 6.858a1.002 1.002 0 0 1-.515.142zM10 9c-1.805 0-2 1.398-2 1.998 0 1.739 2.578 3.846 4 4.812 1.422-.965 4-3.073 4-4.812 0-.6-.195-1.998-2-1.998-.449 0-1 .551-1 .998a1 1 0 0 1-2 0C11 9.551 10.449 9 10 9z"/></svg>